ISO-10303-21;
HEADER;
FILE_DESCRIPTION (( 'STEP AP203' ),
    '1' );
FILE_NAME ('91075A472_NO THREADS_Male-Female Threaded Hex Standoff.STEP',
    '2022-12-07T21:46:24',
    ( 'Administrator' ),
    ( 'Managed by Terraform' ),
    'SwSTEP 2.0',
    'SolidWorks 2017',
    '' );
FILE_SCHEMA (( 'CONFIG_CONTROL_DESIGN' ));
ENDSEC;

DATA;
#1 = CARTESIAN_POINT ( 'NONE',  ( -0.09375000000000367800, -0.04654026929610846600, 0.008985074313970522300 ) ) ;
#2 = CARTESIAN_POINT ( 'NONE',  ( -0.09374999999999998600, 0.01465566951111832400, 0.4342877165434236900 ) ) ;
#3 = CARTESIAN_POINT ( 'NONE',  ( -0.09374999999999995800, 0.04330127018922149500, 0.4292990582611421200 ) ) ;
#4 = B_SPLINE_CURVE_WITH_KNOTS ( 'NONE', 3,
 ( #629, #815, #721, #351, #190, #822, #179, #267 ),
 .UNSPECIFIED., .F., .F.,
 ( 4, 2, 2, 4 ),
 ( 0.0002828055215726261400, 0.001388969274831866100, 0.001942051151461486600, 0.002495133028091106800 ),
 .UNSPECIFIED. ) ;
#5 = AXIS2_PLACEMENT_3D ( 'NONE', #957, #38, #30 ) ;
#6 = CARTESIAN_POINT ( 'NONE',  ( 0.0000000000000000000, 0.05599999999999951500, -0.03187499999999953600 ) ) ;
#7 = FACE_OUTER_BOUND ( 'NONE', #417, .T. ) ;
#8 = VERTEX_POINT ( 'NONE', #944 ) ;
#9 = DIRECTION ( 'NONE',  ( -0.0000000000000000000, 7.512581982576723900E-017, -1.000000000000000000 ) ) ;
#10 = EDGE_LOOP ( 'NONE', ( #112, #318, #1026, #851 ) ) ;
#11 = ORIENTED_EDGE ( 'NONE', *, *, #155, .T. ) ;
#12 = EDGE_CURVE ( 'NONE', #908, #356, #63, .T. ) ;
#13 = CARTESIAN_POINT ( 'NONE',  ( -0.003306075873705818100, -0.1053498903899836000, 0.4280961984790382400 ) ) ;
#14 = CARTESIAN_POINT ( 'NONE',  ( -1.002183198536078500E-017, -0.1082531754730551000, -0.2864109809347400400 ) ) ;
#15 = ADVANCED_FACE ( 'NONE', ( #143, #1037 ), #941, .F. ) ;
#16 = DIRECTION ( 'NONE',  ( 0.0000000000000000000, 1.000000000000000000, 0.0000000000000000000 ) ) ;
#17 = B_SPLINE_CURVE_WITH_KNOTS ( 'NONE', 3,
 ( #474, #236, #328, #1168, #778, #960, #418, #407 ),
 .UNSPECIFIED., .F., .F.,
 ( 4, 2, 2, 4 ),
 ( 0.0002828055215726265700, 0.001388969274831865700, 0.001942051151461485700, 0.002495133028091105900 ),
 .UNSPECIFIED. ) ;
#18 = CIRCLE ( 'NONE', #58, 0.05600000000000006400 ) ;
#19 = EDGE_CURVE ( 'NONE', #553, #329, #206, .T. ) ;
#20 = CARTESIAN_POINT ( 'NONE',  ( 0.0000000000000000000, -3.303401816088712100E-017, -0.03187499999999954300 ) ) ;
#21 = FACE_OUTER_BOUND ( 'NONE', #704, .T. ) ;
#22 = CARTESIAN_POINT ( 'NONE',  ( -0.09288871930061923200, -0.04981179950119690000, 0.4280961984790605500 ) ) ;
#23 = ORIENTED_EDGE ( 'NONE', *, *, #525, .F. ) ;
#24 = ADVANCED_FACE ( 'NONE', ( #7 ), #713, .T. ) ;
#25 = ORIENTED_EDGE ( 'NONE', *, *, #525, .T. ) ;
#26 = CARTESIAN_POINT ( 'NONE',  ( 0.0000000000000000000, -0.04975000000000010000, -0.1875000000000000600 ) ) ;
#27 = ORIENTED_EDGE ( 'NONE', *, *, #389, .T. ) ;
#28 = EDGE_CURVE ( 'NONE', #1063, #586, #727, .T. ) ;
#29 = ADVANCED_FACE ( 'NONE', ( #125 ), #315, .F. ) ;
#30 = DIRECTION ( 'NONE',  ( 0.0000000000000000000, 1.000000000000000000, 0.0000000000000000000 ) ) ;
#31 = CARTESIAN_POINT ( 'NONE',  ( -0.03409402466997470800, 0.08856898115208693100, 0.002714823367071010600 ) ) ;
#32 = FACE_OUTER_BOUND ( 'NONE', #142, .T. ) ;
#33 = ADVANCED_FACE ( 'NONE', ( #653 ), #534, .T. ) ;
#34 = EDGE_CURVE ( 'NONE', #444, #818, #461, .T. ) ;
#35 = FACE_OUTER_BOUND ( 'NONE', #807, .T. ) ;
#36 = DIRECTION ( 'NONE',  ( 0.0000000000000000000, -1.000000000000000000, 0.0000000000000000000 ) ) ;
#37 = VERTEX_POINT ( 'NONE', #878 ) ;
#38 = DIRECTION ( 'NONE',  ( -0.0000000000000000000, 7.512581982576723900E-017, -1.000000000000000000 ) ) ;
#39 = ORIENTED_EDGE ( 'NONE', *, *, #1184, .T. ) ;
#40 = ORIENTED_EDGE ( 'NONE', *, *, #633, .T. ) ;
#41 = PERSON_AND_ORGANIZATION_ROLE ( 'creator' ) ;
#42 = DIRECTION ( 'NONE',  ( -0.0000000000000000000, 7.512581982576723900E-017, -1.000000000000000000 ) ) ;
#43 = DIRECTION ( 'NONE',  ( 0.0000000000000000000, 1.000000000000000000, 7.512581982576723900E-017 ) ) ;
#44 = DIRECTION ( 'NONE',  ( -0.0000000000000000000, 7.512581982576723900E-017, -1.000000000000000000 ) ) ;
#45 = CARTESIAN_POINT ( 'NONE',  ( 0.07822460040010897900, 0.06309018137480074100, 0.4310183570985682300 ) ) ;
#46 = CARTESIAN_POINT ( 'NONE',  ( 0.0000000000000000000, -3.303401816088712100E-017, -0.03187499999999954300 ) ) ;
#47 = PERSON_AND_ORGANIZATION_ROLE ( 'design_owner' ) ;
#48 = ORGANIZATION ( 'UNSPECIFIED', 'UNSPECIFIED', '' ) ;
#49 = CC_DESIGN_SECURITY_CLASSIFICATION ( #71, ( #676 ) ) ;
#50 = VECTOR ( 'NONE', #191, 39.37007874015748900 ) ;
#51 = DIRECTION ( 'NONE',  ( -0.0000000000000000000, 7.512581982576723900E-017, -1.000000000000000000 ) ) ;
#52 = VECTOR ( 'NONE', #1068, 39.37007874015748900 ) ;
#53 = CARTESIAN_POINT ( 'NONE',  ( 1.875178425566287400E-018, 0.1082531754730545600, -0.2864109809347400400 ) ) ;
#54 = EDGE_CURVE ( 'NONE', #1063, #953, #1004, .T. ) ;
#55 = EDGE_LOOP ( 'NONE', ( #1166, #762 ) ) ;
#56 = ORIENTED_EDGE ( 'NONE', *, *, #695, .F. ) ;
#57 = DIRECTION ( 'NONE',  ( -1.000000000000000000, 0.0000000000000000000, 0.0000000000000000000 ) ) ;
#58 = AXIS2_PLACEMENT_3D ( 'NONE', #266, #630, #97 ) ;
#59 = DIRECTION ( 'NONE',  ( 0.0000000000000000000, 1.000000000000000000, 7.622343732322224300E-017 ) ) ;
#60 = CARTESIAN_POINT ( 'NONE',  ( -0.09374999999999991700, 0.04653947266778547800, 0.008984881457411199300 ) ) ;
#61 = DIRECTION ( 'NONE',  ( 0.0000000000000000000, -7.512581982576723900E-017, 1.000000000000000000 ) ) ;
#62 = CIRCLE ( 'NONE', #989, 0.08906250000000000300 ) ;
#63 = LINE ( 'NONE', #1031, #287 ) ;
#64 = DIRECTION ( 'NONE',  ( 0.0000000000000000000, 1.000000000000000000, 8.051361755168186700E-017 ) ) ;
#65 = ORIENTED_EDGE ( 'NONE', *, *, #877, .T. ) ;
#66 = ORIENTED_EDGE ( 'NONE', *, *, #203, .T. ) ;
#67 = CARTESIAN_POINT ( 'NONE',  ( 0.09374999999999998600, 0.04330127018922160600, 0.008200941738857965900 ) ) ;
#68 = ORIENTED_EDGE ( 'NONE', *, *, #614, .T. ) ;
#69 = PLANE ( 'NONE',  #1099 ) ;
#70 = CARTESIAN_POINT ( 'NONE',  ( -0.08958264342677872700, 0.05553809088845938100, 0.4280961984790385100 ) ) ;
#71 = SECURITY_CLASSIFICATION ( '', '', #500 ) ;
#72 = AXIS2_PLACEMENT_3D ( 'NONE', #694, #515, #334 ) ;
#73 = CARTESIAN_POINT ( 'NONE',  ( 6.858022075225138900E-018, -0.05599999999999957800, -0.03187499999999954300 ) ) ;
#74 = AXIS2_PLACEMENT_3D ( 'NONE', #1075, #226, #57 ) ;
#75 = LOCAL_TIME ( 15, 46, 24.00000000000000000, #313 ) ;
#76 = CARTESIAN_POINT ( 'NONE',  ( 0.08718005550949412000, -0.05791974695668219300, 0.008985074313995618600 ) ) ;
#77 = VECTOR ( 'NONE', #106, 39.37007874015748100 ) ;
#78 = CARTESIAN_POINT ( 'NONE',  ( -0.09374999999999995800, 0.04330127018922149500, 0.4292990582611421200 ) ) ;
#79 = VECTOR ( 'NONE', #697, 39.37007874015748100 ) ;
#80 = VERTEX_POINT ( 'NONE', #876 ) ;
#81 = CARTESIAN_POINT ( 'NONE',  ( -0.09374999999999995800, 0.04330127018922156500, 0.008200941738857938200 ) ) ;
#82 = EDGE_CURVE ( 'NONE', #971, #818, #918, .T. ) ;
#83 = VERTEX_POINT ( 'NONE', #228 ) ;
#84 = ORIENTED_EDGE ( 'NONE', *, *, #450, .T. ) ;
#85 = CARTESIAN_POINT ( 'NONE',  ( 0.0000000000000000000, 0.05599999999999959900, 0.4312500000000005800 ) ) ;
#86 = ORIENTED_EDGE ( 'NONE', *, *, #1194, .T. ) ;
#87 = DIRECTION ( 'NONE',  ( -0.0000000000000000000, 7.512581982576723900E-017, -1.000000000000000000 ) ) ;
#88 = DIRECTION ( 'NONE',  ( 0.0000000000000000000, 0.8660254037844402600, -0.4999999999999973900 ) ) ;
#89 = CC_DESIGN_PERSON_AND_ORGANIZATION_ASSIGNMENT ( #1052, #148, ( #71 ) ) ;
#90 = CARTESIAN_POINT ( 'NONE',  ( -0.07202606360751812000, -0.06666890826058539900, 0.4324020934779378400 ) ) ;
#91 = AXIS2_PLACEMENT_3D ( 'NONE', #1049, #783, #678 ) ;
#92 = CARTESIAN_POINT ( 'NONE',  ( -0.08437499999949539500, 0.05953924651047120400, 0.4292990582612831700 ) ) ;
#93 = VECTOR ( 'NONE', #129, 39.37007874015748100 ) ;
#94 = FACE_OUTER_BOUND ( 'NONE', #998, .T. ) ;
#95 = ORIENTED_EDGE ( 'NONE', *, *, #935, .F. ) ;
#96 = EDGE_LOOP ( 'NONE', ( #495, #511, #691, #933 ) ) ;
#97 = DIRECTION ( 'NONE',  ( 0.0000000000000000000, 1.000000000000000000, 0.0000000000000000000 ) ) ;
#98 = EDGE_CURVE ( 'NONE', #1102, #688, #337, .T. ) ;
#99 = DIRECTION ( 'NONE',  ( 0.0000000000000000000, -0.7071067811865484600, 0.7071067811865464600 ) ) ;
#100 = AXIS2_PLACEMENT_3D ( 'NONE', #323, #504, #970 ) ;
#101 = CARTESIAN_POINT ( 'NONE',  ( 6.858022075225135800E-018, -0.05599999999999967500, -0.1875000000000000600 ) ) ;
#102 = ADVANCED_FACE ( 'NONE', ( #232 ), #575, .T. ) ;
#103 = CARTESIAN_POINT ( 'NONE',  ( 6.092617825758091800E-018, 0.04975000000000006500, -0.1875000000000000600 ) ) ;
#104 = CARTESIAN_POINT ( 'NONE',  ( 0.0000000000000000000, 0.03976202367904199700, -0.006249999999999998600 ) ) ;
#105 = VECTOR ( 'NONE', #922, 39.37007874015748100 ) ;
#106 = DIRECTION ( 'NONE',  ( -0.0000000000000000000, -0.0000000000000000000, -1.000000000000000000 ) ) ;
#107 = CIRCLE ( 'NONE', #5, 0.04974999999999957900 ) ;
#108 = ADVANCED_FACE ( 'NONE', ( #994 ), #342, .F. ) ;
#109 = VERTEX_POINT ( 'NONE', #961 ) ;
#110 = CARTESIAN_POINT ( 'NONE',  ( -0.09374999999999995800, 0.05412658773652713500, -0.2864109809347400400 ) ) ;
#111 = ORIENTED_EDGE ( 'NONE', *, *, #977, .F. ) ;
#112 = ORIENTED_EDGE ( 'NONE', *, *, #1016, .F. ) ;
#113 = ORIENTED_EDGE ( 'NONE', *, *, #877, .F. ) ;
#114 = DIRECTION ( 'NONE',  ( 0.0000000000000000000, -1.000000000000000000, 0.0000000000000000000 ) ) ;
#115 = EDGE_CURVE ( 'NONE', #658, #742, #473, .T. ) ;
#116 = ADVANCED_FACE ( 'NONE', ( #382 ), #905, .T. ) ;
#117 = CARTESIAN_POINT ( 'NONE',  ( 6.858022075225123500E-018, -0.05599999999999958500, -0.03187499999999954300 ) ) ;
#118 = DIRECTION ( 'NONE',  ( 0.0000000000000000000, 1.000000000000000000, 7.512581982576723900E-017 ) ) ;
#119 = DIRECTION ( 'NONE',  ( 0.0000000000000000000, -0.0000000000000000000, -1.000000000000000000 ) ) ;
#120 = CARTESIAN_POINT ( 'NONE',  ( -0.006570634391051056700, -0.1044596179386351700, 0.4285151185427535400 ) ) ;
#121 = ADVANCED_FACE ( 'NONE', ( #835 ), #441, .F. ) ;
#122 = DIRECTION ( 'NONE',  ( -0.0000000000000000000, 7.512581982576723900E-017, -1.000000000000000000 ) ) ;
#123 = CARTESIAN_POINT ( 'NONE',  ( 0.0000000000000000000, -4.951474488516478300E-017, 0.1875000000000001100 ) ) ;
#124 = CIRCLE ( 'NONE', #821, 0.08906250000000001700 ) ;
#125 = FACE_OUTER_BOUND ( 'NONE', #1117, .T. ) ;
#126 = DIRECTION ( 'NONE',  ( 0.0000000000000000000, 1.000000000000000000, 7.512581982576723900E-017 ) ) ;
#127 = ORIENTED_EDGE ( 'NONE', *, *, #237, .F. ) ;
#128 = ORIENTED_EDGE ( 'NONE', *, *, #926, .T. ) ;
#129 = DIRECTION ( 'NONE',  ( -0.0000000000000000000, 0.0000000000000000000, 1.000000000000000000 ) ) ;
#130 = ORIENTED_EDGE ( 'NONE', *, *, #321, .T. ) ;
#131 = CARTESIAN_POINT ( 'NONE',  ( 0.02164890108860734900, 0.09575417660188755000, 0.4327301367674013000 ) ) ;
#132 = CARTESIAN_POINT ( 'NONE',  ( 0.0000000000000000000, 0.0000000000000000000, 0.0000000000000000000 ) ) ;
#133 = CARTESIAN_POINT ( 'NONE',  ( 0.0000000000000000000, -1.707404996040164500E-016, 0.0000000000000000000 ) ) ;
#134 = DIRECTION ( 'NONE',  ( 0.8660254037844397100, -1.060575238724908000E-016, 0.4999999999999979500 ) ) ;
#135 = LOCAL_TIME ( 15, 46, 24.00000000000000000, #753 ) ;
#136 = CIRCLE ( 'NONE', #429, 0.05599999999999966100 ) ;
#137 = EDGE_CURVE ( 'NONE', #80, #346, #978, .T. ) ;
#138 = CYLINDRICAL_SURFACE ( 'NONE', #1188, 0.05599999999999980700 ) ;
#139 = CARTESIAN_POINT ( 'NONE',  ( 0.0000000000000000000, -2.134256245050205600E-017, -0.1875000000000000600 ) ) ;
#140 = ORIENTED_EDGE ( 'NONE', *, *, #257, .F. ) ;
#141 = ORIENTED_EDGE ( 'NONE', *, *, #977, .T. ) ;
#142 = EDGE_LOOP ( 'NONE', ( #637, #584, #68, #86 ) ) ;
#143 = FACE_BOUND ( 'NONE', #995, .T. ) ;
#144 = APPLICATION_CONTEXT ( 'configuration controlled 3d designs of mechanical parts and assemblies' ) ;
#145 = EDGE_CURVE ( 'NONE', #303, #742, #154, .T. ) ;
#146 = DIRECTION ( 'NONE',  ( -0.0000000000000000000, 7.512581982576723900E-017, -1.000000000000000000 ) ) ;
#147 = B_SPLINE_CURVE_WITH_KNOTS ( 'NONE', 3,
 ( #588, #591, #871, #319, #153, #886 ),
 .UNSPECIFIED., .F., .F.,
 ( 4, 2, 4 ),
 ( 1.440754294118891000E-014, 0.0002504517647600613300, 0.0005009035295057151200 ),
 .UNSPECIFIED. ) ;
#148 = PERSON_AND_ORGANIZATION_ROLE ( 'classification_officer' ) ;
#149 = CARTESIAN_POINT ( 'NONE',  ( 0.08437499999949545100, -0.05953924651047169000, 0.4292990582612830100 ) ) ;
#150 = PERSON_AND_ORGANIZATION ( #1128, #48 ) ;
#151 = AXIS2_PLACEMENT_3D ( 'NONE', #644, #377, #202 ) ;
#152 = VECTOR ( 'NONE', #457, 39.37007874015748900 ) ;
#153 = CARTESIAN_POINT ( 'NONE',  ( 0.006569944490548264600, 0.1044600162528757100, 0.008985074313983718400 ) ) ;
#154 = CIRCLE ( 'NONE', #433, 0.06224999999999972200 ) ;
#155 = EDGE_CURVE ( 'NONE', #83, #757, #1097, .T. ) ;
#156 = ORIENTED_EDGE ( 'NONE', *, *, #899, .T. ) ;
#157 = EDGE_LOOP ( 'NONE', ( #357, #706, #445, #728 ) ) ;
#158 = CARTESIAN_POINT ( 'NONE',  ( 0.0000000000000000000, -4.998428125907582600E-017, 0.1937500000000000900 ) ) ;
#159 = ORIENTED_EDGE ( 'NONE', *, *, #829, .F. ) ;
#160 = CARTESIAN_POINT ( 'NONE',  ( 0.09374999999999998600, -0.04330127018946259400, 0.008200941738915733900 ) ) ;
#161 = EDGE_CURVE ( 'NONE', #1193, #109, #280, .T. ) ;
#162 = CARTESIAN_POINT ( 'NONE',  ( 0.08958264342677879600, 0.05553809088845940200, 0.009403801520961704200 ) ) ;
#163 = DIRECTION ( 'NONE',  ( -1.000000000000000000, 0.0000000000000000000, 0.0000000000000000000 ) ) ;
#164 = APPROVAL_DATE_TIME ( #785, #869 ) ;
#165 = CARTESIAN_POINT ( 'NONE',  ( 7.623426324692239900E-018, 0.06224999999999964600, 0.4375000000000000000 ) ) ;
#166 = SHAPE_DEFINITION_REPRESENTATION ( #864, #306 ) ;
#167 = B_SPLINE_CURVE_WITH_KNOTS ( 'NONE', 3,
 ( #192, #120, #13, #647, #363, #1014 ),
 .UNSPECIFIED., .F., .F.,
 ( 4, 2, 4 ),
 ( 1.440749085336766700E-014, 0.0002504517647600613800, 0.0005009035295057153400 ),
 .UNSPECIFIED. ) ;
#168 = FACE_OUTER_BOUND ( 'NONE', #426, .T. ) ;
#169 = DIRECTION ( 'NONE',  ( -0.0000000000000000000, 7.512581982576723900E-017, -1.000000000000000000 ) ) ;
#170 = EDGE_LOOP ( 'NONE', ( #173, #1090, #291, #274, #385, #172, #39, #714, #791, #477 ) ) ;
#171 = ORIENTED_EDGE ( 'NONE', *, *, #845, .T. ) ;
#172 = ORIENTED_EDGE ( 'NONE', *, *, #633, .F. ) ;
#173 = ORIENTED_EDGE ( 'NONE', *, *, #19, .F. ) ;
#174 = DIRECTION ( 'NONE',  ( -0.4999999999999999400, -0.8660254037844387100, 0.0000000000000000000 ) ) ;
#175 = CARTESIAN_POINT ( 'NONE',  ( 0.09375000000000001400, 0.02913819475886183700, 0.005114270834083126100 ) ) ;
#176 = B_SPLINE_CURVE_WITH_KNOTS ( 'NONE', 3,
 ( #395, #852, #467, #1133, #471, #484, #659, #307 ),
 .UNSPECIFIED., .F., .F.,
 ( 4, 2, 2, 4 ),
 ( 0.0002828055215726249500, 0.001388969274831866300, 0.001942051151461487200, 0.002495133028091108100 ),
 .UNSPECIFIED. ) ;
#177 = DIRECTION ( 'NONE',  ( 0.0000000000000000000, -0.7071067811865533500, 0.7071067811865416900 ) ) ;
#178 = AXIS2_PLACEMENT_3D ( 'NONE', #510, #986, #1170 ) ;
#179 = CARTESIAN_POINT ( 'NONE',  ( 0.01552539959989099300, 0.09928958183478101000, 0.006481642901431908400 ) ) ;
#180 = CARTESIAN_POINT ( 'NONE',  ( -0.009375000000504568300, -0.1028405166991110400, 0.4292990582612830100 ) ) ;
#181 = CYLINDRICAL_SURFACE ( 'NONE', #1113, 0.01875000000000000600 ) ;
#182 = DIRECTION ( 'NONE',  ( 0.0000000000000000000, 0.0000000000000000000, 1.000000000000000000 ) ) ;
#183 = ORIENTED_EDGE ( 'NONE', *, *, #393, .F. ) ;
#184 = B_SPLINE_CURVE_WITH_KNOTS ( 'NONE', 3,
 ( #421, #602, #702, #175, #331, #422 ),
 .UNSPECIFIED., .F., .F.,
 ( 4, 2, 4 ),
 ( 0.01517478666683528400, 0.01571803864434968100, 0.01626129062186407900 ),
 .UNSPECIFIED. ) ;
#185 = ORIENTED_EDGE ( 'NONE', *, *, #137, .F. ) ;
#186 = DIRECTION ( 'NONE',  ( 0.0000000000000000000, 1.000000000000000000, 0.0000000000000000000 ) ) ;
#187 = ORIENTED_EDGE ( 'NONE', *, *, #590, .F. ) ;
#188 = CARTESIAN_POINT ( 'NONE',  ( -0.09287823534163523700, -0.04984053400150974900, 0.009406311130852454400 ) ) ;
#189 = CARTESIAN_POINT ( 'NONE',  ( -0.009375000000504568300, -0.1028405166991110400, 0.4292990582612830100 ) ) ;
#190 = CARTESIAN_POINT ( 'NONE',  ( 0.03424662263932506300, 0.08848087867340469200, 0.003206074637790638600 ) ) ;
#191 = DIRECTION ( 'NONE',  ( -0.8660254037844397100, 0.0000000000000000000, 0.4999999999999979500 ) ) ;
#192 = CARTESIAN_POINT ( 'NONE',  ( -0.009375000000504568300, -0.1028405166991110400, 0.4292990582612830100 ) ) ;
#193 = PERSON_AND_ORGANIZATION ( #1128, #48 ) ;
#194 = CARTESIAN_POINT ( 'NONE',  ( -0.02164890108860738000, -0.09575417660188809100, 0.4327301367674011900 ) ) ;
#195 = CONICAL_SURFACE ( 'NONE', #1051, 0.08906250000000001700, 1.047197551196600100 ) ;
#196 = ORIENTED_EDGE ( 'NONE', *, *, #1123, .T. ) ;
#197 = CARTESIAN_POINT ( 'NONE',  ( -0.08960228625433638800, -0.05551464426377044500, 0.4280936888691356800 ) ) ;
#198 = ORIENTED_EDGE ( 'NONE', *, *, #735, .F. ) ;
#199 = VERTEX_POINT ( 'NONE', #73 ) ;
#200 = EDGE_CURVE ( 'NONE', #234, #499, #431, .T. ) ;
#201 = CARTESIAN_POINT ( 'NONE',  ( -0.09374999999999997200, 6.003575637700251600E-015, 0.4347936706132477000 ) ) ;
#202 = DIRECTION ( 'NONE',  ( 1.000000000000000000, 0.0000000000000000000, 0.0000000000000000000 ) ) ;
#203 = EDGE_CURVE ( 'NONE', #981, #1152, #509, .T. ) ;
#204 = CARTESIAN_POINT ( 'NONE',  ( -0.08437499999999996400, -0.05953924651018045100, 0.4292990582611420100 ) ) ;
#205 = CIRCLE ( 'NONE', #486, 0.04975000000000007900 ) ;
#206 = LINE ( 'NONE', #212, #773 ) ;
#207 = DIRECTION ( 'NONE',  ( 0.0000000000000000000, 1.000000000000000000, 7.512581982576723900E-017 ) ) ;
#208 = ORIENTED_EDGE ( 'NONE', *, *, #1062, .T. ) ;
#209 = ORIENTED_EDGE ( 'NONE', *, *, #926, .F. ) ;
#210 = B_SPLINE_CURVE_WITH_KNOTS ( 'NONE', 3,
 ( #262, #914, #2, #448, #365, #456 ),
 .UNSPECIFIED., .F., .F.,
 ( 4, 2, 4 ),
 ( 0.01505494387420167900, 0.01559744838855976400, 0.01613995290291785100 ),
 .UNSPECIFIED. ) ;
#211 = EDGE_CURVE ( 'NONE', #345, #360, #827, .T. ) ;
#212 = CARTESIAN_POINT ( 'NONE',  ( -0.08906250000000000300, -1.203149816753888700E-016, 0.4375000000000000600 ) ) ;
#213 = CARTESIAN_POINT ( 'NONE',  ( -0.08437499999999993600, 0.05953924651017990200, 0.008200941738857943400 ) ) ;
#214 = CARTESIAN_POINT ( 'NONE',  ( -0.009375000000504542200, 0.1028405166991105300, 0.008200941738716913800 ) ) ;
#215 = APPROVAL_DATE_TIME ( #604, #288 ) ;
#216 = APPLICATION_CONTEXT ( 'configuration controlled 3d designs of mechanical parts and assemblies' ) ;
#217 = CYLINDRICAL_SURFACE ( 'NONE', #909, 0.01875000000000000300 ) ;
#218 = CARTESIAN_POINT ( 'NONE',  ( 0.0000000000000000000, 0.08660254037844358800, -0.2864109809347400400 ) ) ;
#219 = VERTEX_POINT ( 'NONE', #789 ) ;
#220 = VERTEX_POINT ( 'NONE', #428 ) ;
#221 = EDGE_LOOP ( 'NONE', ( #11, #405 ) ) ;
#222 = CARTESIAN_POINT ( 'NONE',  ( 0.04060630287599793100, -0.08480911557680218000, 0.4347978770045527500 ) ) ;
#223 = DIRECTION ( 'NONE',  ( 1.000000000000000000, 0.0000000000000000000, 0.0000000000000000000 ) ) ;
#224 = DIRECTION ( 'NONE',  ( 0.0000000000000000000, -7.512581982576723900E-017, 1.000000000000000000 ) ) ;
#225 = CARTESIAN_POINT ( 'NONE',  ( -0.05950337736067491000, 0.07389888453617701700, 0.003206074637790635600 ) ) ;
#226 = DIRECTION ( 'NONE',  ( 0.0000000000000000000, 0.0000000000000000000, 1.000000000000000000 ) ) ;
#227 = CIRCLE ( 'NONE', #693, 0.05599999999999954300 ) ;
#228 = CARTESIAN_POINT ( 'NONE',  ( -0.08906250000000001700, -1.707404996040164500E-016, 0.0000000000000000000 ) ) ;
#229 = AXIS2_PLACEMENT_3D ( 'NONE', #46, #779, #59 ) ;
#230 = B_SPLINE_CURVE_WITH_KNOTS ( 'NONE', 3,
 ( #873, #675, #31, #959, #225, #492, #669, #213 ),
 .UNSPECIFIED., .F., .F.,
 ( 4, 2, 2, 4 ),
 ( 0.0002828055215726258100, 0.001388969274831865500, 0.001942051151461485500, 0.002495133028091105900 ),
 .UNSPECIFIED. ) ;
#231 = CIRCLE ( 'NONE', #1153, 0.04974999999999957900 ) ;
#232 = FACE_OUTER_BOUND ( 'NONE', #481, .T. ) ;
#233 = ORIENTED_EDGE ( 'NONE', *, *, #82, .T. ) ;
#234 = VERTEX_POINT ( 'NONE', #798 ) ;
#235 = CARTESIAN_POINT ( 'NONE',  ( 0.0000000000000000000, -2.134256245050205600E-017, -0.1875000000000000600 ) ) ;
#236 = CARTESIAN_POINT ( 'NONE',  ( -0.07210109891139263000, -0.06662558660769474200, 0.004769863232598861200 ) ) ;
#237 = EDGE_CURVE ( 'NONE', #499, #109, #184, .T. ) ;
#238 = CARTESIAN_POINT ( 'NONE',  ( 0.0000000000000000000, -1.707404996040164500E-016, 0.0000000000000000000 ) ) ;
#239 = APPROVAL_STATUS ( 'not_yet_approved' ) ;
#240 = DIRECTION ( 'NONE',  ( 0.0000000000000000000, 1.000000000000000000, 0.0000000000000000000 ) ) ;
#241 = VECTOR ( 'NONE', #741, 39.37007874015748100 ) ;
#242 = CARTESIAN_POINT ( 'NONE',  ( 0.08437500000000000600, -0.05953924651018038100, 0.008200941738858026600 ) ) ;
#243 = EDGE_LOOP ( 'NONE', ( #565, #187 ) ) ;
#244 = CARTESIAN_POINT ( 'NONE',  ( 0.09374999999999998600, -0.02901482026002814900, 0.004742320602345215800 ) ) ;
#245 = ORIENTED_EDGE ( 'NONE', *, *, #720, .F. ) ;
#246 = ORIENTED_EDGE ( 'NONE', *, *, #598, .T. ) ;
#247 = DIRECTION ( 'NONE',  ( 0.0000000000000000000, 0.0000000000000000000, 1.000000000000000000 ) ) ;
#248 = ORIENTED_EDGE ( 'NONE', *, *, #1006, .F. ) ;
#249 = CARTESIAN_POINT ( 'NONE',  ( 0.09374999999999998600, 2.111257969878714900E-015, 0.002706329386796026600 ) ) ;
#250 = AXIS2_PLACEMENT_3D ( 'NONE', #561, #122, #118 ) ;
#251 = DIRECTION ( 'NONE',  ( -0.0000000000000000000, 7.512581982576723900E-017, -1.000000000000000000 ) ) ;
#252 = CARTESIAN_POINT ( 'NONE',  ( -0.09374999999999998600, -0.04330127018922591600, 0.4292990582611411200 ) ) ;
#253 = FACE_BOUND ( 'NONE', #243, .T. ) ;
#254 = B_SPLINE_CURVE_WITH_KNOTS ( 'NONE', 3,
 ( #384, #131, #578, #761, #748, #858, #45, #677 ),
 .UNSPECIFIED., .F., .F.,
 ( 4, 2, 2, 4 ),
 ( 0.0002828055215726255400, 0.001388969274831865700, 0.001942051151461486100, 0.002495133028091106800 ),
 .UNSPECIFIED. ) ;
#255 = CONICAL_SURFACE ( 'NONE', #74, 0.08906250000000001700, 1.047197551196600100 ) ;
#256 = DIRECTION ( 'NONE',  ( -0.8660254037844386000, 0.5000000000000000000, 0.0000000000000000000 ) ) ;
#257 = EDGE_CURVE ( 'NONE', #199, #1098, #740, .T. ) ;
#258 = LINE ( 'NONE', #625, #562 ) ;
#259 = ORIENTED_EDGE ( 'NONE', *, *, #1067, .T. ) ;
#260 = CARTESIAN_POINT ( 'NONE',  ( -0.08958264342672023200, -0.05553809088851834700, 0.009403801520951569900 ) ) ;
#261 = ORIENTED_EDGE ( 'NONE', *, *, #906, .F. ) ;
#262 = CARTESIAN_POINT ( 'NONE',  ( -0.09374999999999997200, 6.003575637700251600E-015, 0.4347936706132477000 ) ) ;
#263 = CARTESIAN_POINT ( 'NONE',  ( 0.0000000000000000000, -2.134256245050205600E-017, -0.1875000000000000600 ) ) ;
#264 = CC_DESIGN_APPROVAL ( #288, ( #71 ) ) ;
#265 = B_SPLINE_CURVE_WITH_KNOTS ( 'NONE', 3,
 ( #601, #976, #1158, #974, #1070, #1164 ),
 .UNSPECIFIED., .F., .F.,
 ( 4, 2, 4 ),
 ( 7.269816092100958500E-018, 0.0002504517647528269300, 0.0005009035295056466000 ),
 .UNSPECIFIED. ) ;
#266 = CARTESIAN_POINT ( 'NONE',  ( 0.0000000000000000000, -2.181209882441310000E-017, -0.1812500000000000800 ) ) ;
#267 = CARTESIAN_POINT ( 'NONE',  ( 0.009374999999999989200, 0.1028405166994018200, 0.008200941738857948600 ) ) ;
#268 = FACE_OUTER_BOUND ( 'NONE', #689, .T. ) ;
#269 = ORIENTED_EDGE ( 'NONE', *, *, #203, .F. ) ;
#270 = CARTESIAN_POINT ( 'NONE',  ( 0.0000000000000000000, -3.373832272175365100E-017, -0.02249999999999999900 ) ) ;
#271 = EDGE_CURVE ( 'NONE', #304, #654, #1108, .T. ) ;
#272 = VERTEX_POINT ( 'NONE', #795 ) ;
#273 = CARTESIAN_POINT ( 'NONE',  ( 0.0000000000000000000, -1.707404996040164500E-016, 0.0000000000000000000 ) ) ;
#274 = ORIENTED_EDGE ( 'NONE', *, *, #82, .F. ) ;
#275 = ORIENTED_EDGE ( 'NONE', *, *, #34, .F. ) ;
#276 = ORIENTED_EDGE ( 'NONE', *, *, #650, .F. ) ;
#277 = CARTESIAN_POINT ( 'NONE',  ( -0.03409402466997472900, -0.08856898115208745900, 0.4347851766329287600 ) ) ;
#278 = DIRECTION ( 'NONE',  ( 0.0000000000000000000, 1.000000000000000000, 0.0000000000000000000 ) ) ;
#279 = ADVANCED_FACE ( 'NONE', ( #94 ), #849, .F. ) ;
#280 = B_SPLINE_CURVE_WITH_KNOTS ( 'NONE', 3,
 ( #894, #1175, #162, #708, #519, #67 ),
 .UNSPECIFIED., .F., .F.,
 ( 4, 2, 4 ),
 ( 1.440799333155987600E-014, 0.0002504517647600624700, 0.0005009035295057168600 ),
 .UNSPECIFIED. ) ;
#281 = DIRECTION ( 'NONE',  ( 0.5000000000000002200, -0.8660254037844386000, 0.0000000000000000000 ) ) ;
#282 = CARTESIAN_POINT ( 'NONE',  ( -0.009375000000000036100, -0.1028405166994023300, -0.2864109809347400400 ) ) ;
#283 = VECTOR ( 'NONE', #119, 39.37007874015748100 ) ;
#284 = CARTESIAN_POINT ( 'NONE',  ( 0.0000000000000000000, 0.04601202367904199500, -1.805121869527637300E-018 ) ) ;
#285 = FACE_OUTER_BOUND ( 'NONE', #10, .T. ) ;
#286 = ADVANCED_FACE ( 'NONE', ( #414 ), #327, .T. ) ;
#287 = VECTOR ( 'NONE', #662, 39.37007874015748100 ) ;
#288 = APPROVAL ( #239, 'UNSPECIFIED' ) ;
#289 = DIRECTION ( 'NONE',  ( 0.0000000000000000000, 1.000000000000000000, 0.0000000000000000000 ) ) ;
#290 = ORIENTED_EDGE ( 'NONE', *, *, #1169, .T. ) ;
#291 = ORIENTED_EDGE ( 'NONE', *, *, #34, .T. ) ;
#292 = CARTESIAN_POINT ( 'NONE',  ( 0.09374999999999998600, -0.04330127018922216900, -0.2864109809347400400 ) ) ;
#293 = AXIS2_PLACEMENT_3D ( 'NONE', #263, #912, #358 ) ;
#294 = VERTEX_POINT ( 'NONE', #529 ) ;
#295 = DIRECTION ( 'NONE',  ( -0.0000000000000000000, 7.512581982576723900E-017, -1.000000000000000000 ) ) ;
#296 = AXIS2_PLACEMENT_3D ( 'NONE', #1064, #61, #787 ) ;
#297 = DIRECTION ( 'NONE',  ( 0.0000000000000000000, 0.0000000000000000000, 1.000000000000000000 ) ) ;
#298 = EDGE_CURVE ( 'NONE', #320, #303, #302, .T. ) ;
#299 = DIRECTION ( 'NONE',  ( 0.0000000000000000000, 1.000000000000000000, 7.512581982576723900E-017 ) ) ;
#300 = DATE_AND_TIME ( #722, #664 ) ;
#301 = CIRCLE ( 'NONE', #1065, 0.03976202367904200400 ) ;
#302 = LINE ( 'NONE', #719, #1005 ) ;
#303 = VERTEX_POINT ( 'NONE', #165 ) ;
#304 = VERTEX_POINT ( 'NONE', #1096 ) ;
#305 = ADVANCED_FACE ( 'NONE', ( #268 ), #756, .T. ) ;
#306 = ADVANCED_BREP_SHAPE_REPRESENTATION ( '91075A472_NO THREADS_Male-Female Threaded Hex Standoff', ( #558, #1057 ), #800 ) ;
#307 = CARTESIAN_POINT ( 'NONE',  ( 0.08437500000000000600, -0.05953924651018038100, 0.008200941738858026600 ) ) ;
#308 = DIRECTION ( 'NONE',  ( 0.0000000000000000000, -1.000000000000000000, 0.0000000000000000000 ) ) ;
#309 = APPROVAL_STATUS ( 'not_yet_approved' ) ;
#310 = CARTESIAN_POINT ( 'NONE',  ( 0.08958264342677783900, -0.05553809088846081700, 0.4280961984790385100 ) ) ;
#311 = EDGE_CURVE ( 'NONE', #670, #1098, #595, .T. ) ;
#312 = DIRECTION ( 'NONE',  ( 0.0000000000000000000, 1.000000000000000000, 0.0000000000000000000 ) ) ;
#313 = COORDINATED_UNIVERSAL_TIME_OFFSET ( 6, 0, .BEHIND. ) ;
#314 = FACE_OUTER_BOUND ( 'NONE', #463, .T. ) ;
#315 = TOROIDAL_SURFACE ( 'NONE', #1078, 0.04601202367904203000, 0.006249999999999997700 ) ;
#316 = CARTESIAN_POINT ( 'NONE',  ( -0.08960228625433723500, 0.05551464426376896700, 0.009406311130864432700 ) ) ;
#317 = ORIENTED_EDGE ( 'NONE', *, *, #1094, .F. ) ;
#318 = ORIENTED_EDGE ( 'NONE', *, *, #496, .F. ) ;
#319 = CARTESIAN_POINT ( 'NONE',  ( 0.003275949087492645300, 0.1053551782652589100, 0.009406311130842262900 ) ) ;
#320 = VERTEX_POINT ( 'NONE', #85 ) ;
#321 = EDGE_CURVE ( 'NONE', #360, #1102, #258, .T. ) ;
#322 = AXIS2_PLACEMENT_3D ( 'NONE', #856, #42, #671 ) ;
#323 = CARTESIAN_POINT ( 'NONE',  ( 0.0000000000000000000, -4.998428125907582600E-017, 0.1937500000000000900 ) ) ;
#324 = DIRECTION ( 'NONE',  ( -0.0000000000000000000, 7.512581982576723900E-017, -1.000000000000000000 ) ) ;
#325 = DIRECTION ( 'NONE',  ( 0.0000000000000000000, 1.000000000000000000, 7.512581982576723900E-017 ) ) ;
#326 = AXIS2_PLACEMENT_3D ( 'NONE', #53, #770, #589 ) ;
#327 = CYLINDRICAL_SURFACE ( 'NONE', #506, 0.01875000000000000600 ) ;
#328 = CARTESIAN_POINT ( 'NONE',  ( -0.05965597533002528500, -0.07381078205749534700, 0.002714823367071113000 ) ) ;
#329 = VERTEX_POINT ( 'NONE', #526 ) ;
#330 = EDGE_LOOP ( 'NONE', ( #1027, #1100, #568, #983 ) ) ;
#331 = CARTESIAN_POINT ( 'NONE',  ( 0.09374999999999998600, 0.03626142469143869800, 0.006496658410460882900 ) ) ;
#332 = CARTESIAN_POINT ( 'NONE',  ( 0.09374999999999998600, 6.015056741771658700E-015, 0.4347936706132477000 ) ) ;
#333 = EDGE_CURVE ( 'NONE', #1134, #654, #1103, .T. ) ;
#334 = DIRECTION ( 'NONE',  ( 0.0000000000000000000, 1.000000000000000000, 7.622343732322225600E-017 ) ) ;
#335 = CARTESIAN_POINT ( 'NONE',  ( 0.09374999999999998600, -0.01458640401151344000, 0.4347936706131747500 ) ) ;
#336 = DIRECTION ( 'NONE',  ( 0.0000000000000000000, 0.0000000000000000000, -1.000000000000000000 ) ) ;
#337 = B_SPLINE_CURVE_WITH_KNOTS ( 'NONE', 3,
 ( #593, #60, #1066, #316, #692, #502 ),
 .UNSPECIFIED., .F., .F.,
 ( 4, 2, 4 ),
 ( 2.898213556761217700E-018, 0.0002504517647528246000, 0.0005009035295056463900 ),
 .UNSPECIFIED. ) ;
#338 = VECTOR ( 'NONE', #362, 39.37007874015748100 ) ;
#339 = DIRECTION ( 'NONE',  ( 0.0000000000000000000, -1.000000000000000000, 0.0000000000000000000 ) ) ;
#340 = FACE_OUTER_BOUND ( 'NONE', #609, .T. ) ;
#341 = CARTESIAN_POINT ( 'NONE',  ( -0.08437499999949539500, 0.05953924651047120400, 0.4292990582612831700 ) ) ;
#342 = CONICAL_SURFACE ( 'NONE', #763, 0.04974999999999957900, 0.7853981633974566100 ) ;
#343 = ORIENTED_EDGE ( 'NONE', *, *, #438, .T. ) ;
#344 = CARTESIAN_POINT ( 'NONE',  ( -0.09374999999999997200, 2.122739139082453400E-015, 0.002706329386796016600 ) ) ;
#345 = VERTEX_POINT ( 'NONE', #92 ) ;
#346 = VERTEX_POINT ( 'NONE', #1105 ) ;
#347 = DIRECTION ( 'NONE',  ( 0.0000000000000000000, 1.000000000000000000, 0.0000000000000000000 ) ) ;
#348 = EDGE_LOOP ( 'NONE', ( #823, #853, #1039, #775 ) ) ;
#349 = CARTESIAN_POINT ( 'NONE',  ( 0.09374999999999998600, 6.015056741771658700E-015, 0.4347936706132477000 ) ) ;
#350 = AXIS2_PLACEMENT_3D ( 'NONE', #641, #295, #16 ) ;
#351 = CARTESIAN_POINT ( 'NONE',  ( 0.04060630287599795900, 0.08480911557680165200, 0.002702122995446980400 ) ) ;
#352 = DIRECTION ( 'NONE',  ( -0.0000000000000000000, 7.512581982576723900E-017, -1.000000000000000000 ) ) ;
#353 = CIRCLE ( 'NONE', #636, 0.03976202367904203100 ) ;
#354 = CARTESIAN_POINT ( 'NONE',  ( 0.09374999999999998600, -0.05412658773652764800, -0.2864109809347400400 ) ) ;
#355 = EDGE_CURVE ( 'NONE', #654, #294, #521, .T. ) ;
#356 = VERTEX_POINT ( 'NONE', #811 ) ;
#357 = ORIENTED_EDGE ( 'NONE', *, *, #1000, .F. ) ;
#358 = DIRECTION ( 'NONE',  ( 0.0000000000000000000, 1.000000000000000000, 0.0000000000000000000 ) ) ;
#359 = ORIENTED_EDGE ( 'NONE', *, *, #54, .F. ) ;
#360 = VERTEX_POINT ( 'NONE', #3 ) ;
#361 = CARTESIAN_POINT ( 'NONE',  ( 0.009375000000504500600, -0.1028405166991110700, 0.008200941738717024800 ) ) ;
#362 = DIRECTION ( 'NONE',  ( -0.0000000000000000000, -0.0000000000000000000, -1.000000000000000000 ) ) ;
#363 = CARTESIAN_POINT ( 'NONE',  ( 0.006569944490548216100, -0.1044600162528762500, 0.4285149256860161200 ) ) ;
#364 = LOCAL_TIME ( 15, 46, 24.00000000000000000, #913 ) ;
#365 = CARTESIAN_POINT ( 'NONE',  ( -0.09374999999999995800, 0.03626118988131456900, 0.4310033984349599900 ) ) ;
#366 = FACE_OUTER_BOUND ( 'NONE', #96, .T. ) ;
#367 = FACE_OUTER_BOUND ( 'NONE', #479, .T. ) ;
#368 = B_SPLINE_CURVE_WITH_KNOTS ( 'NONE', 3,
 ( #252, #993, #22, #197, #554, #204 ),
 .UNSPECIFIED., .F., .F.,
 ( 4, 2, 4 ),
 ( 9.111453409320247900E-017, 0.0002504517647528687300, 0.0005009035295056462800 ),
 .UNSPECIFIED. ) ;
#369 = EDGE_LOOP ( 'NONE', ( #673, #128, #567, #140 ) ) ;
#370 = CARTESIAN_POINT ( 'NONE',  ( -0.009375000000000022200, -0.1028405166994023500, 0.008200941738858059600 ) ) ;
#371 = AXIS2_PLACEMENT_3D ( 'NONE', #1140, #476, #749 ) ;
#372 = ORIENTED_EDGE ( 'NONE', *, *, #906, .T. ) ;
#373 = CARTESIAN_POINT ( 'NONE',  ( -0.05965597533002525000, 0.07381078205749479200, 0.4347851766329290900 ) ) ;
#374 = EDGE_LOOP ( 'NONE', ( #715, #1022 ) ) ;
#375 = DIRECTION ( 'NONE',  ( 0.0000000000000000000, 1.000000000000000000, 7.622343732322225600E-017 ) ) ;
#376 = CARTESIAN_POINT ( 'NONE',  ( -0.009375000000000008300, 0.1028405166994018100, 0.4292990582611421200 ) ) ;
#377 = DIRECTION ( 'NONE',  ( 0.0000000000000000000, 0.0000000000000000000, 1.000000000000000000 ) ) ;
#378 = ADVANCED_FACE ( 'NONE', ( #35 ), #621, .T. ) ;
#379 = CARTESIAN_POINT ( 'NONE',  ( 0.09374999999999998600, 2.111257969878714900E-015, 0.002706329386796026600 ) ) ;
#380 = APPROVAL_PERSON_ORGANIZATION ( #797, #288, #1171 ) ;
#381 = CIRCLE ( 'NONE', #350, 0.04975000000000007900 ) ;
#382 = FACE_OUTER_BOUND ( 'NONE', #1044, .T. ) ;
#383 = PRODUCT_RELATED_PRODUCT_CATEGORY ( 'detail', '', ( #781 ) ) ;
#384 = CARTESIAN_POINT ( 'NONE',  ( 0.009375000000504537000, 0.1028405166991105300, 0.4292990582612831700 ) ) ;
#385 = ORIENTED_EDGE ( 'NONE', *, *, #679, .T. ) ;
#386 = ADVANCED_FACE ( 'NONE', ( #1162 ), #1087, .F. ) ;
#387 = ORIENTED_EDGE ( 'NONE', *, *, #389, .F. ) ;
#388 = CARTESIAN_POINT ( 'NONE',  ( 0.0000000000000000000, -2.134256245050205600E-017, -0.1875000000000000600 ) ) ;
#389 = EDGE_CURVE ( 'NONE', #1193, #981, #4, .T. ) ;
#390 = ORIENTED_EDGE ( 'NONE', *, *, #598, .F. ) ;
#391 = CARTESIAN_POINT ( 'NONE',  ( -0.08437499999999996400, -0.05953924651018045100, -0.2864109809347400400 ) ) ;
#392 = CARTESIAN_POINT ( 'NONE',  ( -0.009375000000000008300, 0.1028405166994018100, 0.4292990582611421200 ) ) ;
#393 = EDGE_CURVE ( 'NONE', #1130, #219, #966, .T. ) ;
#394 = DIRECTION ( 'NONE',  ( 0.0000000000000000000, 0.0000000000000000000, 1.000000000000000000 ) ) ;
#395 = CARTESIAN_POINT ( 'NONE',  ( 0.009375000000504500600, -0.1028405166991110700, 0.008200941738717024800 ) ) ;
#396 = FACE_OUTER_BOUND ( 'NONE', #221, .T. ) ;
#397 = CARTESIAN_POINT ( 'NONE',  ( 0.0000000000000000000, -3.414809992080329000E-017, -0.006249999999999993400 ) ) ;
#398 = FACE_OUTER_BOUND ( 'NONE', #348, .T. ) ;
#399 = CARTESIAN_POINT ( 'NONE',  ( -0.006569944490548246400, 0.1044600162528757100, 0.4285149256860163500 ) ) ;
#400 = ORIENTED_EDGE ( 'NONE', *, *, #854, .F. ) ;
#401 = CARTESIAN_POINT ( 'NONE',  ( 0.0000000000000000000, -0.04974999999999962800, 0.1875000000000001100 ) ) ;
#402 = ORIENTED_EDGE ( 'NONE', *, *, #438, .F. ) ;
#403 = ORIENTED_EDGE ( 'NONE', *, *, #973, .T. ) ;
#404 = CARTESIAN_POINT ( 'NONE',  ( 0.09374999999999998600, -0.04330127018922588100, 0.4292990582611411200 ) ) ;
#405 = ORIENTED_EDGE ( 'NONE', *, *, #514, .T. ) ;
#406 =( NAMED_UNIT ( * ) SI_UNIT ( $, .STERADIAN. ) SOLID_ANGLE_UNIT ( ) );
#407 = CARTESIAN_POINT ( 'NONE',  ( -0.009375000000000022200, -0.1028405166994023500, 0.008200941738858059600 ) ) ;
#408 = DIRECTION ( 'NONE',  ( 1.000000000000000000, 0.0000000000000000000, 0.0000000000000000000 ) ) ;
#409 = DIRECTION ( 'NONE',  ( -0.0000000000000000000, 7.512581982576723900E-017, -1.000000000000000000 ) ) ;
#410 = EDGE_CURVE ( 'NONE', #742, #303, #965, .T. ) ;
#411 = CYLINDRICAL_SURFACE ( 'NONE', #963, 0.01875000000000000600 ) ;
#412 = DIRECTION ( 'NONE',  ( 0.0000000000000000000, 0.0000000000000000000, 1.000000000000000000 ) ) ;
#413 = AXIS2_PLACEMENT_3D ( 'NONE', #627, #1104, #539 ) ;
#414 = FACE_OUTER_BOUND ( 'NONE', #626, .T. ) ;
#415 = DIRECTION ( 'NONE',  ( 0.0000000000000000000, 1.000000000000000000, 0.0000000000000000000 ) ) ;
#416 = EDGE_LOOP ( 'NONE', ( #23, #198, #639, #777 ) ) ;
#417 = EDGE_LOOP ( 'NONE', ( #1132, #920, #552, #343, #865, #895, #535, #997, #113, #275 ) ) ;
#418 = CARTESIAN_POINT ( 'NONE',  ( -0.01552539959989102400, -0.09928958183478155100, 0.006481642901432020300 ) ) ;
#419 = ORIENTED_EDGE ( 'NONE', *, *, #161, .T. ) ;
#420 = EDGE_CURVE ( 'NONE', #220, #1130, #205, .T. ) ;
#421 = CARTESIAN_POINT ( 'NONE',  ( 0.09374999999999998600, 2.111257969878714900E-015, 0.002706329386796026600 ) ) ;
#422 = CARTESIAN_POINT ( 'NONE',  ( 0.09374999999999998600, 0.04330127018922160600, 0.008200941738857965900 ) ) ;
#423 = FACE_OUTER_BOUND ( 'NONE', #725, .T. ) ;
#424 = CIRCLE ( 'NONE', #616, 0.05599999999999964700 ) ;
#425 = CARTESIAN_POINT ( 'NONE',  ( 0.09374999999999998600, -0.02903676462033978600, 0.4327523668652203900 ) ) ;
#426 = EDGE_LOOP ( 'NONE', ( #1118, #390 ) ) ;
#427 = EDGE_LOOP ( 'NONE', ( #717, #921, #726, #523, #759, #1056, #657, #1041, #1165, #261 ) ) ;
#428 = CARTESIAN_POINT ( 'NONE',  ( 6.475319950491638900E-018, 0.04975000000000006500, -0.1875000000000000600 ) ) ;
#429 = AXIS2_PLACEMENT_3D ( 'NONE', #860, #950, #1055 ) ;
#430 = ORIENTED_EDGE ( 'NONE', *, *, #237, .T. ) ;
#431 = B_SPLINE_CURVE_WITH_KNOTS ( 'NONE', 3,
 ( #1072, #244, #1181, #249 ),
 .UNSPECIFIED., .F., .F.,
 ( 4, 4 ),
 ( 0.01408649601830428400, 0.01517478666683528400 ),
 .UNSPECIFIED. ) ;
#432 = CARTESIAN_POINT ( 'NONE',  ( 0.09375000000000002800, -0.04653947266773848800, 0.008984881457283362300 ) ) ;
#433 = AXIS2_PLACEMENT_3D ( 'NONE', #600, #975, #603 ) ;
#434 = DIRECTION ( 'NONE',  ( -1.000000000000000000, 0.0000000000000000000, 0.0000000000000000000 ) ) ;
#435 = DIRECTION ( 'NONE',  ( 0.0000000000000000000, 1.000000000000000000, 7.512581982576723900E-017 ) ) ;
#436 = DATE_AND_TIME ( #631, #1034 ) ;
#437 = DIRECTION ( 'NONE',  ( 0.5000000000000001100, 0.8660254037844387100, -0.0000000000000000000 ) ) ;
#438 = EDGE_CURVE ( 'NONE', #294, #838, #368, .T. ) ;
#439 = LINE ( 'NONE', #730, #594 ) ;
#440 = DIRECTION ( 'NONE',  ( -0.0000000000000000000, 7.512581982576723900E-017, -1.000000000000000000 ) ) ;
#441 = CYLINDRICAL_SURFACE ( 'NONE', #892, 0.05599999999999965400 ) ;
#442 = ORIENTED_EDGE ( 'NONE', *, *, #1094, .T. ) ;
#443 = CARTESIAN_POINT ( 'NONE',  ( -0.05314369712400202800, -0.07757064763278059800, 0.4347978770045526900 ) ) ;
#444 = VERTEX_POINT ( 'NONE', #1029 ) ;
#445 = ORIENTED_EDGE ( 'NONE', *, *, #695, .T. ) ;
#446 = AXIS2_PLACEMENT_3D ( 'NONE', #1008, #1001, #347 ) ;
#447 = CARTESIAN_POINT ( 'NONE',  ( 0.0000000000000000000, -2.134256245050205600E-017, -0.1875000000000000600 ) ) ;
#448 = CARTESIAN_POINT ( 'NONE',  ( -0.09374999999999997200, 0.02913582098517774800, 0.4323863414257130300 ) ) ;
#449 = FACE_OUTER_BOUND ( 'NONE', #547, .T. ) ;
#450 = EDGE_CURVE ( 'NONE', #219, #522, #651, .T. ) ;
#451 = FACE_OUTER_BOUND ( 'NONE', #475, .T. ) ;
#452 = ORIENTED_EDGE ( 'NONE', *, *, #650, .T. ) ;
#453 = CARTESIAN_POINT ( 'NONE',  ( 0.0000000000000000000, -2.181209882441310000E-017, -0.1812500000000000800 ) ) ;
#454 = ORIENTED_EDGE ( 'NONE', *, *, #854, .T. ) ;
#455 = EDGE_LOOP ( 'NONE', ( #1073, #969, #56, #1114 ) ) ;
#456 = CARTESIAN_POINT ( 'NONE',  ( -0.09374999999999995800, 0.04330127018922149500, 0.4292990582611421200 ) ) ;
#457 = DIRECTION ( 'NONE',  ( 8.659560562354944000E-017, 0.7071067811865484600, 0.7071067811865464600 ) ) ;
#458 = DIRECTION ( 'NONE',  ( 0.0000000000000000000, -7.512581982576723900E-017, 1.000000000000000000 ) ) ;
#459 = CONICAL_SURFACE ( 'NONE', #732, 0.04975000000000007900, 0.7853981633974497200 ) ;
#460 = CIRCLE ( 'NONE', #100, 0.05599999999999964700 ) ;
#461 = LINE ( 'NONE', #866, #52 ) ;
#462 = EDGE_CURVE ( 'NONE', #1130, #220, #381, .T. ) ;
#463 = EDGE_LOOP ( 'NONE', ( #919, #816, #776, #84 ) ) ;
#464 = DIRECTION ( 'NONE',  ( 0.0000000000000000000, 0.0000000000000000000, 1.000000000000000000 ) ) ;
#465 = ORIENTED_EDGE ( 'NONE', *, *, #643, .F. ) ;
#466 = DIRECTION ( 'NONE',  ( -1.000000000000000000, 3.154466349054402700E-016, 0.0000000000000000000 ) ) ;
#467 = CARTESIAN_POINT ( 'NONE',  ( 0.03409402466997465300, -0.08856898115208745900, 0.002714823367071119000 ) ) ;
#468 = B_SPLINE_CURVE_WITH_KNOTS ( 'NONE', 3,
 ( #332, #335, #425, #1081 ),
 .UNSPECIFIED., .F., .F.,
 ( 4, 4 ),
 ( 0.01128708570789134800, 0.01239467294073389600 ),
 .UNSPECIFIED. ) ;
#469 = EDGE_CURVE ( 'NONE', #220, #522, #1161, .T. ) ;
#470 = DIRECTION ( 'NONE',  ( -3.154466349054402700E-016, -1.000000000000000000, 0.0000000000000000000 ) ) ;
#471 = CARTESIAN_POINT ( 'NONE',  ( 0.05950337736067491000, -0.07389888453617753100, 0.003206074637790724500 ) ) ;
#472 =( LENGTH_UNIT ( ) NAMED_UNIT ( * ) SI_UNIT ( $, .METRE. ) );
#473 = LINE ( 'NONE', #1167, #788 ) ;
#474 = CARTESIAN_POINT ( 'NONE',  ( -0.08437499999949540900, -0.05953924651047175900, 0.008200941738716997100 ) ) ;
#475 = EDGE_LOOP ( 'NONE', ( #27, #66, #40, #1023 ) ) ;
#476 = DIRECTION ( 'NONE',  ( 0.0000000000000000000, 0.0000000000000000000, -1.000000000000000000 ) ) ;
#477 = ORIENTED_EDGE ( 'NONE', *, *, #899, .F. ) ;
#478 = CARTESIAN_POINT ( 'NONE',  ( 0.003306075873705777800, 0.1053498903899830200, 0.4280961984790385100 ) ) ;
#479 = EDGE_LOOP ( 'NONE', ( #403, #1177, #1074, #980 ) ) ;
#480 = DIRECTION ( 'NONE',  ( -0.0000000000000000000, 0.0000000000000000000, 1.000000000000000000 ) ) ;
#481 = EDGE_LOOP ( 'NONE', ( #870, #624, #550, #208 ) ) ;
#482 = CARTESIAN_POINT ( 'NONE',  ( 0.09374999999999997200, 0.007281655154792511900, 0.4347936706131729800 ) ) ;
#483 = DATE_TIME_ROLE ( 'creation_date' ) ;
#484 = CARTESIAN_POINT ( 'NONE',  ( 0.07202606360751816200, -0.06666890826058535800, 0.005097906522062092500 ) ) ;
#485 = CARTESIAN_POINT ( 'NONE',  ( 0.09375000000000001400, 0.03626118988131601900, 0.4310033984349597200 ) ) ;
#486 = AXIS2_PLACEMENT_3D ( 'NONE', #1092, #440, #289 ) ;
#487 = CARTESIAN_POINT ( 'NONE',  ( 0.0000000000000000000, -2.134256245050205600E-017, -0.1875000000000000600 ) ) ;
#488 = AXIS2_PLACEMENT_3D ( 'NONE', #901, #794, #1183 ) ;
#489 = APPROVAL_DATE_TIME ( #737, #587 ) ;
#490 = DIRECTION ( 'NONE',  ( 0.0000000000000000000, -0.7071067811865832100, 0.7071067811865118200 ) ) ;
#491 = LINE ( 'NONE', #391, #771 ) ;
#492 = CARTESIAN_POINT ( 'NONE',  ( -0.07202606360751814800, 0.06666890826058484400, 0.005097906522062010900 ) ) ;
#493 = VECTOR ( 'NONE', #182, 39.37007874015748100 ) ;
#494 = CARTESIAN_POINT ( 'NONE',  ( 0.0000000000000000000, -2.134256245050205600E-017, -0.1875000000000000600 ) ) ;
#495 = ORIENTED_EDGE ( 'NONE', *, *, #1000, .T. ) ;
#496 = EDGE_CURVE ( 'NONE', #586, #8, #949, .T. ) ;
#497 = ORIENTED_EDGE ( 'NONE', *, *, #355, .T. ) ;
#498 = CARTESIAN_POINT ( 'NONE',  ( 0.02172393639248181000, -0.09571085494899740600, 0.4324020934779379000 ) ) ;
#499 = VERTEX_POINT ( 'NONE', #379 ) ;
#500 = SECURITY_CLASSIFICATION_LEVEL ( 'unclassified' ) ;
#501 = DIRECTION ( 'NONE',  ( -0.0000000000000000000, 7.512581982576723900E-017, -1.000000000000000000 ) ) ;
#502 = CARTESIAN_POINT ( 'NONE',  ( -0.08437499999999993600, 0.05953924651017990200, 0.008200941738857943400 ) ) ;
#503 = CC_DESIGN_APPROVAL ( #869, ( #676 ) ) ;
#504 = DIRECTION ( 'NONE',  ( -0.0000000000000000000, 7.512581982576723900E-017, -1.000000000000000000 ) ) ;
#505 = CARTESIAN_POINT ( 'NONE',  ( -0.08717936560894894200, 0.05792014527094708300, 0.4285151185427537000 ) ) ;
#506 = AXIS2_PLACEMENT_3D ( 'NONE', #517, #1180, #608 ) ;
#507 = LENGTH_MEASURE_WITH_UNIT ( LENGTH_MEASURE( 0.02539999999999999900 ), #472 );
#508 = CARTESIAN_POINT ( 'NONE',  ( -3.414809992080329000E-017, -0.08660254037844412900, -0.2864109809347400400 ) ) ;
#509 = LINE ( 'NONE', #1077, #79 ) ;
#510 = CARTESIAN_POINT ( 'NONE',  ( 0.0000000000000000000, -2.134256245050205600E-017, -0.1875000000000000600 ) ) ;
#511 = ORIENTED_EDGE ( 'NONE', *, *, #298, .T. ) ;
#512 = ORIENTED_EDGE ( 'NONE', *, *, #804, .F. ) ;
#513 = DIRECTION ( 'NONE',  ( 0.0000000000000000000, 1.000000000000000000, 0.0000000000000000000 ) ) ;
#514 = EDGE_CURVE ( 'NONE', #757, #83, #124, .T. ) ;
#515 = DIRECTION ( 'NONE',  ( -0.0000000000000000000, 7.512581982576723900E-017, -1.000000000000000000 ) ) ;
#516 = CARTESIAN_POINT ( 'NONE',  ( 6.475319950491582600E-018, 0.04974999999999952400, 0.1875000000000001100 ) ) ;
#517 = CARTESIAN_POINT ( 'NONE',  ( 0.07499999999999998300, 0.04330127018922167600, -0.2864109809347400400 ) ) ;
#518 = EDGE_CURVE ( 'NONE', #294, #329, #543, .T. ) ;
#519 = CARTESIAN_POINT ( 'NONE',  ( 0.09375000000000004200, 0.04654026929616934100, 0.008985074313983753100 ) ) ;
#520 = CIRCLE ( 'NONE', #875, 0.006249999999999997700 ) ;
#521 = LINE ( 'NONE', #910, #493 ) ;
#522 = VERTEX_POINT ( 'NONE', #733 ) ;
#523 = ORIENTED_EDGE ( 'NONE', *, *, #780, .T. ) ;
#524 = CARTESIAN_POINT ( 'NONE',  ( 0.0000000000000000000, 0.04601202367904199500, 5.463293929203183400E-018 ) ) ;
#525 = EDGE_CURVE ( 'NONE', #80, #37, #992, .T. ) ;
#526 = CARTESIAN_POINT ( 'NONE',  ( -0.09374999999999997200, 6.003575637700251600E-015, 0.4347936706132477000 ) ) ;
#527 = AXIS2_PLACEMENT_3D ( 'NONE', #284, #833, #207 ) ;
#528 = PLANE ( 'NONE',  #1125 ) ;
#529 = CARTESIAN_POINT ( 'NONE',  ( -0.09374999999999998600, -0.04330127018922591600, 0.4292990582611411200 ) ) ;
#530 = CARTESIAN_POINT ( 'NONE',  ( -0.08437499999999996400, -0.05953924651018045100, 0.4292990582611420100 ) ) ;
#531 = EDGE_CURVE ( 'NONE', #939, #968, #917, .T. ) ;
#532 = FACE_OUTER_BOUND ( 'NONE', #330, .T. ) ;
#533 = CARTESIAN_POINT ( 'NONE',  ( 0.0000000000000000000, -0.04975000000000010000, -0.1875000000000000600 ) ) ;
#534 = CONICAL_SURFACE ( 'NONE', #91, 0.05599999999999955000, 1.047197551196600700 ) ;
#535 = ORIENTED_EDGE ( 'NONE', *, *, #28, .F. ) ;
#536 = ORIENTED_EDGE ( 'NONE', *, *, #98, .T. ) ;
#537 = CARTESIAN_POINT ( 'NONE',  ( -0.08906250000000001700, -1.707404996040164500E-016, 0.0000000000000000000 ) ) ;
#538 = DIRECTION ( 'NONE',  ( 0.0000000000000000000, 0.0000000000000000000, -1.000000000000000000 ) ) ;
#539 = DIRECTION ( 'NONE',  ( 1.000000000000000000, 0.0000000000000000000, 0.0000000000000000000 ) ) ;
#540 = AXIS2_PLACEMENT_3D ( 'NONE', #14, #281, #850 ) ;
#541 = CARTESIAN_POINT ( 'NONE',  ( -0.08906250000000000300, -1.213235358739255500E-016, 0.4375000000000000600 ) ) ;
#542 = DESIGN_CONTEXT ( 'detailed design', #144, 'design' ) ;
#543 = B_SPLINE_CURVE_WITH_KNOTS ( 'NONE', 3,
 ( #1124, #840, #927, #201 ),
 .UNSPECIFIED., .F., .F.,
 ( 4, 4 ),
 ( 0.01396821429743518700, 0.01505494387420167900 ),
 .UNSPECIFIED. ) ;
#544 = PLANE ( 'NONE',  #527 ) ;
#545 = EDGE_CURVE ( 'NONE', #109, #971, #439, .T. ) ;
#546 = LINE ( 'NONE', #796, #932 ) ;
#547 = EDGE_LOOP ( 'NONE', ( #1089, #246, #820, #245 ) ) ;
#548 = DIRECTION ( 'NONE',  ( -1.224646799147351700E-016, 1.000000000000000000, 0.0000000000000000000 ) ) ;
#549 = AXIS2_PLACEMENT_3D ( 'NONE', #218, #952, #947 ) ;
#550 = ORIENTED_EDGE ( 'NONE', *, *, #1149, .T. ) ;
#551 = AXIS2_PLACEMENT_3D ( 'NONE', #897, #174, #996 ) ;
#552 = ORIENTED_EDGE ( 'NONE', *, *, #518, .F. ) ;
#553 = VERTEX_POINT ( 'NONE', #541 ) ;
#554 = CARTESIAN_POINT ( 'NONE',  ( -0.08718005550952713500, -0.05791974695666321500, 0.4285149256859951400 ) ) ;
#555 = EDGE_CURVE ( 'NONE', #345, #272, #1080, .T. ) ;
#556 = DIRECTION ( 'NONE',  ( -0.0000000000000000000, 0.0000000000000000000, 1.000000000000000000 ) ) ;
#557 = CARTESIAN_POINT ( 'NONE',  ( -0.09374999999999995800, 0.04330127018922156500, 0.008200941738857938200 ) ) ;
#558 = MANIFOLD_SOLID_BREP ( 'Fillet1', #674 ) ;
#559 = VECTOR ( 'NONE', #134, 39.37007874015748900 ) ;
#560 = B_SPLINE_CURVE_WITH_KNOTS ( 'NONE', 3,
 ( #180, #194, #277, #443, #911, #90, #813, #530 ),
 .UNSPECIFIED., .F., .F.,
 ( 4, 2, 2, 4 ),
 ( 0.0002828055215726264100, 0.001388969274831866300, 0.001942051151461485900, 0.002495133028091105500 ),
 .UNSPECIFIED. ) ;
#561 = CARTESIAN_POINT ( 'NONE',  ( 0.0000000000000000000, 0.06224999999999964600, 0.4375000000000000600 ) ) ;
#562 = VECTOR ( 'NONE', #1185, 39.37007874015748100 ) ;
#563 = DIRECTION ( 'NONE',  ( 1.000000000000000000, 0.0000000000000000000, 0.0000000000000000000 ) ) ;
#564 = AXIS2_PLACEMENT_3D ( 'NONE', #453, #831, #278 ) ;
#565 = ORIENTED_EDGE ( 'NONE', *, *, #1033, .F. ) ;
#566 = DIRECTION ( 'NONE',  ( 1.000000000000000000, 0.0000000000000000000, 0.0000000000000000000 ) ) ;
#567 = ORIENTED_EDGE ( 'NONE', *, *, #311, .T. ) ;
#568 = ORIENTED_EDGE ( 'NONE', *, *, #211, .F. ) ;
#569 = CARTESIAN_POINT ( 'NONE',  ( -0.08437499999949540900, -0.05953924651047175900, 0.008200941738716997100 ) ) ;
#570 = CARTESIAN_POINT ( 'NONE',  ( 0.009374999999999968400, -0.1028405166994023800, 0.4292990582611419000 ) ) ;
#571 = CARTESIAN_POINT ( 'NONE',  ( 0.07210109891139264400, -0.06662558660769468700, 0.4327301367674013000 ) ) ;
#572 = EDGE_CURVE ( 'NONE', #968, #586, #167, .T. ) ;
#573 = CARTESIAN_POINT ( 'NONE',  ( 0.08437499999949543700, 0.05953924651047119700, 0.008200941738716920800 ) ) ;
#574 = DIRECTION ( 'NONE',  ( -1.000000000000000000, 0.0000000000000000000, 0.0000000000000000000 ) ) ;
#575 = PLANE ( 'NONE',  #326 ) ;
#576 = PERSON_AND_ORGANIZATION ( #1128, #48 ) ;
#577 = PERSON_AND_ORGANIZATION_ROLE ( 'design_supplier' ) ;
#578 = CARTESIAN_POINT ( 'NONE',  ( 0.03409402466997470100, 0.08856898115208693100, 0.4347851766329290900 ) ) ;
#579 = EDGE_CURVE ( 'NONE', #346, #199, #903, .T. ) ;
#580 = ORIENTED_EDGE ( 'NONE', *, *, #410, .T. ) ;
#581 = CARTESIAN_POINT ( 'NONE',  ( 0.09375000000000002800, 0.01465566951114275800, 0.4342877165434209700 ) ) ;
#582 = VERTEX_POINT ( 'NONE', #401 ) ;
#583 = CARTESIAN_POINT ( 'NONE',  ( 0.08437500000000000600, -0.05953924651018038100, -0.2864109809347400400 ) ) ;
#584 = ORIENTED_EDGE ( 'NONE', *, *, #496, .T. ) ;
#585 = CARTESIAN_POINT ( 'NONE',  ( 0.0000000000000000000, -3.495911729392237500E-017, -0.006250000000000001200 ) ) ;
#586 = VERTEX_POINT ( 'NONE', #570 ) ;
#587 = APPROVAL ( #1047, 'UNSPECIFIED' ) ;
#588 = CARTESIAN_POINT ( 'NONE',  ( -0.009375000000504542200, 0.1028405166991105300, 0.008200941738716913800 ) ) ;
#589 = DIRECTION ( 'NONE',  ( -0.8660254037844384900, -0.5000000000000001100, 0.0000000000000000000 ) ) ;
#590 = EDGE_CURVE ( 'NONE', #37, #907, #1111, .T. ) ;
#591 = CARTESIAN_POINT ( 'NONE',  ( -0.006570634391051028000, 0.1044596179386346200, 0.008984881457246414500 ) ) ;
#592 = AXIS2_PLACEMENT_3D ( 'NONE', #734, #931, #299 ) ;
#593 = CARTESIAN_POINT ( 'NONE',  ( -0.09374999999999995800, 0.04330127018922156500, 0.008200941738857938200 ) ) ;
#594 = VECTOR ( 'NONE', #556, 39.37007874015748100 ) ;
#595 = LINE ( 'NONE', #6, #803 ) ;
#596 = CARTESIAN_POINT ( 'NONE',  ( 0.0000000000000000000, -0.06224999999999977800, 0.4375000000000000000 ) ) ;
#597 = ORIENTED_EDGE ( 'NONE', *, *, #311, .F. ) ;
#598 = EDGE_CURVE ( 'NONE', #908, #582, #107, .T. ) ;
#599 = ORIENTED_EDGE ( 'NONE', *, *, #1149, .F. ) ;
#600 = CARTESIAN_POINT ( 'NONE',  ( 0.0000000000000000000, -6.829619984160658000E-017, 0.4375000000000000000 ) ) ;
#601 = CARTESIAN_POINT ( 'NONE',  ( 0.09374999999999998600, 0.04330127018922138400, 0.4292990582611421200 ) ) ;
#602 = CARTESIAN_POINT ( 'NONE',  ( 0.09375000000000001400, 0.007287802425658514900, 0.002706329386826570700 ) ) ;
#603 = DIRECTION ( 'NONE',  ( 0.0000000000000000000, 1.000000000000000000, 0.0000000000000000000 ) ) ;
#604 = DATE_AND_TIME ( #812, #135 ) ;
#605 = FACE_OUTER_BOUND ( 'NONE', #170, .T. ) ;
#606 = CARTESIAN_POINT ( 'NONE',  ( 6.858022075225155100E-018, -0.05599999999999982800, -0.1875000000000000600 ) ) ;
#607 = VECTOR ( 'NONE', #251, 39.37007874015748100 ) ;
#608 = DIRECTION ( 'NONE',  ( 1.000000000000000000, 0.0000000000000000000, 0.0000000000000000000 ) ) ;
#609 = EDGE_LOOP ( 'NONE', ( #806, #745, #372, #400, #536, #599, #1150, #387, #419, #127 ) ) ;
#610 = PRODUCT_DEFINITION ( 'UNKNOWN', '', #676, #542 ) ;
#611 = ORIENTED_EDGE ( 'NONE', *, *, #200, .T. ) ;
#612 = CARTESIAN_POINT ( 'NONE',  ( 0.0000000000000000000, -0.04974999999999962800, 0.1875000000000001100 ) ) ;
#613 = ORIENTED_EDGE ( 'NONE', *, *, #161, .F. ) ;
#614 = EDGE_CURVE ( 'NONE', #8, #898, #176, .T. ) ;
#615 = CARTESIAN_POINT ( 'NONE',  ( -0.09374999999999998600, 0.04654026929616939000, 0.4285149256860162300 ) ) ;
#616 = AXIS2_PLACEMENT_3D ( 'NONE', #158, #1058, #767 ) ;
#617 = PLANE ( 'NONE',  #551 ) ;
#618 = EDGE_CURVE ( 'NONE', #320, #356, #847, .T. ) ;
#619 = DIRECTION ( 'NONE',  ( 0.0000000000000000000, 1.000000000000000000, 0.0000000000000000000 ) ) ;
#620 = PERSON_AND_ORGANIZATION ( #1128, #48 ) ;
#621 = CYLINDRICAL_SURFACE ( 'NONE', #293, 0.03976202367904201100 ) ;
#622 = CARTESIAN_POINT ( 'NONE',  ( 0.006570634391050994200, -0.1044596179386351700, 0.008984881457246523700 ) ) ;
#623 = VERTEX_POINT ( 'NONE', #214 ) ;
#624 = ORIENTED_EDGE ( 'NONE', *, *, #829, .T. ) ;
#625 = CARTESIAN_POINT ( 'NONE',  ( -0.09374999999999995800, 0.04330127018922168300, -0.2864109809347400400 ) ) ;
#626 = EDGE_LOOP ( 'NONE', ( #613, #954, #793, #1179 ) ) ;
#627 = CARTESIAN_POINT ( 'NONE',  ( 0.0000000000000000000, -1.094079711204827700E-016, 0.4375000000000000600 ) ) ;
#628 = AXIS2_PLACEMENT_3D ( 'NONE', #447, #1101, #619 ) ;
#629 = CARTESIAN_POINT ( 'NONE',  ( 0.08437499999949543700, 0.05953924651047119700, 0.008200941738716920800 ) ) ;
#630 = DIRECTION ( 'NONE',  ( -0.0000000000000000000, 7.512581982576723900E-017, -1.000000000000000000 ) ) ;
#631 = CALENDAR_DATE ( 2022, 7, 12 ) ;
#632 = DIRECTION ( 'NONE',  ( 0.0000000000000000000, 1.000000000000000000, 1.073514900689092300E-016 ) ) ;
#633 = EDGE_CURVE ( 'NONE', #1152, #805, #254, .T. ) ;
#634 = CARTESIAN_POINT ( 'NONE',  ( 5.634847752083104700E-018, -0.04601202367904206500, -0.006249999999999996000 ) ) ;
#635 = LINE ( 'NONE', #710, #698 ) ;
#636 = AXIS2_PLACEMENT_3D ( 'NONE', #585, #409, #64 ) ;
#637 = ORIENTED_EDGE ( 'NONE', *, *, #28, .T. ) ;
#638 = CARTESIAN_POINT ( 'NONE',  ( 0.0000000000000000000, 0.03976202367904199700, -0.1875000000000000600 ) ) ;
#639 = ORIENTED_EDGE ( 'NONE', *, *, #872, .T. ) ;
#640 = ADVANCED_FACE ( 'NONE', ( #862 ), #181, .T. ) ;
#641 = CARTESIAN_POINT ( 'NONE',  ( 0.0000000000000000000, -2.134256245050205600E-017, -0.1875000000000000600 ) ) ;
#642 = ORIENTED_EDGE ( 'NONE', *, *, #1184, .F. ) ;
#643 = EDGE_CURVE ( 'NONE', #838, #1134, #491, .T. ) ;
#644 = CARTESIAN_POINT ( 'NONE',  ( -0.07499999999999992800, 0.04330127018922167600, -0.2864109809347400400 ) ) ;
#645 = ADVANCED_FACE ( 'NONE', ( #1095 ), #411, .T. ) ;
#646 = PLANE ( 'NONE',  #540 ) ;
#647 = CARTESIAN_POINT ( 'NONE',  ( 0.003275949087492609700, -0.1053551782652594600, 0.4280936888691575000 ) ) ;
#648 = B_SPLINE_CURVE_WITH_KNOTS ( 'NONE', 3,
 ( #81, #1189, #889, #1086, #699, #344 ),
 .UNSPECIFIED., .F., .F.,
 ( 4, 2, 4 ),
 ( 0.009936855690022939500, 0.01048979987315954200, 0.01104274405629614700 ),
 .UNSPECIFIED. ) ;
#649 = CARTESIAN_POINT ( 'NONE',  ( 0.0000000000000000000, 0.05599999999999950900, -0.03187499999999953600 ) ) ;
#650 = EDGE_CURVE ( 'NONE', #80, #1088, #1069, .T. ) ;
#651 = CIRCLE ( 'NONE', #564, 0.05600000000000006400 ) ;
#652 = ADVANCED_FACE ( 'NONE', ( #893 ), #1021, .T. ) ;
#653 = FACE_OUTER_BOUND ( 'NONE', #369, .T. ) ;
#654 = VERTEX_POINT ( 'NONE', #1045 ) ;
#655 = AXIS2_PLACEMENT_3D ( 'NONE', #110, #466, #470 ) ;
#656 = CARTESIAN_POINT ( 'NONE',  ( 0.08437499999949545100, -0.05953924651047169000, 0.4292990582612830100 ) ) ;
#657 = ORIENTED_EDGE ( 'NONE', *, *, #685, .F. ) ;
#658 = VERTEX_POINT ( 'NONE', #943 ) ;
#659 = CARTESIAN_POINT ( 'NONE',  ( 0.07822460040010902100, -0.06309018137480124100, 0.006481642901431988200 ) ) ;
#660 = ADVANCED_FACE ( 'NONE', ( #1054 ), #195, .T. ) ;
#661 = B_SPLINE_CURVE_WITH_KNOTS ( 'NONE', 3,
 ( #361, #622, #1011, #750, #747, #370 ),
 .UNSPECIFIED., .F., .F.,
 ( 4, 2, 4 ),
 ( 1.440728464683987400E-014, 0.0002504517647600612700, 0.0005009035295057153400 ),
 .UNSPECIFIED. ) ;
#662 = DIRECTION ( 'NONE',  ( 8.659560562355004300E-017, 0.7071067811865533500, 0.7071067811865416900 ) ) ;
#663 = CARTESIAN_POINT ( 'NONE',  ( 0.0000000000000000000, 0.05599999999999964000, -0.1875000000000000600 ) ) ;
#664 = LOCAL_TIME ( 15, 46, 24.00000000000000000, #1107 ) ;
#665 = DIRECTION ( 'NONE',  ( 1.000000000000000000, 0.0000000000000000000, 0.0000000000000000000 ) ) ;
#666 = LINE ( 'NONE', #638, #241 ) ;
#667 = CARTESIAN_POINT ( 'NONE',  ( 0.05965597533002526400, -0.07381078205749530600, 0.4347851766329288700 ) ) ;
#668 = VECTOR ( 'NONE', #464, 39.37007874015748100 ) ;
#669 = CARTESIAN_POINT ( 'NONE',  ( -0.07822460040010895100, 0.06309018137480074100, 0.006481642901431913600 ) ) ;
#670 = VERTEX_POINT ( 'NONE', #764 ) ;
#671 = DIRECTION ( 'NONE',  ( 0.0000000000000000000, 1.000000000000000000, 8.051361755168186700E-017 ) ) ;
#672 = EDGE_LOOP ( 'NONE', ( #884, #934, #359, #985 ) ) ;
#673 = ORIENTED_EDGE ( 'NONE', *, *, #579, .F. ) ;
#674 = CLOSED_SHELL ( 'NONE', ( #29, #305, #116, #1142, #1036, #660, #1122, #121, #108, #24, #102, #830, #938, #1046, #842, #1024, #929, #837, #1135, #279, #751, #15, #731, #744, #848, #758, #33, #378, #386, #1018, #652, #640, #736, #645, #286, #1112 ) ) ;
#675 = CARTESIAN_POINT ( 'NONE',  ( -0.02164890108860734200, 0.09575417660188755000, 0.004769863232598774500 ) ) ;
#676 = PRODUCT_DEFINITION_FORMATION_WITH_SPECIFIED_SOURCE ( 'ANY', '', #781, .NOT_KNOWN. ) ;
#677 = CARTESIAN_POINT ( 'NONE',  ( 0.08437499999999996400, 0.05953924651017989500, 0.4292990582611420600 ) ) ;
#678 = DIRECTION ( 'NONE',  ( 0.0000000000000000000, 1.000000000000000000, 7.622343732322224300E-017 ) ) ;
#679 = EDGE_CURVE ( 'NONE', #971, #805, #265, .T. ) ;
#680 = DIRECTION ( 'NONE',  ( 1.000000000000000000, 0.0000000000000000000, 0.0000000000000000000 ) ) ;
#681 = AXIS2_PLACEMENT_3D ( 'NONE', #487, #51, #325 ) ;
#682 = CARTESIAN_POINT ( 'NONE',  ( 0.009374999999999968400, -0.1028405166994023800, 0.4292990582611419000 ) ) ;
#683 = CALENDAR_DATE ( 2022, 7, 12 ) ;
#684 = VECTOR ( 'NONE', #99, 39.37007874015748900 ) ;
#685 = EDGE_CURVE ( 'NONE', #1134, #939, #17, .T. ) ;
#686 = VECTOR ( 'NONE', #1157, 39.37007874015748100 ) ;
#687 = CARTESIAN_POINT ( 'NONE',  ( 0.09374999999999998600, 0.04330127018922138400, 0.4292990582611421200 ) ) ;
#688 = VERTEX_POINT ( 'NONE', #1155 ) ;
#689 = EDGE_LOOP ( 'NONE', ( #1043, #1059, #111, #743 ) ) ;
#690 = PLANE ( 'NONE',  #681 ) ;
#691 = ORIENTED_EDGE ( 'NONE', *, *, #410, .F. ) ;
#692 = CARTESIAN_POINT ( 'NONE',  ( -0.08718005550952757900, 0.05791974695666234800, 0.008985074314004921900 ) ) ;
#693 = AXIS2_PLACEMENT_3D ( 'NONE', #20, #839, #375 ) ;
#694 = CARTESIAN_POINT ( 'NONE',  ( 0.0000000000000000000, -3.303401816088712100E-017, -0.03187499999999954300 ) ) ;
#695 = EDGE_CURVE ( 'NONE', #1191, #356, #424, .T. ) ;
#696 = APPROVAL_PERSON_ORGANIZATION ( #1159, #869, #956 ) ;
#697 = DIRECTION ( 'NONE',  ( 0.0000000000000000000, 0.0000000000000000000, 1.000000000000000000 ) ) ;
#698 = VECTOR ( 'NONE', #979, 39.37007874015748100 ) ;
#699 = CARTESIAN_POINT ( 'NONE',  ( -0.09374999999999995800, 0.007287802425365928600, 0.002706329386826558600 ) ) ;
#700 = ORIENTED_EDGE ( 'NONE', *, *, #355, .F. ) ;
#701 = ORIENTED_EDGE ( 'NONE', *, *, #872, .F. ) ;
#702 = CARTESIAN_POINT ( 'NONE',  ( 0.09374999999999998600, 0.01466789866037231600, 0.003213588996067033800 ) ) ;
#703 = ORIENTED_EDGE ( 'NONE', *, *, #618, .T. ) ;
#704 = EDGE_LOOP ( 'NONE', ( #233, #65, #196, #611, #430, #867 ) ) ;
#705 = CARTESIAN_POINT ( 'NONE',  ( 0.08437500000000000600, -0.05953924651018038100, 0.008200941738858026600 ) ) ;
#706 = ORIENTED_EDGE ( 'NONE', *, *, #935, .T. ) ;
#707 = CARTESIAN_POINT ( 'NONE',  ( 0.0000000000000000000, -2.134256245050205600E-017, -0.1875000000000000600 ) ) ;
#708 = CARTESIAN_POINT ( 'NONE',  ( 0.09287823534169895000, 0.04984053400135622000, 0.009406311130842292400 ) ) ;
#709 = FACE_OUTER_BOUND ( 'NONE', #1176, .T. ) ;
#710 = CARTESIAN_POINT ( 'NONE',  ( -0.009375000000000008300, 0.1028405166994018200, -0.2864109809347400400 ) ) ;
#711 = FACE_OUTER_BOUND ( 'NONE', #55, .T. ) ;
#712 = CARTESIAN_POINT ( 'NONE',  ( -0.08717936560891430300, -0.05792014527096765000, 0.008984881457236802400 ) ) ;
#713 = CONICAL_SURFACE ( 'NONE', #371, 0.08906250000000000300, 1.047197551196600100 ) ;
#714 = ORIENTED_EDGE ( 'NONE', *, *, #555, .F. ) ;
#715 = ORIENTED_EDGE ( 'NONE', *, *, #1129, .T. ) ;
#716 = EDGE_CURVE ( 'NONE', #623, #981, #147, .T. ) ;
#717 = ORIENTED_EDGE ( 'NONE', *, *, #514, .F. ) ;
#718 = CARTESIAN_POINT ( 'NONE',  ( 0.0000000000000000000, -6.782666346769558000E-017, 0.4312500000000005800 ) ) ;
#719 = CARTESIAN_POINT ( 'NONE',  ( 6.858022075225136600E-018, 0.05599999999999959900, 0.4312500000000005800 ) ) ;
#720 = EDGE_CURVE ( 'NONE', #356, #1191, #460, .T. ) ;
#721 = CARTESIAN_POINT ( 'NONE',  ( 0.05965597533002529200, 0.07381078205749479200, 0.002714823367071024900 ) ) ;
#722 = CALENDAR_DATE ( 2022, 7, 12 ) ;
#723 = LINE ( 'NONE', #999, #338 ) ;
#724 = ORIENTED_EDGE ( 'NONE', *, *, #579, .T. ) ;
#725 = EDGE_LOOP ( 'NONE', ( #442, #171, #248, #512 ) ) ;
#726 = ORIENTED_EDGE ( 'NONE', *, *, #200, .F. ) ;
#727 = B_SPLINE_CURVE_WITH_KNOTS ( 'NONE', 3,
 ( #656, #571, #667, #222, #1154, #498, #1160, #682 ),
 .UNSPECIFIED., .F., .F.,
 ( 4, 2, 2, 4 ),
 ( 0.0002828055215726260900, 0.001388969274831867000, 0.001942051151461487900, 0.002495133028091108500 ),
 .UNSPECIFIED. ) ;
#728 = ORIENTED_EDGE ( 'NONE', *, *, #618, .F. ) ;
#729 = DIRECTION ( 'NONE',  ( 0.0000000000000000000, 0.0000000000000000000, -1.000000000000000000 ) ) ;
#730 = CARTESIAN_POINT ( 'NONE',  ( 0.09374999999999998600, 0.04330127018922167600, -0.2864109809347400400 ) ) ;
#731 = ADVANCED_FACE ( 'NONE', ( #340 ), #255, .T. ) ;
#732 = AXIS2_PLACEMENT_3D ( 'NONE', #388, #844, #114 ) ;
#733 = CARTESIAN_POINT ( 'NONE',  ( 6.858022075225185900E-018, 0.05600000000000005700, -0.1812500000000000800 ) ) ;
#734 = CARTESIAN_POINT ( 'NONE',  ( 0.0000000000000000000, -3.542865366783341800E-017, 0.0000000000000000000 ) ) ;
#735 = EDGE_CURVE ( 'NONE', #1088, #80, #353, .T. ) ;
#736 = ADVANCED_FACE ( 'NONE', ( #285 ), #217, .T. ) ;
#737 = DATE_AND_TIME ( #990, #75 ) ;
#738 = VECTOR ( 'NONE', #1146, 39.37007874015748900 ) ;
#739 = AXIS2_PLACEMENT_3D ( 'NONE', #707, #802, #339 ) ;
#740 = CIRCLE ( 'NONE', #72, 0.05599999999999954300 ) ;
#741 = DIRECTION ( 'NONE',  ( -0.0000000000000000000, 7.512581982576723900E-017, -1.000000000000000000 ) ) ;
#742 = VERTEX_POINT ( 'NONE', #596 ) ;
#743 = ORIENTED_EDGE ( 'NONE', *, *, #1067, .F. ) ;
#744 = ADVANCED_FACE ( 'NONE', ( #711 ), #690, .T. ) ;
#745 = ORIENTED_EDGE ( 'NONE', *, *, #155, .F. ) ;
#746 = EDGE_CURVE ( 'NONE', #582, #908, #231, .T. ) ;
#747 = CARTESIAN_POINT ( 'NONE',  ( -0.006569944490548276800, -0.1044600162528762500, 0.008985074313983839800 ) ) ;
#748 = CARTESIAN_POINT ( 'NONE',  ( 0.05950337736067492400, 0.07389888453617701700, 0.4342939253622094000 ) ) ;
#749 = DIRECTION ( 'NONE',  ( 1.000000000000000000, 0.0000000000000000000, 0.0000000000000000000 ) ) ;
#750 = CARTESIAN_POINT ( 'NONE',  ( -0.003275949087492676100, -0.1053551782652594600, 0.009406311130842380900 ) ) ;
#751 = ADVANCED_FACE ( 'NONE', ( #1187 ), #1145, .F. ) ;
#752 = CARTESIAN_POINT ( 'NONE',  ( 0.0000000000000000000, -3.542865366783341800E-017, 0.0000000000000000000 ) ) ;
#753 = COORDINATED_UNIVERSAL_TIME_OFFSET ( 6, 0, .BEHIND. ) ;
#754 =( CONVERSION_BASED_UNIT ( 'INCH', #507 ) LENGTH_UNIT ( ) NAMED_UNIT ( #923 ) );
#755 = AXIS2_PLACEMENT_3D ( 'NONE', #1192, #1003, #435 ) ;
#756 = CYLINDRICAL_SURFACE ( 'NONE', #628, 0.03976202367904201100 ) ;
#757 = VERTEX_POINT ( 'NONE', #874 ) ;
#758 = ADVANCED_FACE ( 'NONE', ( #398 ), #138, .T. ) ;
#759 = ORIENTED_EDGE ( 'NONE', *, *, #614, .F. ) ;
#760 = CARTESIAN_POINT ( 'NONE',  ( 0.006570634391051026300, 0.1044596179386346100, 0.4285151185427537000 ) ) ;
#761 = CARTESIAN_POINT ( 'NONE',  ( 0.05314369712400202800, 0.07757064763278004300, 0.4347978770045530200 ) ) ;
#762 = ORIENTED_EDGE ( 'NONE', *, *, #420, .T. ) ;
#763 = AXIS2_PLACEMENT_3D ( 'NONE', #859, #224, #308 ) ;
#764 = CARTESIAN_POINT ( 'NONE',  ( 0.0000000000000000000, 0.03976202367904196900, -0.02249999999999999600 ) ) ;
#765 = CARTESIAN_POINT ( 'NONE',  ( 0.09375000000000001400, 0.02913582098518392400, 0.4323863414257118100 ) ) ;
#766 = CARTESIAN_POINT ( 'NONE',  ( 0.009375000000504537000, 0.1028405166991105300, 0.4292990582612831700 ) ) ;
#767 = DIRECTION ( 'NONE',  ( 0.0000000000000000000, 1.000000000000000000, 0.0000000000000000000 ) ) ;
#768 = CIRCLE ( 'NONE', #782, 0.05599999999999966100 ) ;
#769 = EDGE_CURVE ( 'NONE', #582, #1191, #1085, .T. ) ;
#770 = DIRECTION ( 'NONE',  ( -0.5000000000000002200, 0.8660254037844386000, 0.0000000000000000000 ) ) ;
#771 = VECTOR ( 'NONE', #1139, 39.37007874015748100 ) ;
#772 = APPROVAL_ROLE ( '' ) ;
#773 = VECTOR ( 'NONE', #1040, 39.37007874015748900 ) ;
#774 = CARTESIAN_POINT ( 'NONE',  ( 0.0000000000000000000, -4.951474488516478300E-017, 0.1875000000000001100 ) ) ;
#775 = ORIENTED_EDGE ( 'NONE', *, *, #450, .F. ) ;
#776 = ORIENTED_EDGE ( 'NONE', *, *, #393, .T. ) ;
#777 = ORIENTED_EDGE ( 'NONE', *, *, #1033, .T. ) ;
#778 = CARTESIAN_POINT ( 'NONE',  ( -0.03424662263932506900, -0.08848087867340524700, 0.003206074637790746200 ) ) ;
#779 = DIRECTION ( 'NONE',  ( -0.0000000000000000000, 7.512581982576723900E-017, -1.000000000000000000 ) ) ;
#780 = EDGE_CURVE ( 'NONE', #234, #898, #879, .T. ) ;
#781 = PRODUCT ( '91075A472_NO THREADS_Male-Female Threaded Hex Standoff', '91075A472_NO THREADS_Male-Female Threaded Hex Standoff', '', ( #1143 ) ) ;
#782 = AXIS2_PLACEMENT_3D ( 'NONE', #718, #1110, #186 ) ;
#783 = DIRECTION ( 'NONE',  ( -0.0000000000000000000, 7.512581982576723900E-017, -1.000000000000000000 ) ) ;
#784 = DATE_TIME_ROLE ( 'classification_date' ) ;
#785 = DATE_AND_TIME ( #683, #364 ) ;
#786 = CONICAL_SURFACE ( 'NONE', #413, 0.08906250000000000300, 1.047197551196600100 ) ;
#787 = DIRECTION ( 'NONE',  ( 0.0000000000000000000, -1.000000000000000000, 0.0000000000000000000 ) ) ;
#788 = VECTOR ( 'NONE', #490, 39.37007874015748100 ) ;
#789 = CARTESIAN_POINT ( 'NONE',  ( 0.0000000000000000000, -0.05600000000000008400, -0.1812500000000000800 ) ) ;
#790 = ORIENTED_EDGE ( 'NONE', *, *, #115, .T. ) ;
#791 = ORIENTED_EDGE ( 'NONE', *, *, #211, .T. ) ;
#792 = CARTESIAN_POINT ( 'NONE',  ( 0.0000000000000000000, 0.04601202367904199500, -0.006249999999999989900 ) ) ;
#793 = ORIENTED_EDGE ( 'NONE', *, *, #679, .F. ) ;
#794 = DIRECTION ( 'NONE',  ( -0.0000000000000000000, 7.512581982576723900E-017, -1.000000000000000000 ) ) ;
#795 = CARTESIAN_POINT ( 'NONE',  ( -0.009375000000000008300, 0.1028405166994018100, 0.4292990582611421200 ) ) ;
#796 = CARTESIAN_POINT ( 'NONE',  ( 0.0000000000000000000, 0.05599999999999979300, -0.1875000000000000600 ) ) ;
#797 = PERSON_AND_ORGANIZATION ( #1128, #48 ) ;
#798 = CARTESIAN_POINT ( 'NONE',  ( 0.09374999999999998600, -0.04330127018946259400, 0.008200941738915733900 ) ) ;
#799 = FACE_OUTER_BOUND ( 'NONE', #896, .T. ) ;
#800 =( GEOMETRIC_REPRESENTATION_CONTEXT ( 3 ) GLOBAL_UNCERTAINTY_ASSIGNED_CONTEXT ( ( #1137 ) ) GLOBAL_UNIT_ASSIGNED_CONTEXT ( ( #754, #1151, #406 ) ) REPRESENTATION_CONTEXT ( 'NONE', 'WORKASPACE' ) );
#801 = CIRCLE ( 'NONE', #928, 0.03976202367904200400 ) ;
#802 = DIRECTION ( 'NONE',  ( 0.0000000000000000000, -7.512581982576723900E-017, 1.000000000000000000 ) ) ;
#803 = VECTOR ( 'NONE', #88, 39.37007874015748900 ) ;
#804 = EDGE_CURVE ( 'NONE', #1098, #522, #546, .T. ) ;
#805 = VERTEX_POINT ( 'NONE', #808 ) ;
#806 = ORIENTED_EDGE ( 'NONE', *, *, #1156, .F. ) ;
#807 = EDGE_LOOP ( 'NONE', ( #185, #452, #259, #209 ) ) ;
#808 = CARTESIAN_POINT ( 'NONE',  ( 0.08437499999999996400, 0.05953924651017989500, 0.4292990582611420600 ) ) ;
#809 = CARTESIAN_POINT ( 'NONE',  ( -0.08437499999949540900, -0.05953924651047175900, 0.008200941738716997100 ) ) ;
#810 = CARTESIAN_POINT ( 'NONE',  ( -0.009375000000000022200, -0.1028405166994023500, 0.008200941738858059600 ) ) ;
#811 = CARTESIAN_POINT ( 'NONE',  ( 6.858022075225135000E-018, 0.05599999999999960600, 0.1937500000000000900 ) ) ;
#812 = CALENDAR_DATE ( 2022, 7, 12 ) ;
#813 = CARTESIAN_POINT ( 'NONE',  ( -0.07822460040010895100, -0.06309018137480128200, 0.4310183570985680100 ) ) ;
#814 = VECTOR ( 'NONE', #352, 39.37007874015748100 ) ;
#815 = CARTESIAN_POINT ( 'NONE',  ( 0.07210109891139265800, 0.06662558660769418700, 0.004769863232598787500 ) ) ;
#816 = ORIENTED_EDGE ( 'NONE', *, *, #462, .F. ) ;
#817 = CC_DESIGN_PERSON_AND_ORGANIZATION_ASSIGNMENT ( #576, #41, ( #610 ) ) ;
#818 = VERTEX_POINT ( 'NONE', #349 ) ;
#819 = CARTESIAN_POINT ( 'NONE',  ( 0.009374999999999989200, 0.1028405166994018200, 0.008200941738857948600 ) ) ;
#820 = ORIENTED_EDGE ( 'NONE', *, *, #769, .T. ) ;
#821 = AXIS2_PLACEMENT_3D ( 'NONE', #273, #538, #1025 ) ;
#822 = CARTESIAN_POINT ( 'NONE',  ( 0.02172393639248182800, 0.09571085494899687900, 0.005097906522062012700 ) ) ;
#823 = ORIENTED_EDGE ( 'NONE', *, *, #845, .F. ) ;
#824 = CARTESIAN_POINT ( 'NONE',  ( 0.09374999999999998600, -0.04330127018922588100, 0.4292990582611411200 ) ) ;
#825 = AXIS2_PLACEMENT_3D ( 'NONE', #1119, #925, #563 ) ;
#826 = CARTESIAN_POINT ( 'NONE',  ( -0.04060630287599793800, 0.08480911557680163900, 0.4347978770045530200 ) ) ;
#827 = B_SPLINE_CURVE_WITH_KNOTS ( 'NONE', 3,
 ( #341, #505, #70, #890, #615, #78 ),
 .UNSPECIFIED., .F., .F.,
 ( 4, 2, 4 ),
 ( 1.440741069796366100E-014, 0.0002504517647600636600, 0.0005009035295057198900 ),
 .UNSPECIFIED. ) ;
#828 = DIRECTION ( 'NONE',  ( 0.0000000000000000000, 1.000000000000000000, 1.073514900689092300E-016 ) ) ;
#829 = EDGE_CURVE ( 'NONE', #272, #623, #635, .T. ) ;
#830 = ADVANCED_FACE ( 'NONE', ( #451 ), #69, .T. ) ;
#831 = DIRECTION ( 'NONE',  ( -0.0000000000000000000, 7.512581982576723900E-017, -1.000000000000000000 ) ) ;
#832 = CONICAL_SURFACE ( 'NONE', #1182, 0.05599999999999966100, 0.7853981633974987900 ) ;
#833 = DIRECTION ( 'NONE',  ( -0.0000000000000000000, 7.512581982576723900E-017, -1.000000000000000000 ) ) ;
#834 = VECTOR ( 'NONE', #177, 39.37007874015748100 ) ;
#835 = FACE_OUTER_BOUND ( 'NONE', #157, .T. ) ;
#836 = ORIENTED_EDGE ( 'NONE', *, *, #271, .T. ) ;
#837 = ADVANCED_FACE ( 'NONE', ( #168 ), #1091, .F. ) ;
#838 = VERTEX_POINT ( 'NONE', #987 ) ;
#839 = DIRECTION ( 'NONE',  ( -0.0000000000000000000, 7.512581982576723900E-017, -1.000000000000000000 ) ) ;
#840 = CARTESIAN_POINT ( 'NONE',  ( -0.09374999999999998600, -0.02903676462031992000, 0.4327523668652252200 ) ) ;
#841 = CARTESIAN_POINT ( 'NONE',  ( 0.0000000000000000000, -6.782666346769558000E-017, 0.4312500000000005800 ) ) ;
#842 = ADVANCED_FACE ( 'NONE', ( #367 ), #617, .T. ) ;
#843 = CC_DESIGN_PERSON_AND_ORGANIZATION_ASSIGNMENT ( #1053, #47, ( #781 ) ) ;
#844 = DIRECTION ( 'NONE',  ( 0.0000000000000000000, -7.512581982576723900E-017, 1.000000000000000000 ) ) ;
#845 = EDGE_CURVE ( 'NONE', #199, #219, #1127, .T. ) ;
#846 = DIRECTION ( 'NONE',  ( 0.0000000000000000000, 0.0000000000000000000, 1.000000000000000000 ) ) ;
#847 = LINE ( 'NONE', #663, #1174 ) ;
#848 = ADVANCED_FACE ( 'NONE', ( #314 ), #1144, .T. ) ;
#849 = CYLINDRICAL_SURFACE ( 'NONE', #178, 0.05599999999999965400 ) ;
#850 = DIRECTION ( 'NONE',  ( 0.8660254037844384900, 0.5000000000000001100, 0.0000000000000000000 ) ) ;
#851 = ORIENTED_EDGE ( 'NONE', *, *, #531, .F. ) ;
#852 = CARTESIAN_POINT ( 'NONE',  ( 0.02164890108860730400, -0.09575417660188805000, 0.004769863232598882900 ) ) ;
#853 = ORIENTED_EDGE ( 'NONE', *, *, #257, .T. ) ;
#854 = EDGE_CURVE ( 'NONE', #1102, #304, #648, .T. ) ;
#855 = CARTESIAN_POINT ( 'NONE',  ( 0.08906250000000001700, -1.816475101589225700E-016, 0.0000000000000000000 ) ) ;
#856 = CARTESIAN_POINT ( 'NONE',  ( 0.0000000000000000000, -3.495911729392237500E-017, -0.006250000000000001200 ) ) ;
#857 = APPLICATION_PROTOCOL_DEFINITION ( 'international standard', 'config_control_design', 1994, #144 ) ;
#858 = CARTESIAN_POINT ( 'NONE',  ( 0.07202606360751816200, 0.06666890826058485800, 0.4324020934779381200 ) ) ;
#859 = CARTESIAN_POINT ( 'NONE',  ( 0.0000000000000000000, -4.951474488516478300E-017, 0.1875000000000001100 ) ) ;
#860 = CARTESIAN_POINT ( 'NONE',  ( 0.0000000000000000000, -6.782666346769558000E-017, 0.4312500000000005800 ) ) ;
#861 = CIRCLE ( 'NONE', #592, 0.04601202367904203000 ) ;
#862 = FACE_OUTER_BOUND ( 'NONE', #1010, .T. ) ;
#863 = DIRECTION ( 'NONE',  ( -0.0000000000000000000, 7.512581982576723900E-017, -1.000000000000000000 ) ) ;
#864 = PRODUCT_DEFINITION_SHAPE ( 'NONE', 'NONE',  #610 ) ;
#865 = ORIENTED_EDGE ( 'NONE', *, *, #973, .F. ) ;
#866 = CARTESIAN_POINT ( 'NONE',  ( 0.08906250000000000300, -1.094079711204827700E-016, 0.4375000000000000600 ) ) ;
#867 = ORIENTED_EDGE ( 'NONE', *, *, #545, .T. ) ;
#868 = CARTESIAN_POINT ( 'NONE',  ( 0.0000000000000000000, -0.05599999999999969600, 0.1937500000000000900 ) ) ;
#869 = APPROVAL ( #309, 'UNSPECIFIED' ) ;
#870 = ORIENTED_EDGE ( 'NONE', *, *, #555, .T. ) ;
#871 = CARTESIAN_POINT ( 'NONE',  ( -0.003306075873705766100, 0.1053498903899830300, 0.009403801520961671200 ) ) ;
#872 = EDGE_CURVE ( 'NONE', #1088, #907, #520, .T. ) ;
#873 = CARTESIAN_POINT ( 'NONE',  ( -0.009375000000504542200, 0.1028405166991105300, 0.008200941738716913800 ) ) ;
#874 = CARTESIAN_POINT ( 'NONE',  ( 0.08906250000000001700, -1.826560643574592500E-016, 0.0000000000000000000 ) ) ;
#875 = AXIS2_PLACEMENT_3D ( 'NONE', #792, #163, #247 ) ;
#876 = CARTESIAN_POINT ( 'NONE',  ( 4.869443502616009100E-018, -0.03976202367904206600, -0.006250000000000004700 ) ) ;
#877 = EDGE_CURVE ( 'NONE', #818, #953, #468, .T. ) ;
#878 = CARTESIAN_POINT ( 'NONE',  ( 5.634847752083104700E-018, -0.04601202367904206500, -1.194781439102772300E-018 ) ) ;
#879 = B_SPLINE_CURVE_WITH_KNOTS ( 'NONE', 3,
 ( #160, #432, #1173, #1178, #76, #242 ),
 .UNSPECIFIED., .F., .F.,
 ( 4, 2, 4 ),
 ( 6.701712256711370800E-015, 0.0002504517647562022700, 0.0005009035295057027600 ),
 .UNSPECIFIED. ) ;
#880 = LINE ( 'NONE', #537, #50 ) ;
#881 = ORIENTED_EDGE ( 'NONE', *, *, #720, .T. ) ;
#882 = DIRECTION ( 'NONE',  ( -0.0000000000000000000, 7.512581982576723900E-017, -1.000000000000000000 ) ) ;
#883 = ORIENTED_EDGE ( 'NONE', *, *, #1006, .T. ) ;
#884 = ORIENTED_EDGE ( 'NONE', *, *, #780, .F. ) ;
#885 = CC_DESIGN_DATE_AND_TIME_ASSIGNMENT ( #300, #784, ( #71 ) ) ;
#886 = CARTESIAN_POINT ( 'NONE',  ( 0.009374999999999989200, 0.1028405166994018200, 0.008200941738857948600 ) ) ;
#887 = CARTESIAN_POINT ( 'NONE',  ( -0.09374999999999998600, -0.04330127018946266400, 0.008200941738915753000 ) ) ;
#888 = AXIS2_PLACEMENT_3D ( 'NONE', #634, #916, #548 ) ;
#889 = CARTESIAN_POINT ( 'NONE',  ( -0.09374999999999997200, 0.02913819475876833200, 0.005114270834060044700 ) ) ;
#890 = CARTESIAN_POINT ( 'NONE',  ( -0.09287823534169890900, 0.04984053400135615000, 0.4280936888691577200 ) ) ;
#891 = COORDINATED_UNIVERSAL_TIME_OFFSET ( 6, 0, .BEHIND. ) ;
#892 = AXIS2_PLACEMENT_3D ( 'NONE', #235, #324, #415 ) ;
#893 = FACE_OUTER_BOUND ( 'NONE', #1071, .T. ) ;
#894 = CARTESIAN_POINT ( 'NONE',  ( 0.08437499999949543700, 0.05953924651047119700, 0.008200941738716920800 ) ) ;
#895 = ORIENTED_EDGE ( 'NONE', *, *, #572, .T. ) ;
#896 = EDGE_LOOP ( 'NONE', ( #1190, #1147, #883, #183 ) ) ;
#897 = CARTESIAN_POINT ( 'NONE',  ( -0.09374999999999998600, -0.05412658773652770400, -0.2864109809347400400 ) ) ;
#898 = VERTEX_POINT ( 'NONE', #705 ) ;
#899 = EDGE_CURVE ( 'NONE', #329, #360, #210, .T. ) ;
#900 = CARTESIAN_POINT ( 'NONE',  ( -0.09374999999999998600, -0.04330127018946266400, 0.008200941738915753000 ) ) ;
#901 = CARTESIAN_POINT ( 'NONE',  ( 0.0000000000000000000, 1.403917340117780000E-034, 0.1875000000000001100 ) ) ;
#902 = DIRECTION ( 'NONE',  ( 8.659560562355370400E-017, 0.7071067811865832100, 0.7071067811865118200 ) ) ;
#903 = LINE ( 'NONE', #117, #738 ) ;
#904 = CARTESIAN_POINT ( 'NONE',  ( 0.09374999999999998600, 0.04330127018922138400, 0.4292990582611421200 ) ) ;
#905 = CONICAL_SURFACE ( 'NONE', #229, 0.05599999999999955000, 1.047197551196600700 ) ;
#906 = EDGE_CURVE ( 'NONE', #83, #304, #880, .T. ) ;
#907 = VERTEX_POINT ( 'NONE', #524 ) ;
#908 = VERTEX_POINT ( 'NONE', #516 ) ;
#909 = AXIS2_PLACEMENT_3D ( 'NONE', #508, #412, #223 ) ;
#910 = CARTESIAN_POINT ( 'NONE',  ( -0.09374999999999998600, -0.04330127018922223800, -0.2864109809347400400 ) ) ;
#911 = CARTESIAN_POINT ( 'NONE',  ( -0.05950337736067491700, -0.07389888453617754500, 0.4342939253622091800 ) ) ;
#912 = DIRECTION ( 'NONE',  ( -0.0000000000000000000, 7.512581982576723900E-017, -1.000000000000000000 ) ) ;
#913 = COORDINATED_UNIVERSAL_TIME_OFFSET ( 6, 0, .BEHIND. ) ;
#914 = CARTESIAN_POINT ( 'NONE',  ( -0.09374999999999997200, 0.007281655154778842200, 0.4347936706131731400 ) ) ;
#915 = LINE ( 'NONE', #292, #283 ) ;
#916 = DIRECTION ( 'NONE',  ( 1.000000000000000000, 1.224646799147353200E-016, 9.200259478294661200E-033 ) ) ;
#917 = LINE ( 'NONE', #282, #668 ) ;
#918 = B_SPLINE_CURVE_WITH_KNOTS ( 'NONE', 3,
 ( #687, #485, #765, #581, #482, #967 ),
 .UNSPECIFIED., .F., .F.,
 ( 4, 2, 4 ),
 ( 0.01018125204566395700, 0.01073416887677765300, 0.01128708570789134800 ),
 .UNSPECIFIED. ) ;
#919 = ORIENTED_EDGE ( 'NONE', *, *, #469, .F. ) ;
#920 = ORIENTED_EDGE ( 'NONE', *, *, #19, .T. ) ;
#921 = ORIENTED_EDGE ( 'NONE', *, *, #1156, .T. ) ;
#922 = DIRECTION ( 'NONE',  ( 0.0000000000000000000, 0.0000000000000000000, 1.000000000000000000 ) ) ;
#923 = DIMENSIONAL_EXPONENTS ( 1.000000000000000000, 0.0000000000000000000, 0.0000000000000000000, 0.0000000000000000000, 0.0000000000000000000, 0.0000000000000000000, 0.0000000000000000000 ) ;
#924 = CARTESIAN_POINT ( 'NONE',  ( -0.08437499999949539500, 0.05953924651047120400, 0.4292990582612831700 ) ) ;
#925 = DIRECTION ( 'NONE',  ( 0.0000000000000000000, 0.0000000000000000000, 1.000000000000000000 ) ) ;
#926 = EDGE_CURVE ( 'NONE', #346, #670, #801, .T. ) ;
#927 = CARTESIAN_POINT ( 'NONE',  ( -0.09374999999999997200, -0.01458640401150543100, 0.4347936706131747500 ) ) ;
#928 = AXIS2_PLACEMENT_3D ( 'NONE', #270, #87, #632 ) ;
#929 = ADVANCED_FACE ( 'NONE', ( #605 ), #786, .T. ) ;
#930 = LINE ( 'NONE', #855, #559 ) ;
#931 = DIRECTION ( 'NONE',  ( -0.0000000000000000000, 7.512581982576723900E-017, -1.000000000000000000 ) ) ;
#932 = VECTOR ( 'NONE', #169, 39.37007874015748100 ) ;
#933 = ORIENTED_EDGE ( 'NONE', *, *, #115, .F. ) ;
#934 = ORIENTED_EDGE ( 'NONE', *, *, #1123, .F. ) ;
#935 = EDGE_CURVE ( 'NONE', #658, #1191, #1035, .T. ) ;
#936 = ORIENTED_EDGE ( 'NONE', *, *, #333, .F. ) ;
#937 = DIRECTION ( 'NONE',  ( 0.0000000000000000000, -1.000000000000000000, 0.0000000000000000000 ) ) ;
#938 = ADVANCED_FACE ( 'NONE', ( #21 ), #528, .T. ) ;
#939 = VERTEX_POINT ( 'NONE', #810 ) ;
#940 = CARTESIAN_POINT ( 'NONE',  ( -0.07499999999999998300, -0.04330127018922224500, -0.2864109809347400400 ) ) ;
#941 = PLANE ( 'NONE',  #250 ) ;
#942 = CARTESIAN_POINT ( 'NONE',  ( -0.08437499999999995000, 0.05953924651017988800, -0.2864109809347400400 ) ) ;
#943 = CARTESIAN_POINT ( 'NONE',  ( 6.858022075225138100E-018, -0.05599999999999972400, 0.4312500000000005800 ) ) ;
#944 = CARTESIAN_POINT ( 'NONE',  ( 0.009375000000504500600, -0.1028405166991110700, 0.008200941738717024800 ) ) ;
#945 = CARTESIAN_POINT ( 'NONE',  ( -0.003275949087492652200, 0.1053551782652589100, 0.4280936888691577200 ) ) ;
#946 = AXIS2_PLACEMENT_3D ( 'NONE', #752, #863, #126 ) ;
#947 = DIRECTION ( 'NONE',  ( 1.000000000000000000, 0.0000000000000000000, 0.0000000000000000000 ) ) ;
#948 = LINE ( 'NONE', #942, #105 ) ;
#949 = LINE ( 'NONE', #1106, #77 ) ;
#950 = DIRECTION ( 'NONE',  ( -0.0000000000000000000, 7.512581982576723900E-017, -1.000000000000000000 ) ) ;
#951 = ORIENTED_EDGE ( 'NONE', *, *, #716, .F. ) ;
#952 = DIRECTION ( 'NONE',  ( 0.0000000000000000000, 0.0000000000000000000, 1.000000000000000000 ) ) ;
#953 = VERTEX_POINT ( 'NONE', #824 ) ;
#954 = ORIENTED_EDGE ( 'NONE', *, *, #991, .F. ) ;
#955 = AXIS2_PLACEMENT_3D ( 'NONE', #238, #336, #434 ) ;
#956 = APPROVAL_ROLE ( '' ) ;
#957 = CARTESIAN_POINT ( 'NONE',  ( 0.0000000000000000000, -4.951474488516478300E-017, 0.1875000000000001100 ) ) ;
#958 = CARTESIAN_POINT ( 'NONE',  ( 0.09287823534169795100, -0.04984053400135911300, 0.4280936888691575000 ) ) ;
#959 = CARTESIAN_POINT ( 'NONE',  ( -0.05314369712400202100, 0.07757064763278004300, 0.002702122995446975200 ) ) ;
#960 = CARTESIAN_POINT ( 'NONE',  ( -0.02172393639248183800, -0.09571085494899740600, 0.005097906522062121100 ) ) ;
#961 = CARTESIAN_POINT ( 'NONE',  ( 0.09374999999999998600, 0.04330127018922160600, 0.008200941738857965900 ) ) ;
#962 = APPLICATION_PROTOCOL_DEFINITION ( 'international standard', 'config_control_design', 1994, #216 ) ;
#963 = AXIS2_PLACEMENT_3D ( 'NONE', #1048, #480, #566 ) ;
#964 = CIRCLE ( 'NONE', #825, 0.08906250000000000300 ) ;
#965 = CIRCLE ( 'NONE', #446, 0.06224999999999972200 ) ;
#966 = LINE ( 'NONE', #533, #684 ) ;
#967 = CARTESIAN_POINT ( 'NONE',  ( 0.09374999999999998600, 6.015056741771658700E-015, 0.4347936706132477000 ) ) ;
#968 = VERTEX_POINT ( 'NONE', #189 ) ;
#969 = ORIENTED_EDGE ( 'NONE', *, *, #12, .T. ) ;
#970 = DIRECTION ( 'NONE',  ( 0.0000000000000000000, 1.000000000000000000, 0.0000000000000000000 ) ) ;
#971 = VERTEX_POINT ( 'NONE', #904 ) ;
#972 = CARTESIAN_POINT ( 'NONE',  ( 0.09375000000000004200, -0.04654026929616937600, 0.4285149256860162300 ) ) ;
#973 = EDGE_CURVE ( 'NONE', #968, #838, #560, .T. ) ;
#974 = CARTESIAN_POINT ( 'NONE',  ( 0.08960228625433726300, 0.05551464426376900200, 0.4280936888691355100 ) ) ;
#975 = DIRECTION ( 'NONE',  ( -0.0000000000000000000, 7.512581982576723900E-017, -1.000000000000000000 ) ) ;
#976 = CARTESIAN_POINT ( 'NONE',  ( 0.09375000000000001400, 0.04653947266778544300, 0.4285151185425888900 ) ) ;
#977 = EDGE_CURVE ( 'NONE', #670, #346, #301, .T. ) ;
#978 = LINE ( 'NONE', #1061, #686 ) ;
#979 = DIRECTION ( 'NONE',  ( -0.0000000000000000000, -0.0000000000000000000, -1.000000000000000000 ) ) ;
#980 = ORIENTED_EDGE ( 'NONE', *, *, #531, .T. ) ;
#981 = VERTEX_POINT ( 'NONE', #819 ) ;
#982 = CARTESIAN_POINT ( 'NONE',  ( -0.09374999999999998600, -0.02901482025989280200, 0.004742320602312441600 ) ) ;
#983 = ORIENTED_EDGE ( 'NONE', *, *, #1062, .F. ) ;
#984 = CARTESIAN_POINT ( 'NONE',  ( 0.09374999999999998600, 0.05412658773652714900, -0.2864109809347400400 ) ) ;
#985 = ORIENTED_EDGE ( 'NONE', *, *, #1194, .F. ) ;
#986 = DIRECTION ( 'NONE',  ( -0.0000000000000000000, 7.512581982576723900E-017, -1.000000000000000000 ) ) ;
#987 = CARTESIAN_POINT ( 'NONE',  ( -0.08437499999999996400, -0.05953924651018045100, 0.4292990582611420100 ) ) ;
#988 = CARTESIAN_POINT ( 'NONE',  ( -0.09374999999999997200, -0.01459957359820733700, 0.002706329386825880700 ) ) ;
#989 = AXIS2_PLACEMENT_3D ( 'NONE', #1032, #1042, #408 ) ;
#990 = CALENDAR_DATE ( 2022, 7, 12 ) ;
#991 = EDGE_CURVE ( 'NONE', #805, #1193, #723, .T. ) ;
#992 = CIRCLE ( 'NONE', #888, 0.006250000000000001200 ) ;
#993 = CARTESIAN_POINT ( 'NONE',  ( -0.09374999999999997200, -0.04653947266778549200, 0.4285151185425878400 ) ) ;
#994 = FACE_OUTER_BOUND ( 'NONE', #455, .T. ) ;
#995 = EDGE_LOOP ( 'NONE', ( #580, #1009 ) ) ;
#996 = DIRECTION ( 'NONE',  ( 0.8660254037844386000, -0.4999999999999998900, 0.0000000000000000000 ) ) ;
#997 = ORIENTED_EDGE ( 'NONE', *, *, #54, .T. ) ;
#998 = EDGE_LOOP ( 'NONE', ( #95, #1136, #703, #881 ) ) ;
#999 = CARTESIAN_POINT ( 'NONE',  ( 0.08437499999999999200, 0.05953924651017988800, -0.2864109809347400400 ) ) ;
#1000 = EDGE_CURVE ( 'NONE', #658, #320, #768, .T. ) ;
#1001 = DIRECTION ( 'NONE',  ( -0.0000000000000000000, 7.512581982576723900E-017, -1.000000000000000000 ) ) ;
#1002 = CARTESIAN_POINT ( 'NONE',  ( 0.0000000000000000000, -3.373832272175365100E-017, -0.02249999999999999900 ) ) ;
#1003 = DIRECTION ( 'NONE',  ( -0.0000000000000000000, 7.512581982576723900E-017, -1.000000000000000000 ) ) ;
#1004 = B_SPLINE_CURVE_WITH_KNOTS ( 'NONE', 3,
 ( #149, #1148, #310, #958, #972, #404 ),
 .UNSPECIFIED., .F., .F.,
 ( 4, 2, 4 ),
 ( 1.440741069796366100E-014, 0.0002504517647600137300, 0.0005009035295056200400 ),
 .UNSPECIFIED. ) ;
#1005 = VECTOR ( 'NONE', #902, 39.37007874015748100 ) ;
#1006 = EDGE_CURVE ( 'NONE', #522, #219, #18, .T. ) ;
#1007 = ORIENTED_EDGE ( 'NONE', *, *, #518, .T. ) ;
#1008 = CARTESIAN_POINT ( 'NONE',  ( 0.0000000000000000000, -6.829619984160658000E-017, 0.4375000000000000000 ) ) ;
#1009 = ORIENTED_EDGE ( 'NONE', *, *, #145, .T. ) ;
#1010 = EDGE_LOOP ( 'NONE', ( #936, #465, #402, #700 ) ) ;
#1011 = CARTESIAN_POINT ( 'NONE',  ( 0.003306075873705745200, -0.1053498903899835900, 0.009403801520961787400 ) ) ;
#1012 = ORIENTED_EDGE ( 'NONE', *, *, #145, .F. ) ;
#1013 = AXIS2_PLACEMENT_3D ( 'NONE', #123, #458, #36 ) ;
#1014 = CARTESIAN_POINT ( 'NONE',  ( 0.009374999999999968400, -0.1028405166994023800, 0.4292990582611419000 ) ) ;
#1015 = DIRECTION ( 'NONE',  ( 1.000000000000000000, 0.0000000000000000000, 0.0000000000000000000 ) ) ;
#1016 = EDGE_CURVE ( 'NONE', #8, #939, #661, .T. ) ;
#1017 = CARTESIAN_POINT ( 'NONE',  ( -0.02172393639248183800, 0.09571085494899685100, 0.4324020934779381800 ) ) ;
#1018 = ADVANCED_FACE ( 'NONE', ( #253, #396 ), #544, .T. ) ;
#1019 = CONICAL_SURFACE ( 'NONE', #1013, 0.04974999999999957900, 0.7853981633974566100 ) ;
#1020 = CARTESIAN_POINT ( 'NONE',  ( -0.01552539959989101900, 0.09928958183478101000, 0.4310183570985682300 ) ) ;
#1021 = CYLINDRICAL_SURFACE ( 'NONE', #549, 0.01875000000000000300 ) ;
#1022 = ORIENTED_EDGE ( 'NONE', *, *, #1082, .T. ) ;
#1023 = ORIENTED_EDGE ( 'NONE', *, *, #991, .T. ) ;
#1024 = ADVANCED_FACE ( 'NONE', ( #709 ), #1131, .T. ) ;
#1025 = DIRECTION ( 'NONE',  ( -1.000000000000000000, 0.0000000000000000000, 0.0000000000000000000 ) ) ;
#1026 = ORIENTED_EDGE ( 'NONE', *, *, #572, .F. ) ;
#1027 = ORIENTED_EDGE ( 'NONE', *, *, #98, .F. ) ;
#1028 = CC_DESIGN_APPROVAL ( #587, ( #610 ) ) ;
#1029 = CARTESIAN_POINT ( 'NONE',  ( 0.08906250000000000300, -1.094079711204827700E-016, 0.4375000000000000600 ) ) ;
#1030 = B_SPLINE_CURVE_WITH_KNOTS ( 'NONE', 3,
 ( #1141, #760, #478, #945, #399, #392 ),
 .UNSPECIFIED., .F., .F.,
 ( 4, 2, 4 ),
 ( 1.440721691820895900E-014, 0.0002504517647600615400, 0.0005009035295057158800 ),
 .UNSPECIFIED. ) ;
#1031 = CARTESIAN_POINT ( 'NONE',  ( 6.092617825758030200E-018, 0.04974999999999952400, 0.1875000000000001100 ) ) ;
#1032 = CARTESIAN_POINT ( 'NONE',  ( 0.0000000000000000000, -1.094079711204827700E-016, 0.4375000000000000600 ) ) ;
#1033 = EDGE_CURVE ( 'NONE', #907, #37, #861, .T. ) ;
#1034 = LOCAL_TIME ( 15, 46, 24.00000000000000000, #891 ) ;
#1035 = LINE ( 'NONE', #101, #814 ) ;
#1036 = ADVANCED_FACE ( 'NONE', ( #799 ), #459, .T. ) ;
#1037 = FACE_OUTER_BOUND ( 'NONE', #374, .T. ) ;
#1038 = DIRECTION ( 'NONE',  ( -0.0000000000000000000, 7.512581982576723900E-017, -1.000000000000000000 ) ) ;
#1039 = ORIENTED_EDGE ( 'NONE', *, *, #804, .T. ) ;
#1040 = DIRECTION ( 'NONE',  ( -0.8660254037844397100, -1.060575238724908000E-016, -0.4999999999999979500 ) ) ;
#1041 = ORIENTED_EDGE ( 'NONE', *, *, #333, .T. ) ;
#1042 = DIRECTION ( 'NONE',  ( 0.0000000000000000000, 0.0000000000000000000, 1.000000000000000000 ) ) ;
#1043 = ORIENTED_EDGE ( 'NONE', *, *, #735, .T. ) ;
#1044 = EDGE_LOOP ( 'NONE', ( #141, #724, #317, #597 ) ) ;
#1045 = CARTESIAN_POINT ( 'NONE',  ( -0.09374999999999998600, -0.04330127018946266400, 0.008200941738915753000 ) ) ;
#1046 = ADVANCED_FACE ( 'NONE', ( #32 ), #646, .T. ) ;
#1047 = APPROVAL_STATUS ( 'not_yet_approved' ) ;
#1048 = CARTESIAN_POINT ( 'NONE',  ( 0.07499999999999998300, -0.04330127018922216900, -0.2864109809347400400 ) ) ;
#1049 = CARTESIAN_POINT ( 'NONE',  ( 0.0000000000000000000, -3.303401816088712100E-017, -0.03187499999999954300 ) ) ;
#1050 = PERSON_AND_ORGANIZATION_ROLE ( 'creator' ) ;
#1051 = AXIS2_PLACEMENT_3D ( 'NONE', #133, #297, #574 ) ;
#1052 = PERSON_AND_ORGANIZATION ( #1128, #48 ) ;
#1053 = PERSON_AND_ORGANIZATION ( #1128, #48 ) ;
#1054 = FACE_OUTER_BOUND ( 'NONE', #427, .T. ) ;
#1055 = DIRECTION ( 'NONE',  ( 0.0000000000000000000, 1.000000000000000000, 0.0000000000000000000 ) ) ;
#1056 = ORIENTED_EDGE ( 'NONE', *, *, #1016, .T. ) ;
#1057 = AXIS2_PLACEMENT_3D ( 'NONE', #132, #394, #680 ) ;
#1058 = DIRECTION ( 'NONE',  ( -0.0000000000000000000, 7.512581982576723900E-017, -1.000000000000000000 ) ) ;
#1059 = ORIENTED_EDGE ( 'NONE', *, *, #137, .T. ) ;
#1060 = EDGE_LOOP ( 'NONE', ( #1116, #290, #790, #1012 ) ) ;
#1061 = CARTESIAN_POINT ( 'NONE',  ( 4.869443502616007600E-018, -0.03976202367904204500, -0.1875000000000000600 ) ) ;
#1062 = EDGE_CURVE ( 'NONE', #688, #345, #948, .T. ) ;
#1063 = VERTEX_POINT ( 'NONE', #1138 ) ;
#1064 = CARTESIAN_POINT ( 'NONE',  ( 0.0000000000000000000, -6.782666346769558000E-017, 0.4312500000000005800 ) ) ;
#1065 = AXIS2_PLACEMENT_3D ( 'NONE', #1002, #9, #828 ) ;
#1066 = CARTESIAN_POINT ( 'NONE',  ( -0.09288871930062010700, 0.04981179950119407600, 0.009403801520939288100 ) ) ;
#1067 = EDGE_CURVE ( 'NONE', #1088, #670, #666, .T. ) ;
#1068 = DIRECTION ( 'NONE',  ( 0.8660254037844397100, 0.0000000000000000000, -0.4999999999999979500 ) ) ;
#1069 = CIRCLE ( 'NONE', #322, 0.03976202367904203100 ) ;
#1070 = CARTESIAN_POINT ( 'NONE',  ( 0.08718005550952763500, 0.05791974695666234800, 0.4285149256859951400 ) ) ;
#1071 = EDGE_LOOP ( 'NONE', ( #951, #159, #642, #269 ) ) ;
#1072 = CARTESIAN_POINT ( 'NONE',  ( 0.09374999999999998600, -0.04330127018946259400, 0.008200941738915733900 ) ) ;
#1073 = ORIENTED_EDGE ( 'NONE', *, *, #746, .T. ) ;
#1074 = ORIENTED_EDGE ( 'NONE', *, *, #685, .T. ) ;
#1075 = CARTESIAN_POINT ( 'NONE',  ( 0.0000000000000000000, -1.707404996040164500E-016, 0.0000000000000000000 ) ) ;
#1076 = ORIENTED_EDGE ( 'NONE', *, *, #590, .T. ) ;
#1077 = CARTESIAN_POINT ( 'NONE',  ( 0.009375000000000018700, 0.1028405166994018100, -0.2864109809347400400 ) ) ;
#1078 = AXIS2_PLACEMENT_3D ( 'NONE', #397, #146, #43 ) ;
#1079 = CC_DESIGN_PERSON_AND_ORGANIZATION_ASSIGNMENT ( #150, #577, ( #676 ) ) ;
#1080 = B_SPLINE_CURVE_WITH_KNOTS ( 'NONE', 3,
 ( #924, #1115, #373, #826, #1121, #1017, #1020, #376 ),
 .UNSPECIFIED., .F., .F.,
 ( 4, 2, 2, 4 ),
 ( 0.0002828055215726265700, 0.001388969274831865700, 0.001942051151461485700, 0.002495133028091105900 ),
 .UNSPECIFIED. ) ;
#1081 = CARTESIAN_POINT ( 'NONE',  ( 0.09374999999999998600, -0.04330127018922588100, 0.4292990582611411200 ) ) ;
#1082 = EDGE_CURVE ( 'NONE', #553, #444, #964, .T. ) ;
#1083 = CARTESIAN_POINT ( 'NONE',  ( -0.09374999999999997200, 2.122739139082453400E-015, 0.002706329386796016600 ) ) ;
#1084 = CYLINDRICAL_SURFACE ( 'NONE', #1093, 0.05599999999999980700 ) ;
#1085 = LINE ( 'NONE', #612, #834 ) ;
#1086 = CARTESIAN_POINT ( 'NONE',  ( -0.09374999999999995800, 0.01466789865994161600, 0.003213588996021230200 ) ) ;
#1087 = TOROIDAL_SURFACE ( 'NONE', #755, 0.04601202367904203000, 0.006249999999999997700 ) ;
#1088 = VERTEX_POINT ( 'NONE', #104 ) ;
#1089 = ORIENTED_EDGE ( 'NONE', *, *, #12, .F. ) ;
#1090 = ORIENTED_EDGE ( 'NONE', *, *, #1129, .F. ) ;
#1091 = PLANE ( 'NONE',  #488 ) ;
#1092 = CARTESIAN_POINT ( 'NONE',  ( 0.0000000000000000000, -2.134256245050205600E-017, -0.1875000000000000600 ) ) ;
#1093 = AXIS2_PLACEMENT_3D ( 'NONE', #139, #44, #312 ) ;
#1094 = EDGE_CURVE ( 'NONE', #1098, #199, #227, .T. ) ;
#1095 = FACE_OUTER_BOUND ( 'NONE', #672, .T. ) ;
#1096 = CARTESIAN_POINT ( 'NONE',  ( -0.09374999999999997200, 2.122739139082453400E-015, 0.002706329386796016600 ) ) ;
#1097 = CIRCLE ( 'NONE', #955, 0.08906250000000001700 ) ;
#1098 = VERTEX_POINT ( 'NONE', #649 ) ;
#1099 = AXIS2_PLACEMENT_3D ( 'NONE', #984, #437, #256 ) ;
#1100 = ORIENTED_EDGE ( 'NONE', *, *, #321, .F. ) ;
#1101 = DIRECTION ( 'NONE',  ( -0.0000000000000000000, 7.512581982576723900E-017, -1.000000000000000000 ) ) ;
#1102 = VERTEX_POINT ( 'NONE', #557 ) ;
#1103 = B_SPLINE_CURVE_WITH_KNOTS ( 'NONE', 3,
 ( #809, #712, #260, #188, #1, #900 ),
 .UNSPECIFIED., .F., .F.,
 ( 4, 2, 4 ),
 ( 1.440799333155987600E-014, 0.0002504517647569656600, 0.0005009035294995232500 ),
 .UNSPECIFIED. ) ;
#1104 = DIRECTION ( 'NONE',  ( 0.0000000000000000000, 0.0000000000000000000, -1.000000000000000000 ) ) ;
#1105 = CARTESIAN_POINT ( 'NONE',  ( 5.863732788920564000E-018, -0.03976202367904203800, -0.02250000000000000300 ) ) ;
#1106 = CARTESIAN_POINT ( 'NONE',  ( 0.009374999999999970200, -0.1028405166994023800, -0.2864109809347400400 ) ) ;
#1107 = COORDINATED_UNIVERSAL_TIME_OFFSET ( 6, 0, .BEHIND. ) ;
#1108 = B_SPLINE_CURVE_WITH_KNOTS ( 'NONE', 3,
 ( #1083, #988, #982, #887 ),
 .UNSPECIFIED., .F., .F.,
 ( 4, 4 ),
 ( 0.01104274405629614700, 0.01215045099265786600 ),
 .UNSPECIFIED. ) ;
#1109 = APPROVAL_PERSON_ORGANIZATION ( #193, #587, #772 ) ;
#1110 = DIRECTION ( 'NONE',  ( -0.0000000000000000000, 7.512581982576723900E-017, -1.000000000000000000 ) ) ;
#1111 = CIRCLE ( 'NONE', #946, 0.04601202367904203000 ) ;
#1112 = ADVANCED_FACE ( 'NONE', ( #532 ), #1172, .T. ) ;
#1113 = AXIS2_PLACEMENT_3D ( 'NONE', #940, #846, #665 ) ;
#1114 = ORIENTED_EDGE ( 'NONE', *, *, #769, .F. ) ;
#1115 = CARTESIAN_POINT ( 'NONE',  ( -0.07210109891139261700, 0.06662558660769420100, 0.4327301367674013000 ) ) ;
#1116 = ORIENTED_EDGE ( 'NONE', *, *, #298, .F. ) ;
#1117 = EDGE_LOOP ( 'NONE', ( #276, #25, #1076, #701 ) ) ;
#1118 = ORIENTED_EDGE ( 'NONE', *, *, #746, .F. ) ;
#1119 = CARTESIAN_POINT ( 'NONE',  ( 0.0000000000000000000, -1.094079711204827700E-016, 0.4375000000000000600 ) ) ;
#1120 = CC_DESIGN_PERSON_AND_ORGANIZATION_ASSIGNMENT ( #620, #1050, ( #676 ) ) ;
#1121 = CARTESIAN_POINT ( 'NONE',  ( -0.03424662263932506300, 0.08848087867340469200, 0.4342939253622094500 ) ) ;
#1122 = ADVANCED_FACE ( 'NONE', ( #366 ), #832, .F. ) ;
#1123 = EDGE_CURVE ( 'NONE', #953, #234, #915, .T. ) ;
#1124 = CARTESIAN_POINT ( 'NONE',  ( -0.09374999999999998600, -0.04330127018922591600, 0.4292990582611411200 ) ) ;
#1125 = AXIS2_PLACEMENT_3D ( 'NONE', #354, #1015, #729 ) ;
#1126 = DIRECTION ( 'NONE',  ( 0.0000000000000000000, -7.512581982576723900E-017, 1.000000000000000000 ) ) ;
#1127 = LINE ( 'NONE', #606, #607 ) ;
#1128 = PERSON ( 'UNSPECIFIED', 'UNSPECIFIED', 'UNSPECIFIED', ('UNSPECIFIED'), ('UNSPECIFIED'), ('UNSPECIFIED') ) ;
#1129 = EDGE_CURVE ( 'NONE', #444, #553, #62, .T. ) ;
#1130 = VERTEX_POINT ( 'NONE', #26 ) ;
#1131 = PLANE ( 'NONE',  #655 ) ;
#1132 = ORIENTED_EDGE ( 'NONE', *, *, #1082, .F. ) ;
#1133 = CARTESIAN_POINT ( 'NONE',  ( 0.05314369712400200700, -0.07757064763278057100, 0.002702122995447070200 ) ) ;
#1134 = VERTEX_POINT ( 'NONE', #569 ) ;
#1135 = ADVANCED_FACE ( 'NONE', ( #449 ), #1019, .F. ) ;
#1136 = ORIENTED_EDGE ( 'NONE', *, *, #1169, .F. ) ;
#1137 = UNCERTAINTY_MEASURE_WITH_UNIT (LENGTH_MEASURE( 1.000000000000000100E-005 ), #754, 'distance_accuracy_value', 'NONE');
#1138 = CARTESIAN_POINT ( 'NONE',  ( 0.08437499999949545100, -0.05953924651047169000, 0.4292990582612830100 ) ) ;
#1139 = DIRECTION ( 'NONE',  ( -0.0000000000000000000, -0.0000000000000000000, -1.000000000000000000 ) ) ;
#1140 = CARTESIAN_POINT ( 'NONE',  ( 0.0000000000000000000, -1.094079711204827700E-016, 0.4375000000000000600 ) ) ;
#1141 = CARTESIAN_POINT ( 'NONE',  ( 0.009375000000504537000, 0.1028405166991105300, 0.4292990582612831700 ) ) ;
#1142 = ADVANCED_FACE ( 'NONE', ( #423 ), #1084, .T. ) ;
#1143 = MECHANICAL_CONTEXT ( 'NONE', #216, 'mechanical' ) ;
#1144 = CONICAL_SURFACE ( 'NONE', #739, 0.04975000000000007900, 0.7853981633974497200 ) ;
#1145 = CONICAL_SURFACE ( 'NONE', #296, 0.05599999999999966100, 0.7853981633974987900 ) ;
#1146 = DIRECTION ( 'NONE',  ( 1.060575238724908500E-016, -0.8660254037844400400, -0.4999999999999973900 ) ) ;
#1147 = ORIENTED_EDGE ( 'NONE', *, *, #469, .T. ) ;
#1148 = CARTESIAN_POINT ( 'NONE',  ( 0.08717936560894844200, -0.05792014527094788100, 0.4285151185427537600 ) ) ;
#1149 = EDGE_CURVE ( 'NONE', #623, #688, #230, .T. ) ;
#1150 = ORIENTED_EDGE ( 'NONE', *, *, #716, .T. ) ;
#1151 =( NAMED_UNIT ( * ) PLANE_ANGLE_UNIT ( ) SI_UNIT ( $, .RADIAN. ) );
#1152 = VERTEX_POINT ( 'NONE', #766 ) ;
#1153 = AXIS2_PLACEMENT_3D ( 'NONE', #774, #501, #240 ) ;
#1154 = CARTESIAN_POINT ( 'NONE',  ( 0.03424662263932504200, -0.08848087867340521900, 0.4342939253622092300 ) ) ;
#1155 = CARTESIAN_POINT ( 'NONE',  ( -0.08437499999999993600, 0.05953924651017990200, 0.008200941738857943400 ) ) ;
#1156 = EDGE_CURVE ( 'NONE', #757, #499, #930, .T. ) ;
#1157 = DIRECTION ( 'NONE',  ( -0.0000000000000000000, 7.512581982576723900E-017, -1.000000000000000000 ) ) ;
#1158 = CARTESIAN_POINT ( 'NONE',  ( 0.09288871930062012100, 0.04981179950119417300, 0.4280961984790609400 ) ) ;
#1159 = PERSON_AND_ORGANIZATION ( #1128, #48 ) ;
#1160 = CARTESIAN_POINT ( 'NONE',  ( 0.01552539959989098300, -0.09928958183478151000, 0.4310183570985680100 ) ) ;
#1161 = LINE ( 'NONE', #103, #152 ) ;
#1162 = FACE_OUTER_BOUND ( 'NONE', #416, .T. ) ;
#1163 = CC_DESIGN_DATE_AND_TIME_ASSIGNMENT ( #436, #483, ( #610 ) ) ;
#1164 = CARTESIAN_POINT ( 'NONE',  ( 0.08437499999999996400, 0.05953924651017989500, 0.4292990582611420600 ) ) ;
#1165 = ORIENTED_EDGE ( 'NONE', *, *, #271, .F. ) ;
#1166 = ORIENTED_EDGE ( 'NONE', *, *, #462, .T. ) ;
#1167 = CARTESIAN_POINT ( 'NONE',  ( 0.0000000000000000000, -0.05599999999999973100, 0.4312500000000005800 ) ) ;
#1168 = CARTESIAN_POINT ( 'NONE',  ( -0.04060630287599796600, -0.08480911557680222100, 0.002702122995447083200 ) ) ;
#1169 = EDGE_CURVE ( 'NONE', #320, #658, #136, .T. ) ;
#1170 = DIRECTION ( 'NONE',  ( 0.0000000000000000000, 1.000000000000000000, 0.0000000000000000000 ) ) ;
#1171 = APPROVAL_ROLE ( '' ) ;
#1172 = CYLINDRICAL_SURFACE ( 'NONE', #151, 0.01875000000000000600 ) ;
#1173 = CARTESIAN_POINT ( 'NONE',  ( 0.09288871930056011300, -0.04981179950134031300, 0.009403801520949259300 ) ) ;
#1174 = VECTOR ( 'NONE', #1038, 39.37007874015748100 ) ;
#1175 = CARTESIAN_POINT ( 'NONE',  ( 0.08717936560894895500, 0.05792014527094706300, 0.008984881457246423100 ) ) ;
#1176 = EDGE_LOOP ( 'NONE', ( #454, #836, #497, #1007, #156, #130 ) ) ;
#1177 = ORIENTED_EDGE ( 'NONE', *, *, #643, .T. ) ;
#1178 = CARTESIAN_POINT ( 'NONE',  ( 0.08960228625427944800, -0.05551464426382837800, 0.009406311130854706100 ) ) ;
#1179 = ORIENTED_EDGE ( 'NONE', *, *, #545, .F. ) ;
#1180 = DIRECTION ( 'NONE',  ( -0.0000000000000000000, 0.0000000000000000000, 1.000000000000000000 ) ) ;
#1181 = CARTESIAN_POINT ( 'NONE',  ( 0.09374999999999998600, -0.01459957359836306200, 0.002706329386825887200 ) ) ;
#1182 = AXIS2_PLACEMENT_3D ( 'NONE', #841, #1126, #937 ) ;
#1183 = DIRECTION ( 'NONE',  ( 0.0000000000000000000, 1.000000000000000000, 7.512581982576723900E-017 ) ) ;
#1184 = EDGE_CURVE ( 'NONE', #1152, #272, #1030, .T. ) ;
#1185 = DIRECTION ( 'NONE',  ( -0.0000000000000000000, -0.0000000000000000000, -1.000000000000000000 ) ) ;
#1186 = LINE ( 'NONE', #583, #93 ) ;
#1187 = FACE_OUTER_BOUND ( 'NONE', #1060, .T. ) ;
#1188 = AXIS2_PLACEMENT_3D ( 'NONE', #494, #882, #513 ) ;
#1189 = CARTESIAN_POINT ( 'NONE',  ( -0.09374999999999994400, 0.03626142469142296100, 0.006496658410457063900 ) ) ;
#1190 = ORIENTED_EDGE ( 'NONE', *, *, #420, .F. ) ;
#1191 = VERTEX_POINT ( 'NONE', #868 ) ;
#1192 = CARTESIAN_POINT ( 'NONE',  ( 0.0000000000000000000, -3.414809992080329000E-017, -0.006249999999999993400 ) ) ;
#1193 = VERTEX_POINT ( 'NONE', #573 ) ;
#1194 = EDGE_CURVE ( 'NONE', #898, #1063, #1186, .T. ) ;
ENDSEC;
END-ISO-10303-21;
