ISO-10303-21;
HEADER;
FILE_DESCRIPTION (( 'STEP AP203' ),
    '1' );
FILE_NAME ('93655A094_NO THREADS_Male-Female Threaded Hex Standoff.STEP',
    '2022-12-09T18:47:08',
    ( 'Administrator' ),
    ( 'Managed by Terraform' ),
    'SwSTEP 2.0',
    'SolidWorks 2017',
    '' );
FILE_SCHEMA (( 'CONFIG_CONTROL_DESIGN' ));
ENDSEC;

DATA;
#1 = CARTESIAN_POINT ( 'NONE',  ( 0.0000000000000000000, -8.492510978010747200E-016, 3.425000000000001200 ) ) ;
#2 = DIRECTION ( 'NONE',  ( -0.0000000000000000000, -0.0000000000000000000, -1.000000000000000000 ) ) ;
#3 = PERSON_AND_ORGANIZATION_ROLE ( 'design_owner' ) ;
#4 = AXIS2_PLACEMENT_3D ( 'NONE', #937, #392, #492 ) ;
#5 = ADVANCED_FACE ( 'NONE', ( #637 ), #587, .F. ) ;
#6 = CARTESIAN_POINT ( 'NONE',  ( -0.1912500000000103600, -2.487657972370796300, 0.1674308549307001500 ) ) ;
#7 = VERTEX_POINT ( 'NONE', #358 ) ;
#8 = B_SPLINE_CURVE_WITH_KNOTS ( 'NONE', 3,
 ( #1080, #716, #551, #985, #905, #546, #261, #718 ),
 .UNSPECIFIED., .F., .F.,
 ( 4, 2, 2, 4 ),
 ( 0.0002272936175608555800, 0.001312383105340145300, 0.001854927849229789900, 0.002397472593119435000 ),
 .UNSPECIFIED. ) ;
#9 = ORIENTED_EDGE ( 'NONE', *, *, #544, .T. ) ;
#10 = CARTESIAN_POINT ( 'NONE',  ( 0.0000000000000000000, -1.258909218984051700E-016, -3.899999999999999900 ) ) ;
#11 = CALENDAR_DATE ( 2022, 9, 12 ) ;
#12 = DIRECTION ( 'NONE',  ( 0.0000000000000000000, 1.000000000000000000, 0.0000000000000000000 ) ) ;
#13 = VERTEX_POINT ( 'NONE', #397 ) ;
#14 = ORIENTED_EDGE ( 'NONE', *, *, #927, .F. ) ;
#15 = VECTOR ( 'NONE', #365, 1000.000000000000100 ) ;
#16 = ADVANCED_FACE ( 'NONE', ( #853 ), #66, .T. ) ;
#17 = DIRECTION ( 'NONE',  ( 0.0000000000000000000, 1.000000000000000000, 9.875224244405046500E-017 ) ) ;
#18 = FACE_OUTER_BOUND ( 'NONE', #701, .T. ) ;
#19 = EDGE_CURVE ( 'NONE', #77, #724, #1082, .T. ) ;
#20 = CARTESIAN_POINT ( 'NONE',  ( 2.249999999999998700, 0.3656725875382002600, 7.960859378059774700 ) ) ;
#21 = ORIENTED_EDGE ( 'NONE', *, *, #582, .F. ) ;
#22 = CARTESIAN_POINT ( 'NONE',  ( -2.249999999999998700, -1.078201627711654200, 7.832569145069291100 ) ) ;
#23 = ADVANCED_FACE ( 'NONE', ( #504 ), #770, .T. ) ;
#24 = VERTEX_POINT ( 'NONE', #765 ) ;
#25 = CARTESIAN_POINT ( 'NONE',  ( -2.205000000000000100, -3.004179352410818400E-015, 8.000000000000000000 ) ) ;
#26 = CARTESIAN_POINT ( 'NONE',  ( -2.115908655028116300, -1.376455779792177000, 7.816101921067414100 ) ) ;
#27 = DIRECTION ( 'NONE',  ( 0.0000000000000000000, 1.000000000000000000, 9.875224244405044000E-017 ) ) ;
#28 = CARTESIAN_POINT ( 'NONE',  ( 0.0000000000000000000, -1.250000000000002000, 7.775000000000001200 ) ) ;
#29 = APPROVAL ( #497, 'UNSPECIFIED' ) ;
#30 = DIRECTION ( 'NONE',  ( -0.0000000000000000000, 9.875224244405044000E-017, -1.000000000000000000 ) ) ;
#31 = DIRECTION ( 'NONE',  ( 8.659560562355013000E-017, 0.7071067811865539000, 0.7071067811865411300 ) ) ;
#32 = CARTESIAN_POINT ( 'NONE',  ( 0.0000000000000000000, 1.249999999999998700, -3.899999999999999900 ) ) ;
#33 = FACE_OUTER_BOUND ( 'NONE', #1015, .T. ) ;
#34 = B_SPLINE_CURVE_WITH_KNOTS ( 'NONE', 3,
 ( #518, #603, #880, #49, #46, #234, #527, #885 ),
 .UNSPECIFIED., .F., .F.,
 ( 4, 2, 2, 4 ),
 ( 0.0002272936175608558300, 0.001312383105340146600, 0.001854927849229791700, 0.002397472593119436700 ),
 .UNSPECIFIED. ) ;
#35 = EDGE_LOOP ( 'NONE', ( #43, #1019, #962, #512 ) ) ;
#36 = CARTESIAN_POINT ( 'NONE',  ( 1.530808498934192800E-016, -1.250000000000002200, 7.775000000000001200 ) ) ;
#37 = CARTESIAN_POINT ( 'NONE',  ( 0.0000000000000000000, -4.336808689942017700E-015, 0.0000000000000000000 ) ) ;
#38 = VECTOR ( 'NONE', #563, 1000.000000000000100 ) ;
#39 = AXIS2_PLACEMENT_3D ( 'NONE', #1088, #562, #995 ) ;
#40 = CARTESIAN_POINT ( 'NONE',  ( -0.4967532692869290900, -2.311275577609682900, 7.920583650766595000 ) ) ;
#41 = ADVANCED_FACE ( 'NONE', ( #737 ), #824, .T. ) ;
#42 = ORIENTED_EDGE ( 'NONE', *, *, #296, .F. ) ;
#43 = ORIENTED_EDGE ( 'NONE', *, *, #70, .T. ) ;
#44 = DIRECTION ( 'NONE',  ( 0.0000000000000000000, -1.000000000000000000, 0.0000000000000000000 ) ) ;
#45 = CARTESIAN_POINT ( 'NONE',  ( -2.249999999999999100, 0.1816880903466451000, 7.974019237886460900 ) ) ;
#46 = CARTESIAN_POINT ( 'NONE',  ( 0.8103714275345685900, 2.130208049522649200, 0.03892223732339539900 ) ) ;
#47 = DIRECTION ( 'NONE',  ( 0.0000000000000000000, -9.875224244405044000E-017, 1.000000000000000000 ) ) ;
#48 = EDGE_CURVE ( 'NONE', #77, #187, #1063, .T. ) ;
#49 = CARTESIAN_POINT ( 'NONE',  ( 0.9687711178739720800, 2.038755945665639700, 0.02587396801048969300 ) ) ;
#50 = VERTEX_POINT ( 'NONE', #230 ) ;
#51 = CARTESIAN_POINT ( 'NONE',  ( 0.06687076361143927400, 2.538958566004964700, 0.1928062570097070800 ) ) ;
#52 = CARTESIAN_POINT ( 'NONE',  ( -0.1912500000077516900, 2.487657972366322600, 0.1674308549284724300 ) ) ;
#53 = VERTEX_POINT ( 'NONE', #781 ) ;
#54 = ORIENTED_EDGE ( 'NONE', *, *, #454, .T. ) ;
#55 = CYLINDRICAL_SURFACE ( 'NONE', #275, 0.3825000000000000100 ) ;
#56 = CARTESIAN_POINT ( 'NONE',  ( -2.249999999999999100, 1.078201627711622600, 0.1674308549307041100 ) ) ;
#57 = LINE ( 'NONE', #173, #610 ) ;
#58 = ADVANCED_FACE ( 'NONE', ( #249 ), #276, .T. ) ;
#59 = DIRECTION ( 'NONE',  ( 0.0000000000000000000, 0.0000000000000000000, -1.000000000000000000 ) ) ;
#60 = EDGE_LOOP ( 'NONE', ( #893, #346, #844, #255 ) ) ;
#61 = AXIS2_PLACEMENT_3D ( 'NONE', #224, #149, #246 ) ;
#62 = DIRECTION ( 'NONE',  ( -0.0000000000000000000, 9.875224244405044000E-017, -1.000000000000000000 ) ) ;
#63 = DIRECTION ( 'NONE',  ( 0.0000000000000000000, 1.000000000000000000, 0.0000000000000000000 ) ) ;
#64 = CARTESIAN_POINT ( 'NONE',  ( 0.1912500000000081600, 2.487657972370792800, 0.1674308549307028700 ) ) ;
#65 = EDGE_CURVE ( 'NONE', #499, #541, #936, .T. ) ;
#66 = CONICAL_SURFACE ( 'NONE', #756, 2.205000000000000100, 1.047197551196600100 ) ;
#67 = APPROVAL_PERSON_ORGANIZATION ( #88, #29, #922 ) ;
#68 = DIRECTION ( 'NONE',  ( 0.0000000000000000000, 1.000000000000000000, 0.0000000000000000000 ) ) ;
#69 = VECTOR ( 'NONE', #125, 1000.000000000000000 ) ;
#70 = EDGE_CURVE ( 'NONE', #982, #743, #34, .T. ) ;
#71 = VERTEX_POINT ( 'NONE', #326 ) ;
#72 = APPROVAL ( #109, 'UNSPECIFIED' ) ;
#73 = DIRECTION ( 'NONE',  ( 0.0000000000000000000, -9.875224244405044000E-017, 1.000000000000000000 ) ) ;
#74 = DIRECTION ( 'NONE',  ( -0.0000000000000000000, 9.875224244405044000E-017, -1.000000000000000000 ) ) ;
#75 = EDGE_CURVE ( 'NONE', #982, #633, #1191, .T. ) ;
#76 = ORIENTED_EDGE ( 'NONE', *, *, #312, .T. ) ;
#77 = VERTEX_POINT ( 'NONE', #515 ) ;
#78 = ORIENTED_EDGE ( 'NONE', *, *, #904, .F. ) ;
#79 = FACE_OUTER_BOUND ( 'NONE', #318, .T. ) ;
#80 = CYLINDRICAL_SURFACE ( 'NONE', #1037, 1.250000000000000400 ) ;
#81 = DIRECTION ( 'NONE',  ( 0.0000000000000000000, 1.000000000000000000, 0.0000000000000000000 ) ) ;
#82 = VERTEX_POINT ( 'NONE', #225 ) ;
#83 = ORIENTED_EDGE ( 'NONE', *, *, #711, .F. ) ;
#84 = EDGE_CURVE ( 'NONE', #541, #1190, #360, .T. ) ;
#85 = CARTESIAN_POINT ( 'NONE',  ( 0.0000000000000000000, -2.734144733198826900E-015, 8.000000000000000000 ) ) ;
#86 = ORIENTED_EDGE ( 'NONE', *, *, #1073, .T. ) ;
#87 = DIRECTION ( 'NONE',  ( 0.0000000000000000000, -0.0000000000000000000, -1.000000000000000000 ) ) ;
#88 = PERSON_AND_ORGANIZATION ( #133, #825 ) ;
#89 = AXIS2_PLACEMENT_3D ( 'NONE', #901, #979, #453 ) ;
#90 = FACE_OUTER_BOUND ( 'NONE', #785, .T. ) ;
#91 = DIRECTION ( 'NONE',  ( -1.000000000000000000, 0.0000000000000000000, 0.0000000000000000000 ) ) ;
#92 = CARTESIAN_POINT ( 'NONE',  ( -0.3443132500722112500, -2.399286863738571800, 0.1233338266826482000 ) ) ;
#93 = ORIENTED_EDGE ( 'NONE', *, *, #1120, .T. ) ;
#94 = CARTESIAN_POINT ( 'NONE',  ( 1.530808498934189400E-016, 1.249999999999997800, -3.674999999999999400 ) ) ;
#95 = CARTESIAN_POINT ( 'NONE',  ( 0.1912499999999985600, -2.487657972370801200, -6.873863542433758400 ) ) ;
#96 = VERTEX_POINT ( 'NONE', #56 ) ;
#97 = PERSON_AND_ORGANIZATION ( #133, #825 ) ;
#98 = EDGE_CURVE ( 'NONE', #1136, #50, #841, .T. ) ;
#99 = ORIENTED_EDGE ( 'NONE', *, *, #75, .F. ) ;
#100 = VECTOR ( 'NONE', #796, 1000.000000000000000 ) ;
#101 = CARTESIAN_POINT ( 'NONE',  ( 2.249999999999998700, 1.078201627711626200, 7.832569145069296500 ) ) ;
#102 = FACE_BOUND ( 'NONE', #200, .T. ) ;
#103 = CARTESIAN_POINT ( 'NONE',  ( 0.0000000000000000000, -1.301042606982605300E-015, 8.000000000000000000 ) ) ;
#104 = APPROVAL_ROLE ( '' ) ;
#105 = B_SPLINE_CURVE_WITH_KNOTS ( 'NONE', 3,
 ( #798, #698, #522, #452, #910, #385, #92, #925 ),
 .UNSPECIFIED., .F., .F.,
 ( 4, 2, 2, 4 ),
 ( 0.0002272936175608563700, 0.001312383105340144900, 0.001854927849229789300, 0.002397472593119433700 ),
 .UNSPECIFIED. ) ;
#106 = CARTESIAN_POINT ( 'NONE',  ( -0.1912500000077532700, -2.487657972366325700, 7.832569145071530200 ) ) ;
#107 = CARTESIAN_POINT ( 'NONE',  ( 0.0000000000000000000, -1.475000000000004800, 8.000000000000000000 ) ) ;
#108 = EDGE_LOOP ( 'NONE', ( #1007, #1030, #354, #897, #335, #167, #538, #1169, #543, #114 ) ) ;
#109 = APPROVAL_STATUS ( 'not_yet_approved' ) ;
#110 = AXIS2_PLACEMENT_3D ( 'NONE', #776, #614, #608 ) ;
#111 = CARTESIAN_POINT ( 'NONE',  ( -2.249999999999999100, 1.078201627711622600, 0.1674308549307041100 ) ) ;
#112 = CARTESIAN_POINT ( 'NONE',  ( 0.1912500000077510800, 2.487657972366321700, 7.832569145071528500 ) ) ;
#113 = CARTESIAN_POINT ( 'NONE',  ( 2.249999999999998700, -1.078201627711648600, 7.832569145069291100 ) ) ;
#114 = ORIENTED_EDGE ( 'NONE', *, *, #364, .F. ) ;
#115 = CARTESIAN_POINT ( 'NONE',  ( 1.281228882126025400, 1.858358371364329200, 7.974126031989509800 ) ) ;
#116 = VECTOR ( 'NONE', #674, 1000.000000000000000 ) ;
#117 = EDGE_CURVE ( 'NONE', #499, #13, #105, .T. ) ;
#118 = DIRECTION ( 'NONE',  ( -0.0000000000000000000, 9.875224244405044000E-017, -1.000000000000000000 ) ) ;
#119 = PLANE ( 'NONE',  #215 ) ;
#120 = ORIENTED_EDGE ( 'NONE', *, *, #1166, .T. ) ;
#121 = B_SPLINE_CURVE_WITH_KNOTS ( 'NONE', 3,
 ( #579, #1017, #931, #939, #672, #590 ),
 .UNSPECIFIED., .F., .F.,
 ( 4, 2, 4 ),
 ( 8.706486366566186200E-015, 0.0002012759897655095400, 0.0004025519795223125600 ),
 .UNSPECIFIED. ) ;
#122 = ORIENTED_EDGE ( 'NONE', *, *, #84, .T. ) ;
#123 = CARTESIAN_POINT ( 'NONE',  ( -2.058749999999999000, 1.409456344659171200, -6.873863542433758400 ) ) ;
#124 = ORIENTED_EDGE ( 'NONE', *, *, #1160, .F. ) ;
#125 = DIRECTION ( 'NONE',  ( -0.0000000000000000000, 9.875224244405044000E-017, -1.000000000000000000 ) ) ;
#126 = ADVANCED_FACE ( 'NONE', ( #33 ), #304, .T. ) ;
#127 = EDGE_CURVE ( 'NONE', #1077, #633, #189, .T. ) ;
#128 = CARTESIAN_POINT ( 'NONE',  ( -0.8065861484873928500, -2.132393481399497100, 7.973803626818029700 ) ) ;
#129 = CC_DESIGN_PERSON_AND_ORGANIZATION_ASSIGNMENT ( #416, #390, ( #341 ) ) ;
#130 = DIRECTION ( 'NONE',  ( 0.0000000000000000000, 1.000000000000000000, 0.0000000000000000000 ) ) ;
#131 = CARTESIAN_POINT ( 'NONE',  ( -0.9687711178739729600, 2.038755945665639700, 7.974126031989508000 ) ) ;
#132 = ORIENTED_EDGE ( 'NONE', *, *, #960, .T. ) ;
#133 = PERSON ( 'UNSPECIFIED', 'UNSPECIFIED', 'UNSPECIFIED', ('UNSPECIFIED'), ('UNSPECIFIED'), ('UNSPECIFIED') ) ;
#134 = ADVANCED_FACE ( 'NONE', ( #393 ), #182, .T. ) ;
#135 = ORIENTED_EDGE ( 'NONE', *, *, #807, .T. ) ;
#136 = LINE ( 'NONE', #946, #536 ) ;
#137 = CARTESIAN_POINT ( 'NONE',  ( 0.0000000000000000000, -1.258909218984052000E-016, -3.899999999999999500 ) ) ;
#138 = FACE_OUTER_BOUND ( 'NONE', #624, .T. ) ;
#139 = CARTESIAN_POINT ( 'NONE',  ( -2.249999999999999100, 1.078201627711622200, 7.832569145069296500 ) ) ;
#140 = AXIS2_PLACEMENT_3D ( 'NONE', #752, #208, #223 ) ;
#141 = CARTESIAN_POINT ( 'NONE',  ( 1.448409885672697100E-016, -1.182716426222758300, -0.2250000000000000100 ) ) ;
#142 = CARTESIAN_POINT ( 'NONE',  ( 2.249999999999998700, 1.078201627711626200, 7.832569145069296500 ) ) ;
#143 = ADVANCED_FACE ( 'NONE', ( #969 ), #220, .F. ) ;
#144 = EDGE_LOOP ( 'NONE', ( #1127, #322, #1141, #1161 ) ) ;
#145 = VERTEX_POINT ( 'NONE', #1000 ) ;
#146 = CARTESIAN_POINT ( 'NONE',  ( 2.249999999999998700, -0.7237206574589464300, 0.07898816364521299400 ) ) ;
#147 = EDGE_CURVE ( 'NONE', #620, #96, #1185, .T. ) ;
#148 = DIRECTION ( 'NONE',  ( 1.000000000000000000, 1.224646799147353200E-016, 1.209366176177297700E-032 ) ) ;
#149 = DIRECTION ( 'NONE',  ( -0.0000000000000000000, 9.875224244405044000E-017, -1.000000000000000000 ) ) ;
#150 = CALENDAR_DATE ( 2022, 9, 12 ) ;
#151 = CARTESIAN_POINT ( 'NONE',  ( -1.443413851512607400, 1.764720835630474200, 7.973803626818031500 ) ) ;
#152 = ORIENTED_EDGE ( 'NONE', *, *, #733, .F. ) ;
#153 = LINE ( 'NONE', #28, #116 ) ;
#154 = CARTESIAN_POINT ( 'NONE',  ( 0.0000000000000000000, 0.9577164262227569900, -0.2249999999999998700 ) ) ;
#155 = EDGE_LOOP ( 'NONE', ( #1048, #714, #940, #760 ) ) ;
#156 = DIRECTION ( 'NONE',  ( -0.0000000000000000000, 9.875224244405044000E-017, -1.000000000000000000 ) ) ;
#157 = CARTESIAN_POINT ( 'NONE',  ( 2.249999999999998700, -1.078201627711648600, 7.832569145069291100 ) ) ;
#158 = AXIS2_PLACEMENT_3D ( 'NONE', #957, #156, #611 ) ;
#159 = ORIENTED_EDGE ( 'NONE', *, *, #669, .F. ) ;
#160 = PERSON_AND_ORGANIZATION ( #133, #825 ) ;
#161 = CARTESIAN_POINT ( 'NONE',  ( 0.1912500000000071100, -2.487657972370796300, 7.832569145069300000 ) ) ;
#162 = EDGE_LOOP ( 'NONE', ( #521, #696, #676, #1068 ) ) ;
#163 = FACE_OUTER_BOUND ( 'NONE', #1156, .T. ) ;
#164 = FACE_OUTER_BOUND ( 'NONE', #485, .T. ) ;
#165 = EDGE_CURVE ( 'NONE', #96, #7, #655, .T. ) ;
#166 = CARTESIAN_POINT ( 'NONE',  ( 0.0000000000000000000, -6.505213034913026600E-016, -0.2249999999999998900 ) ) ;
#167 = ORIENTED_EDGE ( 'NONE', *, *, #612, .F. ) ;
#168 = ORIENTED_EDGE ( 'NONE', *, *, #872, .F. ) ;
#169 = ORIENTED_EDGE ( 'NONE', *, *, #303, .F. ) ;
#170 = DIRECTION ( 'NONE',  ( 0.0000000000000000000, 1.000000000000000000, 0.0000000000000000000 ) ) ;
#171 = ORIENTED_EDGE ( 'NONE', *, *, #544, .F. ) ;
#172 = DIRECTION ( 'NONE',  ( -0.0000000000000000000, 0.0000000000000000000, 1.000000000000000000 ) ) ;
#173 = CARTESIAN_POINT ( 'NONE',  ( 2.205000000000000100, -4.606843309154008900E-015, 0.0000000000000000000 ) ) ;
#174 = AXIS2_PLACEMENT_3D ( 'NONE', #371, #564, #997 ) ;
#175 = APPROVAL_DATE_TIME ( #628, #592 ) ;
#176 = VERTEX_POINT ( 'NONE', #653 ) ;
#177 = CYLINDRICAL_SURFACE ( 'NONE', #1189, 0.3825000000000000100 ) ;
#178 = LINE ( 'NONE', #777, #1064 ) ;
#179 = DIRECTION ( 'NONE',  ( 0.0000000000000000000, 0.0000000000000000000, 1.000000000000000000 ) ) ;
#180 = EDGE_CURVE ( 'NONE', #1133, #13, #398, .T. ) ;
#181 = CARTESIAN_POINT ( 'NONE',  ( 2.164955578321489300, -1.327882310996650400, 7.807248115923527200 ) ) ;
#182 = PLANE ( 'NONE',  #39 ) ;
#183 = ORIENTED_EDGE ( 'NONE', *, *, #1160, .T. ) ;
#184 = CARTESIAN_POINT ( 'NONE',  ( -2.232237999122127300, 1.211567502944515900, 7.807193742990294000 ) ) ;
#185 = APPROVAL_DATE_TIME ( #347, #72 ) ;
#186 = SECURITY_CLASSIFICATION ( '', '', #1005 ) ;
#187 = VERTEX_POINT ( 'NONE', #750 ) ;
#188 = CYLINDRICAL_SURFACE ( 'NONE', #253, 0.3825000000000000100 ) ;
#189 = B_SPLINE_CURVE_WITH_KNOTS ( 'NONE', 3,
 ( #1108, #744, #468, #828, #274, #915 ),
 .UNSPECIFIED., .F., .F.,
 ( 4, 2, 4 ),
 ( 0.01428862027923400600, 0.01482136163584843600, 0.01535410299246286700 ),
 .UNSPECIFIED. ) ;
#190 = CARTESIAN_POINT ( 'NONE',  ( -6.694488900862983900E-016, 2.598076211353313800, -6.873863542433758400 ) ) ;
#191 = DIRECTION ( 'NONE',  ( 0.0000000000000000000, -9.875224244405044000E-017, 1.000000000000000000 ) ) ;
#192 = AXIS2_PLACEMENT_3D ( 'NONE', #141, #148, #1044 ) ;
#193 = ORIENTED_EDGE ( 'NONE', *, *, #791, .T. ) ;
#194 = CARTESIAN_POINT ( 'NONE',  ( -2.249999999999998700, -0.7232985748260218900, 7.921117145601615800 ) ) ;
#195 = CARTESIAN_POINT ( 'NONE',  ( -0.06687076361144142500, -2.538958566004968300, 0.1928062570097040200 ) ) ;
#196 = MECHANICAL_CONTEXT ( 'NONE', #387, 'mechanical' ) ;
#197 = B_SPLINE_CURVE_WITH_KNOTS ( 'NONE', 3,
 ( #561, #1093, #823, #184, #651, #272 ),
 .UNSPECIFIED., .F., .F.,
 ( 4, 2, 4 ),
 ( 8.706174801803194800E-015, 0.0002012759897655049900, 0.0004025519795223038300 ),
 .UNSPECIFIED. ) ;
#198 = CARTESIAN_POINT ( 'NONE',  ( -2.249999999999999100, 0.3654769523190589700, 0.03911871921060271900 ) ) ;
#199 = PLANE ( 'NONE',  #832 ) ;
#200 = EDGE_LOOP ( 'NONE', ( #21, #673 ) ) ;
#201 = DATE_TIME_ROLE ( 'creation_date' ) ;
#202 = EDGE_CURVE ( 'NONE', #1103, #432, #1033, .T. ) ;
#203 = ORIENTED_EDGE ( 'NONE', *, *, #1043, .T. ) ;
#204 = FACE_OUTER_BOUND ( 'NONE', #60, .T. ) ;
#205 = DIRECTION ( 'NONE',  ( 0.0000000000000000000, 0.8660254037844409300, -0.4999999999999959500 ) ) ;
#206 = FACE_OUTER_BOUND ( 'NONE', #615, .T. ) ;
#207 = CARTESIAN_POINT ( 'NONE',  ( 2.249999999999998700, -1.078201627711823600, 0.1674308549307519900 ) ) ;
#208 = DIRECTION ( 'NONE',  ( 0.0000000000000000000, 0.0000000000000000000, 1.000000000000000000 ) ) ;
#209 = CARTESIAN_POINT ( 'NONE',  ( 0.0000000000000000000, -4.481441770539532500E-016, -0.6367499999999949300 ) ) ;
#210 = CARTESIAN_POINT ( 'NONE',  ( -2.165367235512687800, -1.327391063058419600, 7.807193742989943200 ) ) ;
#211 = VERTEX_POINT ( 'NONE', #207 ) ;
#212 = ORIENTED_EDGE ( 'NONE', *, *, #560, .F. ) ;
#213 = ADVANCED_FACE ( 'NONE', ( #338 ), #534, .T. ) ;
#214 = VERTEX_POINT ( 'NONE', #107 ) ;
#215 = AXIS2_PLACEMENT_3D ( 'NONE', #190, #671, #834 ) ;
#216 = PLANE ( 'NONE',  #987 ) ;
#217 = B_SPLINE_CURVE_WITH_KNOTS ( 'NONE', 3,
 ( #417, #399, #945, #856, #599, #1122 ),
 .UNSPECIFIED., .F., .F.,
 ( 4, 2, 4 ),
 ( 8.706660461149657600E-015, 0.0002012759897655100600, 0.0004025519795223134800 ),
 .UNSPECIFIED. ) ;
#218 = DIRECTION ( 'NONE',  ( 0.0000000000000000000, 1.000000000000000000, 8.673617379884036700E-017 ) ) ;
#219 = DIRECTION ( 'NONE',  ( 8.659560562354953800E-017, 0.7071067811865491300, 0.7071067811865459100 ) ) ;
#220 = CONICAL_SURFACE ( 'NONE', #862, 1.250000000000000700, 0.7853981633974574900 ) ;
#221 = TOROIDAL_SURFACE ( 'NONE', #535, 1.182716426222757600, 0.2249999999999999200 ) ;
#222 = AXIS2_PLACEMENT_3D ( 'NONE', #682, #406, #1035 ) ;
#223 = DIRECTION ( 'NONE',  ( -1.000000000000000000, 0.0000000000000000000, 0.0000000000000000000 ) ) ;
#224 = CARTESIAN_POINT ( 'NONE',  ( 0.0000000000000000000, -1.258909218984052000E-016, -3.899999999999999500 ) ) ;
#225 = CARTESIAN_POINT ( 'NONE',  ( 1.393035734030111400E-016, 1.024999999999996800, -3.899999999999999500 ) ) ;
#226 = EDGE_LOOP ( 'NONE', ( #881, #721, #352, #458, #1004, #290 ) ) ;
#227 = CARTESIAN_POINT ( 'NONE',  ( 1.751407957523576600, 1.586900355616223600, 7.912289710998598100 ) ) ;
#228 = CARTESIAN_POINT ( 'NONE',  ( -1.753246730713072800, 1.585838739420289300, 7.920583650766600300 ) ) ;
#229 = EDGE_CURVE ( 'NONE', #726, #541, #507, .T. ) ;
#230 = CARTESIAN_POINT ( 'NONE',  ( -2.058749999999990500, -1.409456344659180600, 7.832569145069300000 ) ) ;
#231 = ADVANCED_FACE ( 'NONE', ( #466 ), #199, .T. ) ;
#232 = CARTESIAN_POINT ( 'NONE',  ( 1.439628572465429200, -1.766906267507323900, 0.03892223732339215900 ) ) ;
#233 = CARTESIAN_POINT ( 'NONE',  ( 1.443413851512607100, -1.764720835630477500, 7.973803626818033200 ) ) ;
#234 = CARTESIAN_POINT ( 'NONE',  ( 0.4985920424764217500, 2.310213961413746000, 0.08771028900140207000 ) ) ;
#235 = ORIENTED_EDGE ( 'NONE', *, *, #822, .T. ) ;
#236 = APPROVAL_PERSON_ORGANIZATION ( #1149, #72, #1021 ) ;
#237 = VERTEX_POINT ( 'NONE', #389 ) ;
#238 = EDGE_LOOP ( 'NONE', ( #699, #93, #9, #552 ) ) ;
#239 = CIRCLE ( 'NONE', #413, 2.205000000000000100 ) ;
#240 = CARTESIAN_POINT ( 'NONE',  ( 0.1340913449730369900, 2.520658537237133500, 0.1838980789322579900 ) ) ;
#241 = FACE_OUTER_BOUND ( 'NONE', #1180, .T. ) ;
#242 = AXIS2_PLACEMENT_3D ( 'NONE', #705, #617, #63 ) ;
#243 = VERTEX_POINT ( 'NONE', #1023 ) ;
#244 = DIRECTION ( 'NONE',  ( -1.000000000000000000, 0.0000000000000000000, 0.0000000000000000000 ) ) ;
#245 = ORIENTED_EDGE ( 'NONE', *, *, #334, .F. ) ;
#246 = DIRECTION ( 'NONE',  ( 0.0000000000000000000, 1.000000000000000000, 0.0000000000000000000 ) ) ;
#247 = EDGE_CURVE ( 'NONE', #262, #990, #121, .T. ) ;
#248 = CARTESIAN_POINT ( 'NONE',  ( 2.249999999999998700, 3.707104213746224600E-014, 7.974019237887008900 ) ) ;
#249 = FACE_OUTER_BOUND ( 'NONE', #496, .T. ) ;
#250 = CONICAL_SURFACE ( 'NONE', #158, 1.249999999999999800, 1.047197551196602300 ) ;
#251 = EDGE_CURVE ( 'NONE', #145, #214, #1032, .T. ) ;
#252 = DIRECTION ( 'NONE',  ( 0.0000000000000000000, 0.0000000000000000000, 1.000000000000000000 ) ) ;
#253 = AXIS2_PLACEMENT_3D ( 'NONE', #471, #179, #827 ) ;
#254 = DIRECTION ( 'NONE',  ( 0.0000000000000000000, -1.000000000000000000, 0.0000000000000000000 ) ) ;
#255 = ORIENTED_EDGE ( 'NONE', *, *, #451, .T. ) ;
#256 = DIRECTION ( 'NONE',  ( -0.0000000000000000000, 9.875224244405044000E-017, -1.000000000000000000 ) ) ;
#257 = AXIS2_PLACEMENT_3D ( 'NONE', #747, #191, #840 ) ;
#258 = ORIENTED_EDGE ( 'NONE', *, *, #1043, .F. ) ;
#259 = LOCAL_TIME ( 12, 47, 8.000000000000000000, #1170 ) ;
#260 = ORIENTED_EDGE ( 'NONE', *, *, #733, .T. ) ;
#261 = CARTESIAN_POINT ( 'NONE',  ( -1.905686749927788300, 1.497827453291401800, 0.1233338266826498500 ) ) ;
#262 = VERTEX_POINT ( 'NONE', #112 ) ;
#263 = LINE ( 'NONE', #914, #15 ) ;
#264 = CARTESIAN_POINT ( 'NONE',  ( 0.0000000000000000000, -4.648086179663862100E-016, -0.4680000000000000800 ) ) ;
#265 = DIRECTION ( 'NONE',  ( 0.0000000000000000000, 1.000000000000000000, 0.0000000000000000000 ) ) ;
#266 = LINE ( 'NONE', #692, #350 ) ;
#267 = EDGE_CURVE ( 'NONE', #1157, #145, #984, .T. ) ;
#268 = CARTESIAN_POINT ( 'NONE',  ( 0.0000000000000000000, -4.481441770539532500E-016, -0.6367499999999949300 ) ) ;
#269 = VERTEX_POINT ( 'NONE', #1124 ) ;
#270 = CARTESIAN_POINT ( 'NONE',  ( 0.0000000000000000000, -1.258909218984051700E-016, -3.899999999999999900 ) ) ;
#271 = ORIENTED_EDGE ( 'NONE', *, *, #1014, .T. ) ;
#272 = CARTESIAN_POINT ( 'NONE',  ( -2.249999999999999100, 1.078201627711622200, 7.832569145069296500 ) ) ;
#273 = CARTESIAN_POINT ( 'NONE',  ( 0.0000000000000000000, -1.481101764483165500E-016, -3.674999999999999400 ) ) ;
#274 = CARTESIAN_POINT ( 'NONE',  ( 2.249999999999998700, 0.9030624105551267000, 0.1237337738040353300 ) ) ;
#275 = AXIS2_PLACEMENT_3D ( 'NONE', #806, #252, #896 ) ;
#276 = CONICAL_SURFACE ( 'NONE', #110, 1.024999999999997000, 0.7853981633974507200 ) ;
#277 = LINE ( 'NONE', #959, #100 ) ;
#278 = CARTESIAN_POINT ( 'NONE',  ( 2.058749999992247400, -1.409456344663649400, 7.832569145071530200 ) ) ;
#279 = AXIS2_PLACEMENT_3D ( 'NONE', #808, #73, #254 ) ;
#280 = DIRECTION ( 'NONE',  ( 0.0000000000000000000, -9.875224244405044000E-017, 1.000000000000000000 ) ) ;
#281 = B_SPLINE_CURVE_WITH_KNOTS ( 'NONE', 3,
 ( #800, #892, #319, #51, #240, #1145 ),
 .UNSPECIFIED., .F., .F.,
 ( 4, 2, 4 ),
 ( 8.706632704292110500E-015, 0.0002012759897655098900, 0.0004025519795223131600 ),
 .UNSPECIFIED. ) ;
#282 = CARTESIAN_POINT ( 'NONE',  ( -2.058749999999998500, -1.409456344659176100, -6.873863542433758400 ) ) ;
#283 = CARTESIAN_POINT ( 'NONE',  ( 2.249999999999997800, 0.9030580048387562000, 7.876267325418346000 ) ) ;
#284 = PERSON_AND_ORGANIZATION_ROLE ( 'classification_officer' ) ;
#285 = EDGE_CURVE ( 'NONE', #1126, #1055, #803, .T. ) ;
#286 = ADVANCED_FACE ( 'NONE', ( #889 ), #549, .T. ) ;
#287 = ORIENTED_EDGE ( 'NONE', *, *, #165, .T. ) ;
#288 = CARTESIAN_POINT ( 'NONE',  ( -2.249999999999999100, 0.7257999078343848600, 0.08814680016220520500 ) ) ;
#289 = ORIENTED_EDGE ( 'NONE', *, *, #890, .F. ) ;
#290 = ORIENTED_EDGE ( 'NONE', *, *, #742, .T. ) ;
#291 = LINE ( 'NONE', #410, #971 ) ;
#292 =( LENGTH_UNIT ( ) NAMED_UNIT ( * ) SI_UNIT ( .MILLI., .METRE. ) );
#293 = CYLINDRICAL_SURFACE ( 'NONE', #955, 1.249999999999998900 ) ;
#294 = CARTESIAN_POINT ( 'NONE',  ( 1.351836427399367000E-016, -0.9577164262227579900, -0.4680000000000001900 ) ) ;
#295 = ORIENTED_EDGE ( 'NONE', *, *, #439, .F. ) ;
#296 = EDGE_CURVE ( 'NONE', #751, #1077, #57, .T. ) ;
#297 = CARTESIAN_POINT ( 'NONE',  ( 1.530808498934191300E-016, -1.250000000000000200, -0.6367499999999950400 ) ) ;
#298 = CARTESIAN_POINT ( 'NONE',  ( -2.249999999999999100, -0.3635484166662343900, 0.02598076211351547200 ) ) ;
#299 = DIRECTION ( 'NONE',  ( -0.0000000000000000000, 9.875224244405044000E-017, -1.000000000000000000 ) ) ;
#300 = ADVANCED_FACE ( 'NONE', ( #1011 ), #876, .T. ) ;
#301 = DIRECTION ( 'NONE',  ( 0.0000000000000000000, -1.000000000000000000, 0.0000000000000000000 ) ) ;
#302 = DIRECTION ( 'NONE',  ( 0.8660254037844384900, 0.5000000000000003300, 0.0000000000000000000 ) ) ;
#303 = EDGE_CURVE ( 'NONE', #928, #810, #363, .T. ) ;
#304 = CYLINDRICAL_SURFACE ( 'NONE', #174, 0.3825000000000000100 ) ;
#305 = PERSON_AND_ORGANIZATION ( #133, #825 ) ;
#306 = DIRECTION ( 'NONE',  ( 0.0000000000000000000, 0.0000000000000000000, 1.000000000000000000 ) ) ;
#307 = CIRCLE ( 'NONE', #619, 1.024999999999999000 ) ;
#308 = CARTESIAN_POINT ( 'NONE',  ( -2.205000000000000100, -4.336808689942017700E-015, 0.0000000000000000000 ) ) ;
#309 = B_SPLINE_CURVE_WITH_KNOTS ( 'NONE', 3,
 ( #278, #1187, #181, #1183, #988, #462 ),
 .UNSPECIFIED., .F., .F.,
 ( 4, 2, 4 ),
 ( 8.706774932791829200E-015, 0.0002012759897654934100, 0.0004025519795222800900 ),
 .UNSPECIFIED. ) ;
#310 = ORIENTED_EDGE ( 'NONE', *, *, #267, .F. ) ;
#311 = CARTESIAN_POINT ( 'NONE',  ( 1.905686749927789600, 1.497827453291400900, 7.876666173317356200 ) ) ;
#312 = EDGE_CURVE ( 'NONE', #71, #810, #909, .T. ) ;
#313 = CARTESIAN_POINT ( 'NONE',  ( 2.250000000000000000, 1.144202757444291700, 0.1838980789322565100 ) ) ;
#314 = EDGE_LOOP ( 'NONE', ( #1078, #1092, #932, #14 ) ) ;
#315 = CC_DESIGN_PERSON_AND_ORGANIZATION_ASSIGNMENT ( #930, #284, ( #186 ) ) ;
#316 = DIRECTION ( 'NONE',  ( 0.0000000000000000000, 1.000000000000000000, 0.0000000000000000000 ) ) ;
#317 = CARTESIAN_POINT ( 'NONE',  ( 0.1912500000077510800, 2.487657972366321700, 7.832569145071528500 ) ) ;
#318 = EDGE_LOOP ( 'NONE', ( #401, #446, #658, #386, #375, #1020, #629, #545, #168, #463 ) ) ;
#319 = CARTESIAN_POINT ( 'NONE',  ( -0.06750202539833129200, 2.538847684389566400, 0.1927518840764772000 ) ) ;
#320 = CALENDAR_DATE ( 2022, 9, 12 ) ;
#321 = ADVANCED_FACE ( 'NONE', ( #164 ), #293, .T. ) ;
#322 = ORIENTED_EDGE ( 'NONE', *, *, #19, .T. ) ;
#323 = EDGE_LOOP ( 'NONE', ( #642, #423, #708, #1089 ) ) ;
#324 = LINE ( 'NONE', #1016, #1186 ) ;
#325 = EDGE_CURVE ( 'NONE', #237, #990, #609, .T. ) ;
#326 = CARTESIAN_POINT ( 'NONE',  ( 0.0000000000000000000, -1.024999999999997200, -3.899999999999999500 ) ) ;
#327 = LINE ( 'NONE', #952, #1083 ) ;
#328 = CARTESIAN_POINT ( 'NONE',  ( 1.905686749927788700, -1.497827453291404200, 0.1233338266826477500 ) ) ;
#329 = DIRECTION ( 'NONE',  ( 0.0000000000000000000, 0.0000000000000000000, 1.000000000000000000 ) ) ;
#330 = EDGE_LOOP ( 'NONE', ( #547, #961, #83, #911, #152, #833, #1162, #665, #784, #1165 ) ) ;
#331 = EDGE_LOOP ( 'NONE', ( #457, #627, #122, #86, #1006, #727 ) ) ;
#332 = CARTESIAN_POINT ( 'NONE',  ( 0.0000000000000000000, 1.475000000000002100, 8.000000000000000000 ) ) ;
#333 = CARTESIAN_POINT ( 'NONE',  ( -0.3443132500722095300, 2.399286863738569600, 7.876666173317350900 ) ) ;
#334 = EDGE_CURVE ( 'NONE', #743, #262, #758, .T. ) ;
#335 = ORIENTED_EDGE ( 'NONE', *, *, #722, .T. ) ;
#336 = PLANE ( 'NONE',  #540 ) ;
#337 = CARTESIAN_POINT ( 'NONE',  ( 0.8103714275345683700, -2.130208049522651400, 7.961077762676606700 ) ) ;
#338 = FACE_OUTER_BOUND ( 'NONE', #162, .T. ) ;
#339 = CARTESIAN_POINT ( 'NONE',  ( 0.0000000000000000000, -1.258909218984051700E-016, -3.899999999999999900 ) ) ;
#340 = VECTOR ( 'NONE', #868, 1000.000000000000000 ) ;
#341 = PRODUCT_DEFINITION_FORMATION_WITH_SPECIFIED_SOURCE ( 'ANY', '', #409, .NOT_KNOWN. ) ;
#342 = VERTEX_POINT ( 'NONE', #52 ) ;
#343 = CARTESIAN_POINT ( 'NONE',  ( 2.249999999999998700, 1.299038105676655600, -6.873863542433758400 ) ) ;
#344 = AXIS2_PLACEMENT_3D ( 'NONE', #596, #62, #863 ) ;
#345 = CARTESIAN_POINT ( 'NONE',  ( 0.0000000000000000000, -1.250000000000001100, 3.425000000000001200 ) ) ;
#346 = ORIENTED_EDGE ( 'NONE', *, *, #1139, .T. ) ;
#347 = DATE_AND_TIME ( #11, #259 ) ;
#348 = EDGE_LOOP ( 'NONE', ( #634, #869 ) ) ;
#349 = FACE_OUTER_BOUND ( 'NONE', #323, .T. ) ;
#350 = VECTOR ( 'NONE', #426, 1000.000000000000000 ) ;
#351 = EDGE_CURVE ( 'NONE', #77, #1126, #266, .T. ) ;
#352 = ORIENTED_EDGE ( 'NONE', *, *, #942, .T. ) ;
#353 = DIRECTION ( 'NONE',  ( 0.0000000000000000000, 1.000000000000000000, 0.0000000000000000000 ) ) ;
#354 = ORIENTED_EDGE ( 'NONE', *, *, #921, .T. ) ;
#355 = CARTESIAN_POINT ( 'NONE',  ( 0.0000000000000000000, 1.182716426222757000, -0.2249999999999997800 ) ) ;
#356 = CARTESIAN_POINT ( 'NONE',  ( 1.867499999999998600, -1.078201627711626600, -6.873863542433758400 ) ) ;
#357 = AXIS2_PLACEMENT_3D ( 'NONE', #849, #583, #668 ) ;
#358 = CARTESIAN_POINT ( 'NONE',  ( -2.058749999999989600, 1.409456344659176800, 0.1674308549307019500 ) ) ;
#359 = LOCAL_TIME ( 12, 47, 8.000000000000000000, #1069 ) ;
#360 = LINE ( 'NONE', #1054, #947 ) ;
#361 = CARTESIAN_POINT ( 'NONE',  ( 2.205000000000000100, -2.734144733198826900E-015, 8.000000000000000000 ) ) ;
#362 = DIRECTION ( 'NONE',  ( -0.0000000000000000000, 9.875224244405044000E-017, -1.000000000000000000 ) ) ;
#363 = CIRCLE ( 'NONE', #805, 1.249999999999998000 ) ;
#364 = EDGE_CURVE ( 'NONE', #899, #620, #1138, .T. ) ;
#365 = DIRECTION ( 'NONE',  ( -0.8660254037844397100, 0.0000000000000000000, 0.4999999999999979500 ) ) ;
#366 = VERTEX_POINT ( 'NONE', #532 ) ;
#367 = ORIENTED_EDGE ( 'NONE', *, *, #75, .T. ) ;
#368 = CARTESIAN_POINT ( 'NONE',  ( 0.0000000000000000000, -1.278823352432694100E-015, 7.775000000000001200 ) ) ;
#369 = EDGE_CURVE ( 'NONE', #1058, #786, #662, .T. ) ;
#370 = CARTESIAN_POINT ( 'NONE',  ( -1.272199586309288900E-015, -2.598076211353317300, -6.873863542433758400 ) ) ;
#371 = CARTESIAN_POINT ( 'NONE',  ( 1.867499999999998600, 1.078201627711623500, -6.873863542433758400 ) ) ;
#372 = PRODUCT_RELATED_PRODUCT_CATEGORY ( 'detail', '', ( #409 ) ) ;
#373 = ORIENTED_EDGE ( 'NONE', *, *, #84, .F. ) ;
#374 = PERSON_AND_ORGANIZATION ( #133, #825 ) ;
#375 = ORIENTED_EDGE ( 'NONE', *, *, #98, .F. ) ;
#376 = LINE ( 'NONE', #282, #836 ) ;
#377 = B_SPLINE_CURVE_WITH_KNOTS ( 'NONE', 3,
 ( #1010, #767, #1028, #210, #26, #857 ),
 .UNSPECIFIED., .F., .F.,
 ( 4, 2, 4 ),
 ( 2.535179069130214100E-017, 0.0002012759897611457100, 0.0004025519795222661000 ),
 .UNSPECIFIED. ) ;
#378 = CARTESIAN_POINT ( 'NONE',  ( 1.530808498934192100E-016, -1.250000000000000700, -3.899999999999999900 ) ) ;
#379 = CIRCLE ( 'NONE', #242, 1.250000000000000700 ) ;
#380 = CARTESIAN_POINT ( 'NONE',  ( -2.249999999999999100, 1.078201627711622600, 0.1674308549307041100 ) ) ;
#381 = ADVANCED_BREP_SHAPE_REPRESENTATION ( '93655A094_NO THREADS_Male-Female Threaded Hex Standoff', ( #1001, #511 ), #465 ) ;
#382 = ADVANCED_FACE ( 'NONE', ( #839 ), #640, .T. ) ;
#383 =( NAMED_UNIT ( * ) SI_UNIT ( $, .STERADIAN. ) SOLID_ANGLE_UNIT ( ) );
#384 = ORIENTED_EDGE ( 'NONE', *, *, #285, .T. ) ;
#385 = CARTESIAN_POINT ( 'NONE',  ( -0.4985920424764235800, -2.310213961413749600, 0.08771028900139959900 ) ) ;
#386 = ORIENTED_EDGE ( 'NONE', *, *, #1090, .T. ) ;
#387 = APPLICATION_CONTEXT ( 'configuration controlled 3d designs of mechanical parts and assemblies' ) ;
#388 = DIRECTION ( 'NONE',  ( 0.5000000000000003300, -0.8660254037844384900, 0.0000000000000000000 ) ) ;
#389 = CARTESIAN_POINT ( 'NONE',  ( -2.058749999992248300, 1.409456344663646100, 7.832569145071528500 ) ) ;
#390 = PERSON_AND_ORGANIZATION_ROLE ( 'creator' ) ;
#391 = EDGE_CURVE ( 'NONE', #1136, #786, #217, .T. ) ;
#392 = DIRECTION ( 'NONE',  ( -0.0000000000000000000, 9.875224244405044000E-017, -1.000000000000000000 ) ) ;
#393 = FACE_OUTER_BOUND ( 'NONE', #226, .T. ) ;
#394 = CARTESIAN_POINT ( 'NONE',  ( 0.0000000000000000000, -8.270318432511634300E-016, 3.200000000000001500 ) ) ;
#395 = ADVANCED_FACE ( 'NONE', ( #435 ), #525, .F. ) ;
#396 = LINE ( 'NONE', #32, #1175 ) ;
#397 = CARTESIAN_POINT ( 'NONE',  ( -0.1912500000000103600, -2.487657972370796300, 0.1674308549307001500 ) ) ;
#398 = B_SPLINE_CURVE_WITH_KNOTS ( 'NONE', 3,
 ( #843, #1184, #1095, #195, #645, #6 ),
 .UNSPECIFIED., .F., .F.,
 ( 4, 2, 4 ),
 ( 8.706941216456694000E-015, 0.0002012759897655102200, 0.0004025519795223135400 ),
 .UNSPECIFIED. ) ;
#399 = CARTESIAN_POINT ( 'NONE',  ( -0.1341067189834049000, -2.520649661048112800, 7.816106350272737500 ) ) ;
#400 = CARTESIAN_POINT ( 'NONE',  ( 0.0000000000000000000, -1.301042606982605300E-015, 8.000000000000000000 ) ) ;
#401 = ORIENTED_EDGE ( 'NONE', *, *, #791, .F. ) ;
#402 = EDGE_LOOP ( 'NONE', ( #712, #553, #135, #183 ) ) ;
#403 = AXIS2_PLACEMENT_3D ( 'NONE', #846, #1112, #663 ) ;
#404 = DIRECTION ( 'NONE',  ( -0.8660254037844397100, -1.060575238724908100E-016, -0.4999999999999979500 ) ) ;
#405 = CARTESIAN_POINT ( 'NONE',  ( -2.249999999999998700, -1.299038105676660000, -6.873863542433758400 ) ) ;
#406 = DIRECTION ( 'NONE',  ( -0.0000000000000000000, 9.875224244405044000E-017, -1.000000000000000000 ) ) ;
#407 = DIRECTION ( 'NONE',  ( -0.0000000000000000000, 9.875224244405044000E-017, -1.000000000000000000 ) ) ;
#408 = CARTESIAN_POINT ( 'NONE',  ( -2.164955578321446700, -1.327882310996694600, 0.1927518840764655100 ) ) ;
#409 = PRODUCT ( '93655A094_NO THREADS_Male-Female Threaded Hex Standoff', '93655A094_NO THREADS_Male-Female Threaded Hex Standoff', '', ( #196 ) ) ;
#410 = CARTESIAN_POINT ( 'NONE',  ( 1.530808498934191300E-016, -1.250000000000000200, -0.6367499999999950400 ) ) ;
#411 = CARTESIAN_POINT ( 'NONE',  ( 1.439628572465429900, 1.766906267507320600, 7.961077762676608500 ) ) ;
#412 = ADVANCED_FACE ( 'NONE', ( #102, #18 ), #761, .T. ) ;
#413 = AXIS2_PLACEMENT_3D ( 'NONE', #85, #449, #1164 ) ;
#414 = CARTESIAN_POINT ( 'NONE',  ( -1.439628572465430700, -1.766906267507325000, 7.961077762676608500 ) ) ;
#415 = ORIENTED_EDGE ( 'NONE', *, *, #1099, .F. ) ;
#416 = PERSON_AND_ORGANIZATION ( #133, #825 ) ;
#417 = CARTESIAN_POINT ( 'NONE',  ( -0.1912500000077532700, -2.487657972366325700, 7.832569145071530200 ) ) ;
#418 = ORIENTED_EDGE ( 'NONE', *, *, #427, .T. ) ;
#419 = LINE ( 'NONE', #1167, #787 ) ;
#420 = CIRCLE ( 'NONE', #884, 1.182716426222757600 ) ;
#421 = CARTESIAN_POINT ( 'NONE',  ( -2.249999999999999100, 0.3656725875381995900, 7.960859378059773800 ) ) ;
#422 = DESIGN_CONTEXT ( 'detailed design', #852, 'design' ) ;
#423 = ORIENTED_EDGE ( 'NONE', *, *, #1014, .F. ) ;
#424 = CARTESIAN_POINT ( 'NONE',  ( 2.249999999999998700, -0.3635484166662323300, 0.02598076211351535800 ) ) ;
#425 = ORIENTED_EDGE ( 'NONE', *, *, #636, .F. ) ;
#426 = DIRECTION ( 'NONE',  ( -0.0000000000000000000, 9.875224244405044000E-017, -1.000000000000000000 ) ) ;
#427 = EDGE_CURVE ( 'NONE', #243, #450, #789, .T. ) ;
#428 = CARTESIAN_POINT ( 'NONE',  ( -2.058749999992246900, -1.409456344663651400, 0.1674308549284698500 ) ) ;
#429 = CARTESIAN_POINT ( 'NONE',  ( 2.058749999999989600, -1.409456344659179500, 0.1674308549306999000 ) ) ;
#430 = CARTESIAN_POINT ( 'NONE',  ( 0.4985920424764214200, -2.310213961413749600, 7.912289710998599900 ) ) ;
#431 = CARTESIAN_POINT ( 'NONE',  ( -0.1912500000077532700, -2.487657972366325700, 7.832569145071530200 ) ) ;
#432 = VERTEX_POINT ( 'NONE', #769 ) ;
#433 = LINE ( 'NONE', #123, #548 ) ;
#434 = EDGE_CURVE ( 'NONE', #269, #899, #964, .T. ) ;
#435 = FACE_OUTER_BOUND ( 'NONE', #741, .T. ) ;
#436 = DIRECTION ( 'NONE',  ( -0.0000000000000000000, 9.875224244405044000E-017, -1.000000000000000000 ) ) ;
#437 = CARTESIAN_POINT ( 'NONE',  ( 0.0000000000000000000, -4.481441770539532500E-016, -0.6367499999999949300 ) ) ;
#438 = DIRECTION ( 'NONE',  ( 0.0000000000000000000, 1.000000000000000000, 9.875224244405044000E-017 ) ) ;
#439 = EDGE_CURVE ( 'NONE', #1157, #442, #559, .T. ) ;
#440 = ORIENTED_EDGE ( 'NONE', *, *, #478, .F. ) ;
#441 = CARTESIAN_POINT ( 'NONE',  ( 2.205000000000000100, -4.627517788746202100E-015, 0.0000000000000000000 ) ) ;
#442 = VERTEX_POINT ( 'NONE', #36 ) ;
#443 = SHAPE_DEFINITION_REPRESENTATION ( #1075, #381 ) ;
#444 = EDGE_CURVE ( 'NONE', #724, #1055, #178, .T. ) ;
#445 = DIRECTION ( 'NONE',  ( -0.0000000000000000000, 9.875224244405044000E-017, -1.000000000000000000 ) ) ;
#446 = ORIENTED_EDGE ( 'NONE', *, *, #434, .T. ) ;
#447 = CIRCLE ( 'NONE', #623, 0.9577164262227575400 ) ;
#448 = CC_DESIGN_SECURITY_CLASSIFICATION ( #186, ( #341 ) ) ;
#449 = DIRECTION ( 'NONE',  ( 0.0000000000000000000, 0.0000000000000000000, 1.000000000000000000 ) ) ;
#450 = VERTEX_POINT ( 'NONE', #297 ) ;
#451 = EDGE_CURVE ( 'NONE', #13, #1136, #729, .T. ) ;
#452 = CARTESIAN_POINT ( 'NONE',  ( -0.9687711178739741900, -2.038755945665644600, 0.02587396801048753200 ) ) ;
#453 = DIRECTION ( 'NONE',  ( 1.000000000000000000, 0.0000000000000000000, 0.0000000000000000000 ) ) ;
#454 = EDGE_CURVE ( 'NONE', #802, #684, #488, .T. ) ;
#455 = DIRECTION ( 'NONE',  ( 0.0000000000000000000, 1.000000000000000000, 9.875224244405042800E-017 ) ) ;
#456 = DIRECTION ( 'NONE',  ( 0.0000000000000000000, 1.000000000000000000, 1.132070143937708100E-016 ) ) ;
#457 = ORIENTED_EDGE ( 'NONE', *, *, #1099, .T. ) ;
#458 = ORIENTED_EDGE ( 'NONE', *, *, #711, .T. ) ;
#459 = CYLINDRICAL_SURFACE ( 'NONE', #680, 0.9577164262227575400 ) ;
#460 = CIRCLE ( 'NONE', #703, 1.475000000000003400 ) ;
#461 = EDGE_CURVE ( 'NONE', #724, #77, #710, .T. ) ;
#462 = CARTESIAN_POINT ( 'NONE',  ( 2.249999999999998700, -1.078201627711648600, 7.832569145069291100 ) ) ;
#463 = ORIENTED_EDGE ( 'NONE', *, *, #921, .F. ) ;
#464 = CARTESIAN_POINT ( 'NONE',  ( -1.867499999999998600, -1.078201627711628400, -6.873863542433758400 ) ) ;
#465 =( GEOMETRIC_REPRESENTATION_CONTEXT ( 3 ) GLOBAL_UNCERTAINTY_ASSIGNED_CONTEXT ( ( #898 ) ) GLOBAL_UNIT_ASSIGNED_CONTEXT ( ( #292, #746, #383 ) ) REPRESENTATION_CONTEXT ( 'NONE', 'WORKASPACE' ) );
#466 = FACE_OUTER_BOUND ( 'NONE', #558, .T. ) ;
#467 = CARTESIAN_POINT ( 'NONE',  ( 2.249999999999997800, -1.144185005067726900, 0.1838936497299143400 ) ) ;
#468 = CARTESIAN_POINT ( 'NONE',  ( 2.249999999999999100, 0.3654769523190590800, 0.03911871921060256600 ) ) ;
#469 = FACE_OUTER_BOUND ( 'NONE', #35, .T. ) ;
#470 = AXIS2_PLACEMENT_3D ( 'NONE', #968, #59, #244 ) ;
#471 = CARTESIAN_POINT ( 'NONE',  ( -1.734723475976807100E-015, -2.156403255423253300, -6.873863542433758400 ) ) ;
#472 = CARTESIAN_POINT ( 'NONE',  ( -2.249999999999999100, 1.078201627711623500, -6.873863542433758400 ) ) ;
#473 = B_SPLINE_CURVE_WITH_KNOTS ( 'NONE', 3,
 ( #111, #493, #288, #198, #842, #1100 ),
 .UNSPECIFIED., .F., .F.,
 ( 4, 2, 4 ),
 ( 0.009448435849117654500, 0.009990993100563339000, 0.01053355035200902400 ),
 .UNSPECIFIED. ) ;
#474 = CARTESIAN_POINT ( 'NONE',  ( -2.249999999999998700, -1.078201627711654200, 7.832569145069291100 ) ) ;
#475 = CARTESIAN_POINT ( 'NONE',  ( -2.249999999999999600, 1.144185005067753300, 0.1838936497298739000 ) ) ;
#476 = ORIENTED_EDGE ( 'NONE', *, *, #1174, .T. ) ;
#477 = PERSON_AND_ORGANIZATION_ROLE ( 'design_supplier' ) ;
#478 = EDGE_CURVE ( 'NONE', #214, #145, #460, .T. ) ;
#479 = CARTESIAN_POINT ( 'NONE',  ( 0.0000000000000000000, -4.336808689942017700E-015, 0.0000000000000000000 ) ) ;
#480 = DIRECTION ( 'NONE',  ( 1.000000000000000000, 0.0000000000000000000, 0.0000000000000000000 ) ) ;
#481 = CARTESIAN_POINT ( 'NONE',  ( 2.249999999999998700, 1.078201627711626200, 7.832569145069296500 ) ) ;
#482 = CC_DESIGN_APPROVAL ( #72, ( #341 ) ) ;
#483 = ORIENTED_EDGE ( 'NONE', *, *, #303, .T. ) ;
#484 = ORIENTED_EDGE ( 'NONE', *, *, #1079, .T. ) ;
#485 = EDGE_LOOP ( 'NONE', ( #418, #203, #169, #523 ) ) ;
#486 = VECTOR ( 'NONE', #205, 1000.000000000000000 ) ;
#487 = DIRECTION ( 'NONE',  ( -0.0000000000000000000, 9.875224244405044000E-017, -1.000000000000000000 ) ) ;
#488 = CIRCLE ( 'NONE', #222, 1.024999999999999000 ) ;
#489 = ORIENTED_EDGE ( 'NONE', *, *, #650, .T. ) ;
#490 = AXIS2_PLACEMENT_3D ( 'NONE', #400, #943, #1029 ) ;
#491 = ADVANCED_FACE ( 'NONE', ( #206 ), #1051, .T. ) ;
#492 = DIRECTION ( 'NONE',  ( 0.0000000000000000000, 1.000000000000000000, 8.490526079532809700E-017 ) ) ;
#493 = CARTESIAN_POINT ( 'NONE',  ( -2.249999999999999100, 0.9030624105551265900, 0.1237337738040356100 ) ) ;
#494 = CARTESIAN_POINT ( 'NONE',  ( -2.249999999999999100, 8.113320553552770500E-014, 0.02598076211244717100 ) ) ;
#495 = CARTESIAN_POINT ( 'NONE',  ( -0.1912500000000003400, 2.487657972370798100, -6.873863542433758400 ) ) ;
#496 = EDGE_LOOP ( 'NONE', ( #913, #425, #76, #570 ) ) ;
#497 = APPROVAL_STATUS ( 'not_yet_approved' ) ;
#498 = B_SPLINE_CURVE_WITH_KNOTS ( 'NONE', 3,
 ( #638, #467, #731, #1087, #1091, #646 ),
 .UNSPECIFIED., .F., .F.,
 ( 4, 2, 4 ),
 ( 1.916751695925690400E-016, 0.0002012759897612289500, 0.0004025519795222662100 ),
 .UNSPECIFIED. ) ;
#499 = VERTEX_POINT ( 'NONE', #887 ) ;
#500 = CARTESIAN_POINT ( 'NONE',  ( 0.1912500000077499200, -2.487657972366325700, 0.1674308549284694000 ) ) ;
#501 = CARTESIAN_POINT ( 'NONE',  ( 2.249999999999998700, 1.078201627711622200, 0.1674308549307038900 ) ) ;
#502 = EDGE_CURVE ( 'NONE', #684, #802, #307, .T. ) ;
#503 = PLANE ( 'NONE',  #567 ) ;
#504 = FACE_OUTER_BOUND ( 'NONE', #108, .T. ) ;
#505 = CARTESIAN_POINT ( 'NONE',  ( 0.0000000000000000000, -1.258909218984051700E-016, -3.899999999999999900 ) ) ;
#506 = VECTOR ( 'NONE', #735, 1000.000000000000000 ) ;
#507 = B_SPLINE_CURVE_WITH_KNOTS ( 'NONE', 3,
 ( #494, #298, #762, #851 ),
 .UNSPECIFIED., .F., .F.,
 ( 4, 4 ),
 ( 0.01053355035200902400, 0.01161989461495913300 ),
 .UNSPECIFIED. ) ;
#508 = ADVANCED_FACE ( 'NONE', ( #1153 ), #216, .F. ) ;
#509 = DIRECTION ( 'NONE',  ( -0.0000000000000000000, 9.875224244405044000E-017, -1.000000000000000000 ) ) ;
#510 = EDGE_CURVE ( 'NONE', #802, #799, #816, .T. ) ;
#511 = AXIS2_PLACEMENT_3D ( 'NONE', #926, #838, #581 ) ;
#512 = ORIENTED_EDGE ( 'NONE', *, *, #902, .T. ) ;
#513 = DIRECTION ( 'NONE',  ( 0.0000000000000000000, 1.000000000000000000, 0.0000000000000000000 ) ) ;
#514 = CARTESIAN_POINT ( 'NONE',  ( -2.249999999999999100, 0.9030580048387529800, 7.876267325418346000 ) ) ;
#515 = CARTESIAN_POINT ( 'NONE',  ( 1.172864355864542600E-016, -0.9577164262227582100, -0.2250000000000000300 ) ) ;
#516 = DIRECTION ( 'NONE',  ( 0.0000000000000000000, 1.000000000000000000, 0.0000000000000000000 ) ) ;
#517 = AXIS2_PLACEMENT_3D ( 'NONE', #264, #730, #456 ) ;
#518 = CARTESIAN_POINT ( 'NONE',  ( 2.058749999992247400, 1.409456344663646800, 0.1674308549284712900 ) ) ;
#519 = EDGE_LOOP ( 'NONE', ( #78, #958, #835, #906 ) ) ;
#520 = ADVANCED_FACE ( 'NONE', ( #241 ), #826, .T. ) ;
#521 = ORIENTED_EDGE ( 'NONE', *, *, #461, .T. ) ;
#522 = CARTESIAN_POINT ( 'NONE',  ( -1.443413851512607100, -1.764720835630478400, 0.02619637318196752300 ) ) ;
#523 = ORIENTED_EDGE ( 'NONE', *, *, #530, .F. ) ;
#524 = CIRCLE ( 'NONE', #793, 1.250000000000000200 ) ;
#525 = CONICAL_SURFACE ( 'NONE', #635, 1.250000000000000700, 0.7853981633974574900 ) ;
#526 = CARTESIAN_POINT ( 'NONE',  ( 0.3443132500722087500, -2.399286863738571800, 7.876666173317352600 ) ) ;
#527 = CARTESIAN_POINT ( 'NONE',  ( 0.3443132500722089200, 2.399286863738569100, 0.1233338266826507900 ) ) ;
#528 = ORIENTED_EDGE ( 'NONE', *, *, #626, .F. ) ;
#529 = CARTESIAN_POINT ( 'NONE',  ( 0.9687711178739725200, -2.038755945665643200, 7.974126031989513300 ) ) ;
#530 = EDGE_CURVE ( 'NONE', #243, #928, #396, .T. ) ;
#531 = ORIENTED_EDGE ( 'NONE', *, *, #461, .F. ) ;
#532 = CARTESIAN_POINT ( 'NONE',  ( 2.058749999999989600, -1.409456344659179500, 0.1674308549306999000 ) ) ;
#533 = CARTESIAN_POINT ( 'NONE',  ( 2.232457603721900600, 1.210965373387892000, 7.807248115923879800 ) ) ;
#534 = CYLINDRICAL_SURFACE ( 'NONE', #972, 0.9577164262227575400 ) ;
#535 = AXIS2_PLACEMENT_3D ( 'NONE', #166, #445, #813 ) ;
#536 = VECTOR ( 'NONE', #219, 1000.000000000000000 ) ;
#537 = CARTESIAN_POINT ( 'NONE',  ( 2.249999999999998700, -0.3637866779806848100, 7.974019237886476900 ) ) ;
#538 = ORIENTED_EDGE ( 'NONE', *, *, #247, .T. ) ;
#539 = DIRECTION ( 'NONE',  ( -0.0000000000000000000, 9.875224244405044000E-017, -1.000000000000000000 ) ) ;
#540 = AXIS2_PLACEMENT_3D ( 'NONE', #332, #966, #438 ) ;
#541 = VERTEX_POINT ( 'NONE', #690 ) ;
#542 = DIRECTION ( 'NONE',  ( 0.0000000000000000000, 1.000000000000000000, 1.132070143937708100E-016 ) ) ;
#543 = ORIENTED_EDGE ( 'NONE', *, *, #977, .T. ) ;
#544 = EDGE_CURVE ( 'NONE', #799, #24, #996, .T. ) ;
#545 = ORIENTED_EDGE ( 'NONE', *, *, #895, .T. ) ;
#546 = CARTESIAN_POINT ( 'NONE',  ( -1.751407957523576600, 1.586900355616223800, 0.08771028900140132000 ) ) ;
#547 = ORIENTED_EDGE ( 'NONE', *, *, #693, .F. ) ;
#548 = VECTOR ( 'NONE', #306, 1000.000000000000000 ) ;
#549 = CYLINDRICAL_SURFACE ( 'NONE', #575, 0.3825000000000000100 ) ;
#550 = CC_DESIGN_APPROVAL ( #592, ( #186 ) ) ;
#551 = CARTESIAN_POINT ( 'NONE',  ( -0.8065861484873917400, 2.132393481399495400, 0.02619637318196996900 ) ) ;
#552 = ORIENTED_EDGE ( 'NONE', *, *, #650, .F. ) ;
#553 = ORIENTED_EDGE ( 'NONE', *, *, #602, .T. ) ;
#554 = CARTESIAN_POINT ( 'NONE',  ( 2.249999999999998700, -1.078201627711626600, -6.873863542433758400 ) ) ;
#555 = ORIENTED_EDGE ( 'NONE', *, *, #147, .F. ) ;
#556 = CARTESIAN_POINT ( 'NONE',  ( -1.867499999999998600, 1.078201627711623500, -6.873863542433758400 ) ) ;
#557 = AXIS2_PLACEMENT_3D ( 'NONE', #437, #601, #618 ) ;
#558 = EDGE_LOOP ( 'NONE', ( #975, #568 ) ) ;
#559 = CIRCLE ( 'NONE', #1002, 1.250000000000000700 ) ;
#560 = EDGE_CURVE ( 'NONE', #442, #214, #153, .T. ) ;
#561 = CARTESIAN_POINT ( 'NONE',  ( -2.058749999992248300, 1.409456344663646100, 7.832569145071528500 ) ) ;
#562 = DIRECTION ( 'NONE',  ( 1.000000000000000000, 0.0000000000000000000, 0.0000000000000000000 ) ) ;
#563 = DIRECTION ( 'NONE',  ( 0.8660254037844397100, 0.0000000000000000000, -0.4999999999999979500 ) ) ;
#564 = DIRECTION ( 'NONE',  ( -0.0000000000000000000, 0.0000000000000000000, 1.000000000000000000 ) ) ;
#565 = EDGE_CURVE ( 'NONE', #684, #24, #327, .T. ) ;
#566 = DIRECTION ( 'NONE',  ( -0.0000000000000000000, 9.875224244405044000E-017, -1.000000000000000000 ) ) ;
#567 = AXIS2_PLACEMENT_3D ( 'NONE', #405, #860, #593 ) ;
#568 = ORIENTED_EDGE ( 'NONE', *, *, #845, .T. ) ;
#569 = LOCAL_TIME ( 12, 47, 8.000000000000000000, #811 ) ;
#570 = ORIENTED_EDGE ( 'NONE', *, *, #626, .T. ) ;
#571 = ORIENTED_EDGE ( 'NONE', *, *, #902, .F. ) ;
#572 = CONICAL_SURFACE ( 'NONE', #279, 1.024999999999999000, 0.7853981633974521600 ) ;
#573 = DATE_TIME_ROLE ( 'classification_date' ) ;
#574 = VECTOR ( 'NONE', #954, 1000.000000000000100 ) ;
#575 = AXIS2_PLACEMENT_3D ( 'NONE', #356, #1168, #1181 ) ;
#576 = CARTESIAN_POINT ( 'NONE',  ( 2.249999999999998700, 3.707104213746224600E-014, 7.974019237887008900 ) ) ;
#577 = ORIENTED_EDGE ( 'NONE', *, *, #602, .F. ) ;
#578 = VERTEX_POINT ( 'NONE', #308 ) ;
#579 = CARTESIAN_POINT ( 'NONE',  ( 0.1912500000077510800, 2.487657972366321700, 7.832569145071528500 ) ) ;
#580 = ORIENTED_EDGE ( 'NONE', *, *, #510, .T. ) ;
#581 = DIRECTION ( 'NONE',  ( 1.000000000000000000, 0.0000000000000000000, 0.0000000000000000000 ) ) ;
#582 = EDGE_CURVE ( 'NONE', #53, #187, #420, .T. ) ;
#583 = DIRECTION ( 'NONE',  ( -0.0000000000000000000, 9.875224244405044000E-017, -1.000000000000000000 ) ) ;
#584 = DIRECTION ( 'NONE',  ( 0.0000000000000000000, 1.000000000000000000, 0.0000000000000000000 ) ) ;
#585 = CARTESIAN_POINT ( 'NONE',  ( 2.249999999999998700, 0.7258267716362963900, 7.911844824867579900 ) ) ;
#586 = CARTESIAN_POINT ( 'NONE',  ( 0.0000000000000000000, -8.492510978010747200E-016, 3.425000000000001200 ) ) ;
#587 = CONICAL_SURFACE ( 'NONE', #257, 1.024999999999999000, 0.7853981633974521600 ) ;
#588 = CARTESIAN_POINT ( 'NONE',  ( -2.249999999999999100, 1.299038105676655600, -6.873863542433758400 ) ) ;
#589 = VECTOR ( 'NONE', #404, 1000.000000000000100 ) ;
#590 = CARTESIAN_POINT ( 'NONE',  ( -0.1912500000000085500, 2.487657972370793200, 7.832569145069298200 ) ) ;
#591 = CARTESIAN_POINT ( 'NONE',  ( -2.249999999999999100, 1.078201627711622200, 7.832569145069296500 ) ) ;
#592 = APPROVAL ( #1104, 'UNSPECIFIED' ) ;
#593 = DIRECTION ( 'NONE',  ( 0.8660254037844384900, -0.5000000000000003300, 0.0000000000000000000 ) ) ;
#594 = ORIENTED_EDGE ( 'NONE', *, *, #510, .F. ) ;
#595 = ORIENTED_EDGE ( 'NONE', *, *, #247, .F. ) ;
#596 = CARTESIAN_POINT ( 'NONE',  ( 0.0000000000000000000, -1.258909218984051700E-016, -3.899999999999999900 ) ) ;
#597 = DIRECTION ( 'NONE',  ( -0.0000000000000000000, 9.875224244405044000E-017, -1.000000000000000000 ) ) ;
#598 = CARTESIAN_POINT ( 'NONE',  ( 2.249999999999998700, 1.078201627711622200, 0.1674308549307038900 ) ) ;
#599 = CARTESIAN_POINT ( 'NONE',  ( 0.1340913449730349900, -2.520658537237137100, 7.816101921067743600 ) ) ;
#600 = DIRECTION ( 'NONE',  ( -0.0000000000000000000, -0.0000000000000000000, -1.000000000000000000 ) ) ;
#601 = DIRECTION ( 'NONE',  ( -0.0000000000000000000, 9.875224244405044000E-017, -1.000000000000000000 ) ) ;
#602 = EDGE_CURVE ( 'NONE', #990, #342, #858, .T. ) ;
#603 = CARTESIAN_POINT ( 'NONE',  ( 1.753246730713071700, 1.585838739420290000, 0.07941634923340341900 ) ) ;
#604 = EDGE_LOOP ( 'NONE', ( #310, #1171, #829, #688 ) ) ;
#605 = CARTESIAN_POINT ( 'NONE',  ( 0.8065861484873914100, 2.132393481399494500, 7.973803626818035000 ) ) ;
#606 = ORIENTED_EDGE ( 'NONE', *, *, #693, .T. ) ;
#607 = FACE_OUTER_BOUND ( 'NONE', #238, .T. ) ;
#608 = DIRECTION ( 'NONE',  ( 0.0000000000000000000, -1.000000000000000000, 0.0000000000000000000 ) ) ;
#609 = B_SPLINE_CURVE_WITH_KNOTS ( 'NONE', 3,
 ( #697, #228, #151, #131, #801, #1053, #333, #779 ),
 .UNSPECIFIED., .F., .F.,
 ( 4, 2, 2, 4 ),
 ( 0.0002272936175608550100, 0.001312383105340146600, 0.001854927849229792100, 0.002397472593119437600 ),
 .UNSPECIFIED. ) ;
#610 = VECTOR ( 'NONE', #989, 1000.000000000000100 ) ;
#611 = DIRECTION ( 'NONE',  ( 0.0000000000000000000, 1.000000000000000000, 8.673617379884036700E-017 ) ) ;
#612 = EDGE_CURVE ( 'NONE', #262, #176, #923, .T. ) ;
#613 = ORIENTED_EDGE ( 'NONE', *, *, #70, .F. ) ;
#614 = DIRECTION ( 'NONE',  ( 0.0000000000000000000, -9.875224244405044000E-017, 1.000000000000000000 ) ) ;
#615 = EDGE_LOOP ( 'NONE', ( #258, #643, #797, #528 ) ) ;
#616 = CARTESIAN_POINT ( 'NONE',  ( -2.058749999999990500, -1.409456344659180600, 7.832569145069300000 ) ) ;
#617 = DIRECTION ( 'NONE',  ( -0.0000000000000000000, 9.875224244405044000E-017, -1.000000000000000000 ) ) ;
#618 = DIRECTION ( 'NONE',  ( 0.0000000000000000000, 1.000000000000000000, 8.673617379884036700E-017 ) ) ;
#619 = AXIS2_PLACEMENT_3D ( 'NONE', #394, #597, #513 ) ;
#620 = VERTEX_POINT ( 'NONE', #591 ) ;
#621 = CIRCLE ( 'NONE', #736, 1.249999999999998000 ) ;
#622 = CARTESIAN_POINT ( 'NONE',  ( 2.249999999999998700, 1.144185005067752400, 7.816106350270123600 ) ) ;
#623 = AXIS2_PLACEMENT_3D ( 'NONE', #1172, #539, #542 ) ;
#624 = EDGE_LOOP ( 'NONE', ( #818, #384, #819, #289 ) ) ;
#625 = CARTESIAN_POINT ( 'NONE',  ( 2.249999999999998700, -0.7232985748260177800, 7.921117145601617600 ) ) ;
#626 = EDGE_CURVE ( 'NONE', #810, #928, #621, .T. ) ;
#627 = ORIENTED_EDGE ( 'NONE', *, *, #229, .T. ) ;
#628 = DATE_AND_TIME ( #871, #569 ) ;
#629 = ORIENTED_EDGE ( 'NONE', *, *, #369, .F. ) ;
#630 = LOCAL_TIME ( 12, 47, 8.000000000000000000, #652 ) ;
#631 = VECTOR ( 'NONE', #600, 1000.000000000000000 ) ;
#632 = CARTESIAN_POINT ( 'NONE',  ( 0.0000000000000000000, -1.249999999999998200, -3.674999999999999400 ) ) ;
#633 = VERTEX_POINT ( 'NONE', #501 ) ;
#634 = ORIENTED_EDGE ( 'NONE', *, *, #478, .T. ) ;
#635 = AXIS2_PLACEMENT_3D ( 'NONE', #1027, #766, #301 ) ;
#636 = EDGE_CURVE ( 'NONE', #71, #82, #1117, .T. ) ;
#637 = FACE_OUTER_BOUND ( 'NONE', #1115, .T. ) ;
#638 = CARTESIAN_POINT ( 'NONE',  ( 2.249999999999998700, -1.078201627711823600, 0.1674308549307519900 ) ) ;
#639 = FACE_OUTER_BOUND ( 'NONE', #912, .T. ) ;
#640 = CONICAL_SURFACE ( 'NONE', #557, 1.249999999999999800, 1.047197551196602300 ) ;
#641 = ORIENTED_EDGE ( 'NONE', *, *, #127, .F. ) ;
#642 = ORIENTED_EDGE ( 'NONE', *, *, #180, .F. ) ;
#643 = ORIENTED_EDGE ( 'NONE', *, *, #890, .T. ) ;
#644 = DIRECTION ( 'NONE',  ( 0.0000000000000000000, 1.000000000000000000, 8.673617379884036700E-017 ) ) ;
#645 = CARTESIAN_POINT ( 'NONE',  ( -0.1340913449730387300, -2.520658537237137100, 0.1838980789322551800 ) ) ;
#646 = CARTESIAN_POINT ( 'NONE',  ( 2.058749999999989600, -1.409456344659179500, 0.1674308549306999000 ) ) ;
#647 = ORIENTED_EDGE ( 'NONE', *, *, #927, .T. ) ;
#648 = EDGE_LOOP ( 'NONE', ( #654, #916 ) ) ;
#649 = CIRCLE ( 'NONE', #470, 2.205000000000000100 ) ;
#650 = EDGE_CURVE ( 'NONE', #1157, #24, #1098, .T. ) ;
#651 = CARTESIAN_POINT ( 'NONE',  ( -2.250000000000000000, 1.144202757444291900, 7.816101921067745400 ) ) ;
#652 = COORDINATED_UNIVERSAL_TIME_OFFSET ( 6, 0, .BEHIND. ) ;
#653 = CARTESIAN_POINT ( 'NONE',  ( 2.058749999999990500, 1.409456344659175900, 7.832569145069298200 ) ) ;
#654 = ORIENTED_EDGE ( 'NONE', *, *, #454, .F. ) ;
#655 = B_SPLINE_CURVE_WITH_KNOTS ( 'NONE', 3,
 ( #380, #475, #1012, #1182, #1101, #1188 ),
 .UNSPECIFIED., .F., .F.,
 ( 4, 2, 4 ),
 ( 8.778858033695852700E-019, 0.0002012759897611342200, 0.0004025519795222675700 ),
 .UNSPECIFIED. ) ;
#656 = CARTESIAN_POINT ( 'NONE',  ( 0.0000000000000000000, 0.9577164262227571000, -0.4679999999999999700 ) ) ;
#657 = ADVANCED_FACE ( 'NONE', ( #90 ), #80, .F. ) ;
#658 = ORIENTED_EDGE ( 'NONE', *, *, #1073, .F. ) ;
#659 = EDGE_CURVE ( 'NONE', #442, #1157, #379, .T. ) ;
#660 = CARTESIAN_POINT ( 'NONE',  ( 2.249999999999998700, 0.1816880903466449900, 7.974019237886462700 ) ) ;
#661 = AXIS2_PLACEMENT_3D ( 'NONE', #355, #91, #999 ) ;
#662 = B_SPLINE_CURVE_WITH_KNOTS ( 'NONE', 3,
 ( #879, #1143, #233, #529, #337, #430, #526, #707 ),
 .UNSPECIFIED., .F., .F.,
 ( 4, 2, 2, 4 ),
 ( 0.0002272936175608555000, 0.001312383105340146400, 0.001854927849229791400, 0.002397472593119437100 ),
 .UNSPECIFIED. ) ;
#663 = DIRECTION ( 'NONE',  ( 1.000000000000000000, 0.0000000000000000000, 0.0000000000000000000 ) ) ;
#664 = DIRECTION ( 'NONE',  ( -0.0000000000000000000, 9.875224244405044000E-017, -1.000000000000000000 ) ) ;
#665 = ORIENTED_EDGE ( 'NONE', *, *, #65, .T. ) ;
#666 = FACE_OUTER_BOUND ( 'NONE', #888, .T. ) ;
#667 = VECTOR ( 'NONE', #329, 1000.000000000000000 ) ;
#668 = DIRECTION ( 'NONE',  ( 0.0000000000000000000, 1.000000000000000000, 8.490526079532809700E-017 ) ) ;
#669 = EDGE_CURVE ( 'NONE', #342, #743, #281, .T. ) ;
#670 = CARTESIAN_POINT ( 'NONE',  ( 0.0000000000000000000, 1.182716426222757000, -5.318272709264754100E-017 ) ) ;
#671 = DIRECTION ( 'NONE',  ( -0.5000000000000004400, 0.8660254037844383700, 0.0000000000000000000 ) ) ;
#672 = CARTESIAN_POINT ( 'NONE',  ( -0.1340913449730364900, 2.520658537237133500, 7.816101921067741800 ) ) ;
#673 = ORIENTED_EDGE ( 'NONE', *, *, #1178, .F. ) ;
#674 = DIRECTION ( 'NONE',  ( 0.0000000000000000000, -0.7071067811865541200, 0.7071067811865409100 ) ) ;
#675 = ADVANCED_FACE ( 'NONE', ( #771 ), #459, .T. ) ;
#676 = ORIENTED_EDGE ( 'NONE', *, *, #764, .F. ) ;
#677 = DIRECTION ( 'NONE',  ( -0.0000000000000000000, 9.875224244405044000E-017, -1.000000000000000000 ) ) ;
#678 = ORIENTED_EDGE ( 'NONE', *, *, #1090, .F. ) ;
#679 = DIRECTION ( 'NONE',  ( 0.0000000000000000000, 1.000000000000000000, 9.875224244405044000E-017 ) ) ;
#680 = AXIS2_PLACEMENT_3D ( 'NONE', #339, #436, #516 ) ;
#681 = DIRECTION ( 'NONE',  ( -1.000000000000000000, 0.0000000000000000000, 0.0000000000000000000 ) ) ;
#682 = CARTESIAN_POINT ( 'NONE',  ( 0.0000000000000000000, -8.270318432511634300E-016, 3.200000000000001500 ) ) ;
#683 = CARTESIAN_POINT ( 'NONE',  ( 2.058749999999990500, 1.409456344659175900, 7.832569145069298200 ) ) ;
#684 = VERTEX_POINT ( 'NONE', #1142 ) ;
#685 = B_SPLINE_CURVE_WITH_KNOTS ( 'NONE', 3,
 ( #142, #622, #533, #878, #1155, #1050 ),
 .UNSPECIFIED., .F., .F.,
 ( 4, 2, 4 ),
 ( 2.424349759030540200E-018, 0.0002012759897611343300, 0.0004025519795222662600 ),
 .UNSPECIFIED. ) ;
#686 = DATE_AND_TIME ( #150, #359 ) ;
#687 = DIRECTION ( 'NONE',  ( -0.0000000000000000000, 9.875224244405044000E-017, -1.000000000000000000 ) ) ;
#688 = ORIENTED_EDGE ( 'NONE', *, *, #251, .F. ) ;
#689 = LINE ( 'NONE', #361, #38 ) ;
#690 = CARTESIAN_POINT ( 'NONE',  ( -2.249999999999998700, -1.078201627711825600, 0.1674308549307524400 ) ) ;
#691 = ADVANCED_FACE ( 'NONE', ( #138 ), #250, .T. ) ;
#692 = CARTESIAN_POINT ( 'NONE',  ( 1.172864355864542400E-016, -0.9577164262227576600, -3.899999999999999900 ) ) ;
#693 = EDGE_CURVE ( 'NONE', #751, #578, #649, .T. ) ;
#694 = CARTESIAN_POINT ( 'NONE',  ( -2.115893281016565800, -1.376464655981882700, 0.1838936497272547500 ) ) ;
#695 = CC_DESIGN_DATE_AND_TIME_ASSIGNMENT ( #686, #201, ( #1067 ) ) ;
#696 = ORIENTED_EDGE ( 'NONE', *, *, #351, .T. ) ;
#697 = CARTESIAN_POINT ( 'NONE',  ( -2.058749999992248300, 1.409456344663646100, 7.832569145071528500 ) ) ;
#698 = CARTESIAN_POINT ( 'NONE',  ( -1.753246730713071200, -1.585838739420294600, 0.07941634923340187800 ) ) ;
#699 = ORIENTED_EDGE ( 'NONE', *, *, #659, .F. ) ;
#700 = ADVANCED_FACE ( 'NONE', ( #815, #739 ), #336, .F. ) ;
#701 = EDGE_LOOP ( 'NONE', ( #120, #606 ) ) ;
#702 = CARTESIAN_POINT ( 'NONE',  ( 2.249999999999998700, 8.085766050654802200E-014, 0.02598076211244704600 ) ) ;
#703 = AXIS2_PLACEMENT_3D ( 'NONE', #103, #993, #265 ) ;
#704 = EDGE_LOOP ( 'NONE', ( #484, #193 ) ) ;
#705 = CARTESIAN_POINT ( 'NONE',  ( 0.0000000000000000000, -1.278823352432694100E-015, 7.775000000000001200 ) ) ;
#706 = LOCAL_TIME ( 12, 47, 8.000000000000000000, #1081 ) ;
#707 = CARTESIAN_POINT ( 'NONE',  ( 0.1912500000000071100, -2.487657972370796300, 7.832569145069300000 ) ) ;
#708 = ORIENTED_EDGE ( 'NONE', *, *, #391, .F. ) ;
#709 = CYLINDRICAL_SURFACE ( 'NONE', #773, 1.250000000000000400 ) ;
#710 = CIRCLE ( 'NONE', #4, 0.9577164262227575400 ) ;
#711 = EDGE_CURVE ( 'NONE', #211, #1077, #748, .T. ) ;
#712 = ORIENTED_EDGE ( 'NONE', *, *, #325, .T. ) ;
#713 = CARTESIAN_POINT ( 'NONE',  ( 0.8065861484873899600, -2.132393481399497600, 0.02619637318196666600 ) ) ;
#714 = ORIENTED_EDGE ( 'NONE', *, *, #1147, .T. ) ;
#715 = VECTOR ( 'NONE', #2, 1000.000000000000000 ) ;
#716 = CARTESIAN_POINT ( 'NONE',  ( -0.4967532692869273700, 2.311275577609679800, 0.07941634923340450100 ) ) ;
#717 = VECTOR ( 'NONE', #1176, 1000.000000000000000 ) ;
#718 = CARTESIAN_POINT ( 'NONE',  ( -2.058749999999989600, 1.409456344659176800, 0.1674308549307019500 ) ) ;
#719 = EDGE_LOOP ( 'NONE', ( #795, #555, #891, #124 ) ) ;
#720 = AXIS2_PLACEMENT_3D ( 'NONE', #556, #821, #992 ) ;
#721 = ORIENTED_EDGE ( 'NONE', *, *, #872, .T. ) ;
#722 = EDGE_CURVE ( 'NONE', #1103, #176, #685, .T. ) ;
#723 = CARTESIAN_POINT ( 'NONE',  ( 0.0000000000000000000, -1.258909218984052000E-016, -3.899999999999999500 ) ) ;
#724 = VERTEX_POINT ( 'NONE', #154 ) ;
#725 = AXIS2_PLACEMENT_3D ( 'NONE', #268, #566, #644 ) ;
#726 = VERTEX_POINT ( 'NONE', #1159 ) ;
#727 = ORIENTED_EDGE ( 'NONE', *, *, #147, .T. ) ;
#728 = LINE ( 'NONE', #850, #486 ) ;
#729 = LINE ( 'NONE', #950, #340 ) ;
#730 = DIRECTION ( 'NONE',  ( -0.0000000000000000000, 9.875224244405044000E-017, -1.000000000000000000 ) ) ;
#731 = CARTESIAN_POINT ( 'NONE',  ( 2.232457603721849500, -1.210965373388019500, 0.1927518840761291200 ) ) ;
#732 = DIRECTION ( 'NONE',  ( -0.0000000000000000000, 9.875224244405044000E-017, -1.000000000000000000 ) ) ;
#733 = EDGE_CURVE ( 'NONE', #1133, #366, #1009, .T. ) ;
#734 = ORIENTED_EDGE ( 'NONE', *, *, #991, .T. ) ;
#735 = DIRECTION ( 'NONE',  ( -0.0000000000000000000, -0.0000000000000000000, -1.000000000000000000 ) ) ;
#736 = AXIS2_PLACEMENT_3D ( 'NONE', #1129, #861, #944 ) ;
#737 = FACE_OUTER_BOUND ( 'NONE', #330, .T. ) ;
#738 = CARTESIAN_POINT ( 'NONE',  ( 2.058749999992247400, 1.409456344663646800, 0.1674308549284712900 ) ) ;
#739 = FACE_OUTER_BOUND ( 'NONE', #704, .T. ) ;
#740 = DIRECTION ( 'NONE',  ( 0.0000000000000000000, 1.000000000000000000, 0.0000000000000000000 ) ) ;
#741 = EDGE_LOOP ( 'NONE', ( #1150, #1105, #440, #212 ) ) ;
#742 = EDGE_CURVE ( 'NONE', #633, #1103, #277, .T. ) ;
#743 = VERTEX_POINT ( 'NONE', #64 ) ;
#744 = CARTESIAN_POINT ( 'NONE',  ( 2.249999999999999600, 0.1815684368585910300, 0.02598076211354063300 ) ) ;
#745 = AXIS2_PLACEMENT_3D ( 'NONE', #370, #388, #302 ) ;
#746 =( NAMED_UNIT ( * ) PLANE_ANGLE_UNIT ( ) SI_UNIT ( $, .RADIAN. ) );
#747 = CARTESIAN_POINT ( 'NONE',  ( 0.0000000000000000000, -8.270318432511634300E-016, 3.200000000000001500 ) ) ;
#748 = B_SPLINE_CURVE_WITH_KNOTS ( 'NONE', 3,
 ( #1061, #146, #424, #702 ),
 .UNSPECIFIED., .F., .F.,
 ( 4, 4 ),
 ( 0.01322193005464988200, 0.01428862027923400600 ),
 .UNSPECIFIED. ) ;
#749 = CARTESIAN_POINT ( 'NONE',  ( -2.249999999999999100, 3.679549628130195000E-014, 7.974019237887008900 ) ) ;
#750 = CARTESIAN_POINT ( 'NONE',  ( 1.448409885672697100E-016, -1.182716426222758300, -9.905553110066175800E-017 ) ) ;
#751 = VERTEX_POINT ( 'NONE', #441 ) ;
#752 = CARTESIAN_POINT ( 'NONE',  ( 0.0000000000000000000, -4.336808689942017700E-015, 0.0000000000000000000 ) ) ;
#753 = ORIENTED_EDGE ( 'NONE', *, *, #565, .T. ) ;
#754 = ORIENTED_EDGE ( 'NONE', *, *, #669, .T. ) ;
#755 = VECTOR ( 'NONE', #87, 1000.000000000000000 ) ;
#756 = AXIS2_PLACEMENT_3D ( 'NONE', #479, #772, #759 ) ;
#757 = CARTESIAN_POINT ( 'NONE',  ( 2.249999999999998700, 8.085766050654802200E-014, 0.02598076211244704600 ) ) ;
#758 = LINE ( 'NONE', #1060, #667 ) ;
#759 = DIRECTION ( 'NONE',  ( -1.000000000000000000, 0.0000000000000000000, 0.0000000000000000000 ) ) ;
#760 = ORIENTED_EDGE ( 'NONE', *, *, #1062, .F. ) ;
#761 = PLANE ( 'NONE',  #780 ) ;
#762 = CARTESIAN_POINT ( 'NONE',  ( -2.249999999999998700, -0.7237206574589496500, 0.07898816364521361900 ) ) ;
#763 = ORIENTED_EDGE ( 'NONE', *, *, #807, .F. ) ;
#764 = EDGE_CURVE ( 'NONE', #1055, #1126, #447, .T. ) ;
#765 = CARTESIAN_POINT ( 'NONE',  ( 1.530808498934192100E-016, 1.249999999999999300, 3.425000000000001200 ) ) ;
#766 = DIRECTION ( 'NONE',  ( 0.0000000000000000000, -9.875224244405044000E-017, 1.000000000000000000 ) ) ;
#767 = CARTESIAN_POINT ( 'NONE',  ( -2.249999999999998700, -1.144185005067753800, 7.816106350270121800 ) ) ;
#768 = B_SPLINE_CURVE_WITH_KNOTS ( 'NONE', 3,
 ( #248, #537, #625, #157 ),
 .UNSPECIFIED., .F., .F.,
 ( 4, 4 ),
 ( 0.01036464467543221100, 0.01145103230384891300 ),
 .UNSPECIFIED. ) ;
#769 = CARTESIAN_POINT ( 'NONE',  ( 2.249999999999998700, 3.707104213746224600E-014, 7.974019237887008900 ) ) ;
#770 = CONICAL_SURFACE ( 'NONE', #1056, 2.205000000000000100, 1.047197551196600100 ) ;
#771 = FACE_OUTER_BOUND ( 'NONE', #144, .T. ) ;
#772 = DIRECTION ( 'NONE',  ( 0.0000000000000000000, 0.0000000000000000000, 1.000000000000000000 ) ) ;
#773 = AXIS2_PLACEMENT_3D ( 'NONE', #10, #677, #584 ) ;
#774 = DIRECTION ( 'NONE',  ( 0.0000000000000000000, 1.000000000000000000, 9.875224244405046500E-017 ) ) ;
#775 = CALENDAR_DATE ( 2022, 9, 12 ) ;
#776 = CARTESIAN_POINT ( 'NONE',  ( 0.0000000000000000000, -1.258909218984052000E-016, -3.899999999999999500 ) ) ;
#777 = CARTESIAN_POINT ( 'NONE',  ( 0.0000000000000000000, 0.9577164262227574300, -3.899999999999999900 ) ) ;
#778 = DIRECTION ( 'NONE',  ( -0.0000000000000000000, 9.875224244405044000E-017, -1.000000000000000000 ) ) ;
#779 = CARTESIAN_POINT ( 'NONE',  ( -0.1912500000000085500, 2.487657972370793200, 7.832569145069298200 ) ) ;
#780 = AXIS2_PLACEMENT_3D ( 'NONE', #670, #509, #1041 ) ;
#781 = CARTESIAN_POINT ( 'NONE',  ( 0.0000000000000000000, 1.182716426222757000, 1.261605854127993800E-016 ) ) ;
#782 = ADVANCED_FACE ( 'NONE', ( #900 ), #572, .F. ) ;
#783 = CARTESIAN_POINT ( 'NONE',  ( 2.058749999992247400, 1.409456344663646800, 0.1674308549284712900 ) ) ;
#784 = ORIENTED_EDGE ( 'NONE', *, *, #229, .F. ) ;
#785 = EDGE_LOOP ( 'NONE', ( #976, #295, #489, #132 ) ) ;
#786 = VERTEX_POINT ( 'NONE', #161 ) ;
#787 = VECTOR ( 'NONE', #172, 1000.000000000000000 ) ;
#788 = CARTESIAN_POINT ( 'NONE',  ( 0.4967532692869262600, -2.311275577609682900, 0.07941634923340122600 ) ) ;
#789 = CIRCLE ( 'NONE', #817, 1.249999999999999800 ) ;
#790 = CARTESIAN_POINT ( 'NONE',  ( -2.249999999999999100, 0.7258267716362936100, 7.911844824867576300 ) ) ;
#791 = EDGE_CURVE ( 'NONE', #269, #980, #239, .T. ) ;
#792 = CARTESIAN_POINT ( 'NONE',  ( -2.249999999999998700, -1.078201627711825600, 0.1674308549307524400 ) ) ;
#793 = AXIS2_PLACEMENT_3D ( 'NONE', #1, #820, #740 ) ;
#794 = ADVANCED_FACE ( 'NONE', ( #79 ), #1163, .T. ) ;
#795 = ORIENTED_EDGE ( 'NONE', *, *, #165, .F. ) ;
#796 = DIRECTION ( 'NONE',  ( -0.0000000000000000000, 0.0000000000000000000, 1.000000000000000000 ) ) ;
#797 = ORIENTED_EDGE ( 'NONE', *, *, #530, .T. ) ;
#798 = CARTESIAN_POINT ( 'NONE',  ( -2.058749999992246900, -1.409456344663651400, 0.1674308549284698500 ) ) ;
#799 = VERTEX_POINT ( 'NONE', #345 ) ;
#800 = CARTESIAN_POINT ( 'NONE',  ( -0.1912500000077516900, 2.487657972366322600, 0.1674308549284724300 ) ) ;
#801 = CARTESIAN_POINT ( 'NONE',  ( -0.8103714275345694800, 2.130208049522648700, 7.961077762676606700 ) ) ;
#802 = VERTEX_POINT ( 'NONE', #978 ) ;
#803 = CIRCLE ( 'NONE', #517, 0.9577164262227575400 ) ;
#804 = CARTESIAN_POINT ( 'NONE',  ( 0.1912500000077499200, -2.487657972366325700, 0.1674308549284694000 ) ) ;
#805 = AXIS2_PLACEMENT_3D ( 'NONE', #273, #362, #81 ) ;
#806 = CARTESIAN_POINT ( 'NONE',  ( 0.0000000000000000000, 2.156403255423249700, -6.873863542433758400 ) ) ;
#807 = EDGE_CURVE ( 'NONE', #342, #7, #8, .T. ) ;
#808 = CARTESIAN_POINT ( 'NONE',  ( 0.0000000000000000000, -8.270318432511634300E-016, 3.200000000000001500 ) ) ;
#809 = CC_DESIGN_DATE_AND_TIME_ASSIGNMENT ( #1046, #573, ( #186 ) ) ;
#810 = VERTEX_POINT ( 'NONE', #632 ) ;
#811 = COORDINATED_UNIVERSAL_TIME_OFFSET ( 6, 0, .BEHIND. ) ;
#812 = ORIENTED_EDGE ( 'NONE', *, *, #960, .F. ) ;
#813 = DIRECTION ( 'NONE',  ( 0.0000000000000000000, 1.000000000000000000, 9.875224244405042800E-017 ) ) ;
#814 = ORIENTED_EDGE ( 'NONE', *, *, #582, .T. ) ;
#815 = FACE_BOUND ( 'NONE', #348, .T. ) ;
#816 = LINE ( 'NONE', #1024, #574 ) ;
#817 = AXIS2_PLACEMENT_3D ( 'NONE', #209, #118, #218 ) ;
#818 = ORIENTED_EDGE ( 'NONE', *, *, #1147, .F. ) ;
#819 = ORIENTED_EDGE ( 'NONE', *, *, #1062, .T. ) ;
#820 = DIRECTION ( 'NONE',  ( -0.0000000000000000000, 9.875224244405044000E-017, -1.000000000000000000 ) ) ;
#821 = DIRECTION ( 'NONE',  ( 0.0000000000000000000, 0.0000000000000000000, 1.000000000000000000 ) ) ;
#822 = EDGE_CURVE ( 'NONE', #366, #1058, #419, .T. ) ;
#823 = CARTESIAN_POINT ( 'NONE',  ( -2.164955578321496000, 1.327882310996641600, 7.807248115923526300 ) ) ;
#824 = CONICAL_SURFACE ( 'NONE', #140, 2.205000000000000100, 1.047197551196600100 ) ;
#825 = ORGANIZATION ( 'UNSPECIFIED', 'UNSPECIFIED', '' ) ;
#826 = CONICAL_SURFACE ( 'NONE', #855, 1.024999999999997000, 0.7853981633974507200 ) ;
#827 = DIRECTION ( 'NONE',  ( 1.000000000000000000, 0.0000000000000000000, 0.0000000000000000000 ) ) ;
#828 = CARTESIAN_POINT ( 'NONE',  ( 2.249999999999999100, 0.7257999078343845300, 0.08814680016220502500 ) ) ;
#829 = ORIENTED_EDGE ( 'NONE', *, *, #560, .T. ) ;
#830 = DIRECTION ( 'NONE',  ( 0.0000000000000000000, -1.000000000000000000, 0.0000000000000000000 ) ) ;
#831 = PLANE ( 'NONE',  #745 ) ;
#832 = AXIS2_PLACEMENT_3D ( 'NONE', #1113, #664, #27 ) ;
#833 = ORIENTED_EDGE ( 'NONE', *, *, #180, .T. ) ;
#834 = DIRECTION ( 'NONE',  ( -0.8660254037844383700, -0.5000000000000004400, 0.0000000000000000000 ) ) ;
#835 = ORIENTED_EDGE ( 'NONE', *, *, #895, .F. ) ;
#836 = VECTOR ( 'NONE', #1003, 1000.000000000000000 ) ;
#837 = ADVANCED_FACE ( 'NONE', ( #163 ), #951, .F. ) ;
#838 = DIRECTION ( 'NONE',  ( 0.0000000000000000000, 0.0000000000000000000, 1.000000000000000000 ) ) ;
#839 = FACE_OUTER_BOUND ( 'NONE', #155, .T. ) ;
#840 = DIRECTION ( 'NONE',  ( 0.0000000000000000000, -1.000000000000000000, 0.0000000000000000000 ) ) ;
#841 = B_SPLINE_CURVE_WITH_KNOTS ( 'NONE', 3,
 ( #431, #40, #128, #1057, #414, #1040, #1148, #616 ),
 .UNSPECIFIED., .F., .F.,
 ( 4, 2, 2, 4 ),
 ( 0.0002272936175608565900, 0.001312383105340146000, 0.001854927849229790800, 0.002397472593119435400 ),
 .UNSPECIFIED. ) ;
#842 = CARTESIAN_POINT ( 'NONE',  ( -2.249999999999999100, 0.1815684368585910000, 0.02598076211354075800 ) ) ;
#843 = CARTESIAN_POINT ( 'NONE',  ( 0.1912500000077499200, -2.487657972366325700, 0.1674308549284694000 ) ) ;
#844 = ORIENTED_EDGE ( 'NONE', *, *, #117, .T. ) ;
#845 = EDGE_CURVE ( 'NONE', #82, #71, #1049, .T. ) ;
#846 = CARTESIAN_POINT ( 'NONE',  ( 0.0000000000000000000, -2.734144733198826900E-015, 8.000000000000000000 ) ) ;
#847 = CARTESIAN_POINT ( 'NONE',  ( 0.0000000000000000000, -1.258909218984051700E-016, -3.899999999999999900 ) ) ;
#848 = AXIS2_PLACEMENT_3D ( 'NONE', #864, #920, #17 ) ;
#849 = CARTESIAN_POINT ( 'NONE',  ( 0.0000000000000000000, -4.888054128802905000E-016, -0.2249999999999999500 ) ) ;
#850 = CARTESIAN_POINT ( 'NONE',  ( 0.0000000000000000000, 1.249999999999999300, -0.6367499999999948200 ) ) ;
#851 = CARTESIAN_POINT ( 'NONE',  ( -2.249999999999998700, -1.078201627711825600, 0.1674308549307524400 ) ) ;
#852 = APPLICATION_CONTEXT ( 'configuration controlled 3d designs of mechanical parts and assemblies' ) ;
#853 = FACE_OUTER_BOUND ( 'NONE', #894, .T. ) ;
#854 = CIRCLE ( 'NONE', #848, 1.182716426222757600 ) ;
#855 = AXIS2_PLACEMENT_3D ( 'NONE', #137, #47, #44 ) ;
#856 = CARTESIAN_POINT ( 'NONE',  ( 0.06687076361143780300, -2.538958566004968300, 7.807193742990294000 ) ) ;
#857 = CARTESIAN_POINT ( 'NONE',  ( -2.058749999999990500, -1.409456344659180600, 7.832569145069300000 ) ) ;
#858 = LINE ( 'NONE', #495, #631 ) ;
#859 = CARTESIAN_POINT ( 'NONE',  ( 1.530808498934192600E-016, 1.249999999999999300, 7.775000000000001200 ) ) ;
#860 = DIRECTION ( 'NONE',  ( -0.5000000000000003300, -0.8660254037844384900, 0.0000000000000000000 ) ) ;
#861 = DIRECTION ( 'NONE',  ( -0.0000000000000000000, 9.875224244405044000E-017, -1.000000000000000000 ) ) ;
#862 = AXIS2_PLACEMENT_3D ( 'NONE', #368, #280, #830 ) ;
#863 = DIRECTION ( 'NONE',  ( 0.0000000000000000000, 1.000000000000000000, 0.0000000000000000000 ) ) ;
#864 = CARTESIAN_POINT ( 'NONE',  ( 0.0000000000000000000, -5.110246674302018000E-016, 0.0000000000000000000 ) ) ;
#865 = DIRECTION ( 'NONE',  ( 1.060575238724909600E-016, -0.8660254037844409300, -0.4999999999999961100 ) ) ;
#866 = CARTESIAN_POINT ( 'NONE',  ( 0.0000000000000000000, 4.997902761210856200E-033, 3.200000000000001500 ) ) ;
#867 = ADVANCED_FACE ( 'NONE', ( #1097 ), #221, .F. ) ;
#868 = DIRECTION ( 'NONE',  ( 0.0000000000000000000, 0.0000000000000000000, 1.000000000000000000 ) ) ;
#869 = ORIENTED_EDGE ( 'NONE', *, *, #251, .T. ) ;
#870 = DIRECTION ( 'NONE',  ( 8.659560562354966100E-017, 0.7071067811865501300, 0.7071067811865449100 ) ) ;
#871 = CALENDAR_DATE ( 2022, 9, 12 ) ;
#872 = EDGE_CURVE ( 'NONE', #432, #1076, #768, .T. ) ;
#873 = ORIENTED_EDGE ( 'NONE', *, *, #722, .F. ) ;
#874 = CIRCLE ( 'NONE', #403, 2.205000000000000100 ) ;
#875 = CARTESIAN_POINT ( 'NONE',  ( 2.232237999122127300, 1.211567502944515900, 0.1928062570097059900 ) ) ;
#876 = CYLINDRICAL_SURFACE ( 'NONE', #720, 0.3825000000000000100 ) ;
#877 = ADVANCED_FACE ( 'NONE', ( #639 ), #55, .T. ) ;
#878 = CARTESIAN_POINT ( 'NONE',  ( 2.165367235512694900, 1.327391063058408700, 7.807193742989943200 ) ) ;
#879 = CARTESIAN_POINT ( 'NONE',  ( 2.058749999992247400, -1.409456344663649400, 7.832569145071530200 ) ) ;
#880 = CARTESIAN_POINT ( 'NONE',  ( 1.443413851512607100, 1.764720835630474900, 0.02619637318196921200 ) ) ;
#881 = ORIENTED_EDGE ( 'NONE', *, *, #202, .T. ) ;
#882 = CARTESIAN_POINT ( 'NONE',  ( 1.751407957523576100, -1.586900355616226400, 0.08771028900139871100 ) ) ;
#883 = ADVANCED_FACE ( 'NONE', ( #469 ), #903, .T. ) ;
#884 = AXIS2_PLACEMENT_3D ( 'NONE', #1134, #407, #774 ) ;
#885 = CARTESIAN_POINT ( 'NONE',  ( 0.1912500000000081600, 2.487657972370792800, 0.1674308549307028700 ) ) ;
#886 = ORIENTED_EDGE ( 'NONE', *, *, #65, .F. ) ;
#887 = CARTESIAN_POINT ( 'NONE',  ( -2.058749999992246900, -1.409456344663651400, 0.1674308549284698500 ) ) ;
#888 = EDGE_LOOP ( 'NONE', ( #886, #917, #678, #373 ) ) ;
#889 = FACE_OUTER_BOUND ( 'NONE', #519, .T. ) ;
#890 = EDGE_CURVE ( 'NONE', #450, #243, #1008, .T. ) ;
#891 = ORIENTED_EDGE ( 'NONE', *, *, #977, .F. ) ;
#892 = CARTESIAN_POINT ( 'NONE',  ( -0.1341067189834032600, 2.520649661048107900, 0.1838936497272658800 ) ) ;
#893 = ORIENTED_EDGE ( 'NONE', *, *, #98, .T. ) ;
#894 = EDGE_LOOP ( 'NONE', ( #42, #1059, #734, #415, #287, #763, #754, #613, #367, #641 ) ) ;
#895 = EDGE_CURVE ( 'NONE', #1058, #1076, #309, .T. ) ;
#896 = DIRECTION ( 'NONE',  ( 1.000000000000000000, 0.0000000000000000000, 0.0000000000000000000 ) ) ;
#897 = ORIENTED_EDGE ( 'NONE', *, *, #202, .F. ) ;
#898 = UNCERTAINTY_MEASURE_WITH_UNIT (LENGTH_MEASURE( 1.000000000000000100E-005 ), #292, 'distance_accuracy_value', 'NONE');
#899 = VERTEX_POINT ( 'NONE', #907 ) ;
#900 = FACE_OUTER_BOUND ( 'NONE', #1045, .T. ) ;
#901 = CARTESIAN_POINT ( 'NONE',  ( 0.0000000000000000000, -2.734144733198826900E-015, 8.000000000000000000 ) ) ;
#902 = EDGE_CURVE ( 'NONE', #176, #982, #918, .T. ) ;
#903 = PLANE ( 'NONE',  #1102 ) ;
#904 = EDGE_CURVE ( 'NONE', #211, #366, #498, .T. ) ;
#905 = CARTESIAN_POINT ( 'NONE',  ( -1.439628572465429400, 1.766906267507320800, 0.03892223732339517000 ) ) ;
#906 = ORIENTED_EDGE ( 'NONE', *, *, #822, .F. ) ;
#907 = CARTESIAN_POINT ( 'NONE',  ( -2.249999999999999100, 3.679549628130195000E-014, 7.974019237887008900 ) ) ;
#908 = CIRCLE ( 'NONE', #661, 0.2249999999999999200 ) ;
#909 = LINE ( 'NONE', #986, #1074 ) ;
#910 = CARTESIAN_POINT ( 'NONE',  ( -0.8103714275345703700, -2.130208049522653200, 0.03892223732339324100 ) ) ;
#911 = ORIENTED_EDGE ( 'NONE', *, *, #904, .T. ) ;
#912 = EDGE_LOOP ( 'NONE', ( #159, #577, #595, #245 ) ) ;
#913 = ORIENTED_EDGE ( 'NONE', *, *, #1174, .F. ) ;
#914 = CARTESIAN_POINT ( 'NONE',  ( -2.205000000000000100, -4.336808689942017700E-015, 0.0000000000000000000 ) ) ;
#915 = CARTESIAN_POINT ( 'NONE',  ( 2.249999999999998700, 1.078201627711622200, 0.1674308549307038900 ) ) ;
#916 = ORIENTED_EDGE ( 'NONE', *, *, #502, .F. ) ;
#917 = ORIENTED_EDGE ( 'NONE', *, *, #1139, .F. ) ;
#918 = LINE ( 'NONE', #1179, #717 ) ;
#919 = CARTESIAN_POINT ( 'NONE',  ( 2.205000000000000100, -2.734144733198826900E-015, 8.000000000000000000 ) ) ;
#920 = DIRECTION ( 'NONE',  ( -0.0000000000000000000, 9.875224244405044000E-017, -1.000000000000000000 ) ) ;
#921 = EDGE_CURVE ( 'NONE', #980, #432, #689, .T. ) ;
#922 = APPROVAL_ROLE ( '' ) ;
#923 = B_SPLINE_CURVE_WITH_KNOTS ( 'NONE', 3,
 ( #317, #1125, #605, #115, #411, #227, #311, #683 ),
 .UNSPECIFIED., .F., .F.,
 ( 4, 2, 2, 4 ),
 ( 0.0002272936175608561300, 0.001312383105340146200, 0.001854927849229791200, 0.002397472593119436700 ),
 .UNSPECIFIED. ) ;
#924 = DIRECTION ( 'NONE',  ( -1.000000000000000000, -1.669238443041288700E-016, 0.0000000000000000000 ) ) ;
#925 = CARTESIAN_POINT ( 'NONE',  ( -0.1912500000000103600, -2.487657972370796300, 0.1674308549307001500 ) ) ;
#926 = CARTESIAN_POINT ( 'NONE',  ( 0.0000000000000000000, 0.0000000000000000000, 0.0000000000000000000 ) ) ;
#927 = EDGE_CURVE ( 'NONE', #724, #53, #908, .T. ) ;
#928 = VERTEX_POINT ( 'NONE', #94 ) ;
#929 = PLANE ( 'NONE',  #1047 ) ;
#930 = PERSON_AND_ORGANIZATION ( #133, #825 ) ;
#931 = CARTESIAN_POINT ( 'NONE',  ( 0.06750202539833151400, 2.538847684389566400, 7.807248115923526300 ) ) ;
#932 = ORIENTED_EDGE ( 'NONE', *, *, #1178, .T. ) ;
#933 = FACE_OUTER_BOUND ( 'NONE', #402, .T. ) ;
#934 = VECTOR ( 'NONE', #31, 1000.000000000000000 ) ;
#935 = CARTESIAN_POINT ( 'NONE',  ( 0.0000000000000000000, -2.734144733198826900E-015, 8.000000000000000000 ) ) ;
#936 = B_SPLINE_CURVE_WITH_KNOTS ( 'NONE', 3,
 ( #428, #694, #408, #1038, #1130, #792 ),
 .UNSPECIFIED., .F., .F.,
 ( 4, 2, 4 ),
 ( 8.706865556584522000E-015, 0.0002012759897654045400, 0.0004025519795221021700 ),
 .UNSPECIFIED. ) ;
#937 = CARTESIAN_POINT ( 'NONE',  ( 0.0000000000000000000, -4.888054128802905000E-016, -0.2249999999999999500 ) ) ;
#938 = CARTESIAN_POINT ( 'NONE',  ( 2.058749999992247400, -1.409456344663649400, 7.832569145071530200 ) ) ;
#939 = CARTESIAN_POINT ( 'NONE',  ( -0.06687076361143914900, 2.538958566004964300, 7.807193742990291300 ) ) ;
#940 = ORIENTED_EDGE ( 'NONE', *, *, #427, .F. ) ;
#941 = DIRECTION ( 'NONE',  ( -0.0000000000000000000, 9.875224244405044000E-017, -1.000000000000000000 ) ) ;
#942 = EDGE_CURVE ( 'NONE', #1076, #211, #983, .T. ) ;
#943 = DIRECTION ( 'NONE',  ( -0.0000000000000000000, 9.875224244405044000E-017, -1.000000000000000000 ) ) ;
#944 = DIRECTION ( 'NONE',  ( 0.0000000000000000000, 1.000000000000000000, 0.0000000000000000000 ) ) ;
#945 = CARTESIAN_POINT ( 'NONE',  ( -0.06750202539833305400, -2.538847684389570400, 7.807248115923526300 ) ) ;
#946 = CARTESIAN_POINT ( 'NONE',  ( 1.255262969126033400E-016, 1.024999999999996800, -3.899999999999999500 ) ) ;
#947 = VECTOR ( 'NONE', #956, 1000.000000000000000 ) ;
#948 = AXIS2_PLACEMENT_3D ( 'NONE', #37, #1034, #681 ) ;
#949 = ADVANCED_FACE ( 'NONE', ( #349 ), #188, .T. ) ;
#950 = CARTESIAN_POINT ( 'NONE',  ( -0.1912500000000017500, -2.487657972370800800, -6.873863542433758400 ) ) ;
#951 = TOROIDAL_SURFACE ( 'NONE', #998, 1.182716426222757600, 0.2249999999999999200 ) ;
#952 = CARTESIAN_POINT ( 'NONE',  ( 1.255262969126035900E-016, 1.024999999999998100, 3.200000000000001500 ) ) ;
#953 = CARTESIAN_POINT ( 'NONE',  ( 2.164955578321495100, 1.327882310996641300, 0.1927518840764755000 ) ) ;
#954 = DIRECTION ( 'NONE',  ( 0.0000000000000000000, -0.7071067811865503500, 0.7071067811865445800 ) ) ;
#955 = AXIS2_PLACEMENT_3D ( 'NONE', #270, #732, #353 ) ;
#956 = DIRECTION ( 'NONE',  ( 0.0000000000000000000, 0.0000000000000000000, 1.000000000000000000 ) ) ;
#957 = CARTESIAN_POINT ( 'NONE',  ( 0.0000000000000000000, -4.481441770539532500E-016, -0.6367499999999949300 ) ) ;
#958 = ORIENTED_EDGE ( 'NONE', *, *, #942, .F. ) ;
#959 = CARTESIAN_POINT ( 'NONE',  ( 2.249999999999998700, 1.078201627711623500, -6.873863542433758400 ) ) ;
#960 = EDGE_CURVE ( 'NONE', #24, #799, #524, .T. ) ;
#961 = ORIENTED_EDGE ( 'NONE', *, *, #296, .T. ) ;
#962 = ORIENTED_EDGE ( 'NONE', *, *, #612, .T. ) ;
#963 = FACE_OUTER_BOUND ( 'NONE', #1121, .T. ) ;
#964 = LINE ( 'NONE', #25, #589 ) ;
#965 = CC_DESIGN_PERSON_AND_ORGANIZATION_ASSIGNMENT ( #374, #1109, ( #1067 ) ) ;
#966 = DIRECTION ( 'NONE',  ( -0.0000000000000000000, 9.875224244405044000E-017, -1.000000000000000000 ) ) ;
#967 = CARTESIAN_POINT ( 'NONE',  ( -2.249999999999999100, 3.679549628130195000E-014, 7.974019237887008900 ) ) ;
#968 = CARTESIAN_POINT ( 'NONE',  ( 0.0000000000000000000, -4.336808689942017700E-015, 0.0000000000000000000 ) ) ;
#969 = FACE_OUTER_BOUND ( 'NONE', #604, .T. ) ;
#970 = DIRECTION ( 'NONE',  ( 0.5000000000000002200, 0.8660254037844386000, -0.0000000000000000000 ) ) ;
#971 = VECTOR ( 'NONE', #865, 1000.000000000000100 ) ;
#972 = AXIS2_PLACEMENT_3D ( 'NONE', #847, #1118, #12 ) ;
#973 = DIRECTION ( 'NONE',  ( -0.8660254037844384900, 0.5000000000000001100, 0.0000000000000000000 ) ) ;
#974 = ORIENTED_EDGE ( 'NONE', *, *, #565, .F. ) ;
#975 = ORIENTED_EDGE ( 'NONE', *, *, #636, .T. ) ;
#976 = ORIENTED_EDGE ( 'NONE', *, *, #1120, .F. ) ;
#977 = EDGE_CURVE ( 'NONE', #237, #620, #197, .T. ) ;
#978 = CARTESIAN_POINT ( 'NONE',  ( 0.0000000000000000000, -1.024999999999999900, 3.200000000000001500 ) ) ;
#979 = DIRECTION ( 'NONE',  ( 0.0000000000000000000, 0.0000000000000000000, -1.000000000000000000 ) ) ;
#980 = VERTEX_POINT ( 'NONE', #919 ) ;
#981 = ORIENTED_EDGE ( 'NONE', *, *, #48, .F. ) ;
#982 = VERTEX_POINT ( 'NONE', #738 ) ;
#983 = LINE ( 'NONE', #554, #755 ) ;
#984 = LINE ( 'NONE', #859, #934 ) ;
#985 = CARTESIAN_POINT ( 'NONE',  ( -1.281228882126025400, 1.858358371364328800, 0.02587396801048967600 ) ) ;
#986 = CARTESIAN_POINT ( 'NONE',  ( 0.0000000000000000000, -1.024999999999997200, -3.899999999999999500 ) ) ;
#987 = AXIS2_PLACEMENT_3D ( 'NONE', #866, #778, #679 ) ;
#988 = CARTESIAN_POINT ( 'NONE',  ( 2.250000000000000000, -1.144202757444292100, 7.816101921067747100 ) ) ;
#989 = DIRECTION ( 'NONE',  ( 0.8660254037844397100, -1.060575238724908100E-016, 0.4999999999999979500 ) ) ;
#990 = VERTEX_POINT ( 'NONE', #1084 ) ;
#991 = EDGE_CURVE ( 'NONE', #578, #726, #263, .T. ) ;
#992 = DIRECTION ( 'NONE',  ( 1.000000000000000000, 0.0000000000000000000, 0.0000000000000000000 ) ) ;
#993 = DIRECTION ( 'NONE',  ( -0.0000000000000000000, 9.875224244405044000E-017, -1.000000000000000000 ) ) ;
#994 = APPROVAL_DATE_TIME ( #1177, #29 ) ;
#995 = DIRECTION ( 'NONE',  ( 0.0000000000000000000, 0.0000000000000000000, -1.000000000000000000 ) ) ;
#996 = CIRCLE ( 'NONE', #1111, 1.250000000000000200 ) ;
#997 = DIRECTION ( 'NONE',  ( 1.000000000000000000, 0.0000000000000000000, 0.0000000000000000000 ) ) ;
#998 = AXIS2_PLACEMENT_3D ( 'NONE', #1070, #74, #455 ) ;
#999 = DIRECTION ( 'NONE',  ( 0.0000000000000000000, 0.0000000000000000000, 1.000000000000000000 ) ) ;
#1000 = CARTESIAN_POINT ( 'NONE',  ( 1.806354028742350500E-016, 1.475000000000002300, 8.000000000000000000 ) ) ;
#1001 = MANIFOLD_SOLID_BREP ( 'Fillet1', #1071 ) ;
#1002 = AXIS2_PLACEMENT_3D ( 'NONE', #1039, #1132, #316 ) ;
#1003 = DIRECTION ( 'NONE',  ( -0.0000000000000000000, -0.0000000000000000000, -1.000000000000000000 ) ) ;
#1004 = ORIENTED_EDGE ( 'NONE', *, *, #127, .T. ) ;
#1005 = SECURITY_CLASSIFICATION_LEVEL ( 'unclassified' ) ;
#1006 = ORIENTED_EDGE ( 'NONE', *, *, #364, .T. ) ;
#1007 = ORIENTED_EDGE ( 'NONE', *, *, #434, .F. ) ;
#1008 = CIRCLE ( 'NONE', #725, 1.249999999999999800 ) ;
#1009 = B_SPLINE_CURVE_WITH_KNOTS ( 'NONE', 3,
 ( #804, #788, #713, #1152, #232, #882, #328, #429 ),
 .UNSPECIFIED., .F., .F.,
 ( 4, 2, 2, 4 ),
 ( 0.0002272936175608557500, 0.001312383105340146600, 0.001854927849229792100, 0.002397472593119437600 ),
 .UNSPECIFIED. ) ;
#1010 = CARTESIAN_POINT ( 'NONE',  ( -2.249999999999998700, -1.078201627711654200, 7.832569145069291100 ) ) ;
#1011 = FACE_OUTER_BOUND ( 'NONE', #719, .T. ) ;
#1012 = CARTESIAN_POINT ( 'NONE',  ( -2.232457603721900600, 1.210965373387891100, 0.1927518840761218400 ) ) ;
#1013 = APPLICATION_PROTOCOL_DEFINITION ( 'international standard', 'config_control_design', 1994, #387 ) ;
#1014 = EDGE_CURVE ( 'NONE', #786, #1133, #1137, .T. ) ;
#1015 = EDGE_LOOP ( 'NONE', ( #99, #571, #873, #1065 ) ) ;
#1016 = CARTESIAN_POINT ( 'NONE',  ( 1.530808498934190300E-016, -1.249999999999999100, -3.899999999999999900 ) ) ;
#1017 = CARTESIAN_POINT ( 'NONE',  ( 0.1341067189834030900, 2.520649661048107100, 7.816106350272735700 ) ) ;
#1018 = CC_DESIGN_PERSON_AND_ORGANIZATION_ASSIGNMENT ( #97, #477, ( #341 ) ) ;
#1019 = ORIENTED_EDGE ( 'NONE', *, *, #334, .T. ) ;
#1020 = ORIENTED_EDGE ( 'NONE', *, *, #391, .T. ) ;
#1021 = APPROVAL_ROLE ( '' ) ;
#1022 = DIRECTION ( 'NONE',  ( 1.669238443041288700E-016, -1.000000000000000000, 0.0000000000000000000 ) ) ;
#1023 = CARTESIAN_POINT ( 'NONE',  ( 0.0000000000000000000, 1.249999999999999300, -0.6367499999999948200 ) ) ;
#1024 = CARTESIAN_POINT ( 'NONE',  ( 0.0000000000000000000, -1.024999999999999900, 3.200000000000001500 ) ) ;
#1025 = APPLICATION_PROTOCOL_DEFINITION ( 'international standard', 'config_control_design', 1994, #852 ) ;
#1026 = ADVANCED_FACE ( 'NONE', ( #963 ), #831, .T. ) ;
#1027 = CARTESIAN_POINT ( 'NONE',  ( 0.0000000000000000000, -1.278823352432694100E-015, 7.775000000000001200 ) ) ;
#1028 = CARTESIAN_POINT ( 'NONE',  ( -2.232457603721894800, -1.210965373387911500, 7.807248115923879800 ) ) ;
#1029 = DIRECTION ( 'NONE',  ( 0.0000000000000000000, 1.000000000000000000, 0.0000000000000000000 ) ) ;
#1030 = ORIENTED_EDGE ( 'NONE', *, *, #1079, .F. ) ;
#1031 = CARTESIAN_POINT ( 'NONE',  ( 0.0000000000000000000, 1.250000000000000200, -3.899999999999999900 ) ) ;
#1032 = CIRCLE ( 'NONE', #490, 1.475000000000003400 ) ;
#1033 = B_SPLINE_CURVE_WITH_KNOTS ( 'NONE', 3,
 ( #481, #283, #585, #20, #660, #576 ),
 .UNSPECIFIED., .F., .F.,
 ( 4, 2, 4 ),
 ( 0.009279482928010602700, 0.009822063801721406900, 0.01036464467543221100 ),
 .UNSPECIFIED. ) ;
#1034 = DIRECTION ( 'NONE',  ( 0.0000000000000000000, 0.0000000000000000000, -1.000000000000000000 ) ) ;
#1035 = DIRECTION ( 'NONE',  ( 0.0000000000000000000, 1.000000000000000000, 0.0000000000000000000 ) ) ;
#1036 = ORIENTED_EDGE ( 'NONE', *, *, #845, .F. ) ;
#1037 = AXIS2_PLACEMENT_3D ( 'NONE', #505, #299, #68 ) ;
#1038 = CARTESIAN_POINT ( 'NONE',  ( -2.232237999122074400, -1.211567502944647100, 0.1928062570097134300 ) ) ;
#1039 = CARTESIAN_POINT ( 'NONE',  ( 0.0000000000000000000, -1.278823352432694100E-015, 7.775000000000001200 ) ) ;
#1040 = CARTESIAN_POINT ( 'NONE',  ( -1.751407957523577700, -1.586900355616227800, 7.912289710998601700 ) ) ;
#1041 = DIRECTION ( 'NONE',  ( 0.0000000000000000000, 1.000000000000000000, 9.875224244405044000E-017 ) ) ;
#1042 = DIRECTION ( 'NONE',  ( -0.0000000000000000000, 9.875224244405044000E-017, -1.000000000000000000 ) ) ;
#1043 = EDGE_CURVE ( 'NONE', #450, #810, #324, .T. ) ;
#1044 = DIRECTION ( 'NONE',  ( -1.224646799147353500E-016, 1.000000000000000000, 0.0000000000000000000 ) ) ;
#1045 = EDGE_LOOP ( 'NONE', ( #974, #1096, #580, #812 ) ) ;
#1046 = DATE_AND_TIME ( #320, #706 ) ;
#1047 = AXIS2_PLACEMENT_3D ( 'NONE', #588, #924, #1022 ) ;
#1048 = ORIENTED_EDGE ( 'NONE', *, *, #764, .T. ) ;
#1049 = CIRCLE ( 'NONE', #1158, 1.024999999999997000 ) ;
#1050 = CARTESIAN_POINT ( 'NONE',  ( 2.058749999999990500, 1.409456344659175900, 7.832569145069298200 ) ) ;
#1051 = CYLINDRICAL_SURFACE ( 'NONE', #344, 1.249999999999998900 ) ;
#1052 = ADVANCED_FACE ( 'NONE', ( #666 ), #177, .T. ) ;
#1053 = CARTESIAN_POINT ( 'NONE',  ( -0.4985920424764221900, 2.310213961413746900, 7.912289710998598100 ) ) ;
#1054 = CARTESIAN_POINT ( 'NONE',  ( -2.249999999999998700, -1.078201627711628400, -6.873863542433758400 ) ) ;
#1055 = VERTEX_POINT ( 'NONE', #656 ) ;
#1056 = AXIS2_PLACEMENT_3D ( 'NONE', #935, #1110, #1114 ) ;
#1057 = CARTESIAN_POINT ( 'NONE',  ( -1.281228882126026500, -1.858358371364333000, 7.974126031989515100 ) ) ;
#1058 = VERTEX_POINT ( 'NONE', #938 ) ;
#1059 = ORIENTED_EDGE ( 'NONE', *, *, #1166, .F. ) ;
#1060 = CARTESIAN_POINT ( 'NONE',  ( 0.1912500000000000000, 2.487657972370797700, -6.873863542433758400 ) ) ;
#1061 = CARTESIAN_POINT ( 'NONE',  ( 2.249999999999998700, -1.078201627711823600, 0.1674308549307519900 ) ) ;
#1062 = EDGE_CURVE ( 'NONE', #1055, #243, #728, .T. ) ;
#1063 = CIRCLE ( 'NONE', #192, 0.2249999999999999500 ) ;
#1064 = VECTOR ( 'NONE', #687, 1000.000000000000000 ) ;
#1065 = ORIENTED_EDGE ( 'NONE', *, *, #742, .F. ) ;
#1066 = ORIENTED_EDGE ( 'NONE', *, *, #369, .T. ) ;
#1067 = PRODUCT_DEFINITION ( 'UNKNOWN', '', #341, #422 ) ;
#1068 = ORIENTED_EDGE ( 'NONE', *, *, #444, .F. ) ;
#1069 = COORDINATED_UNIVERSAL_TIME_OFFSET ( 6, 0, .BEHIND. ) ;
#1070 = CARTESIAN_POINT ( 'NONE',  ( 0.0000000000000000000, -6.505213034913026600E-016, -0.2249999999999998900 ) ) ;
#1071 = CLOSED_SHELL ( 'NONE', ( #867, #213, #382, #321, #520, #41, #395, #1140, #5, #794, #1135, #883, #134, #1026, #1146, #1119, #23, #508, #782, #657, #143, #700, #16, #231, #58, #491, #691, #675, #837, #412, #877, #1052, #949, #286, #126, #300 ) ) ;
#1072 = LINE ( 'NONE', #378, #1151 ) ;
#1073 = EDGE_CURVE ( 'NONE', #1190, #899, #1106, .T. ) ;
#1074 = VECTOR ( 'NONE', #1085, 1000.000000000000000 ) ;
#1075 = PRODUCT_DEFINITION_SHAPE ( 'NONE', 'NONE',  #1067 ) ;
#1076 = VERTEX_POINT ( 'NONE', #113 ) ;
#1077 = VERTEX_POINT ( 'NONE', #757 ) ;
#1078 = ORIENTED_EDGE ( 'NONE', *, *, #19, .F. ) ;
#1079 = EDGE_CURVE ( 'NONE', #980, #269, #874, .T. ) ;
#1080 = CARTESIAN_POINT ( 'NONE',  ( -0.1912500000077516900, 2.487657972366322600, 0.1674308549284724300 ) ) ;
#1081 = COORDINATED_UNIVERSAL_TIME_OFFSET ( 6, 0, .BEHIND. ) ;
#1082 = CIRCLE ( 'NONE', #357, 0.9577164262227575400 ) ;
#1083 = VECTOR ( 'NONE', #870, 1000.000000000000000 ) ;
#1084 = CARTESIAN_POINT ( 'NONE',  ( -0.1912500000000085500, 2.487657972370793200, 7.832569145069298200 ) ) ;
#1085 = DIRECTION ( 'NONE',  ( 0.0000000000000000000, -0.7071067811865493500, 0.7071067811865456900 ) ) ;
#1086 = CC_DESIGN_PERSON_AND_ORGANIZATION_ASSIGNMENT ( #305, #3, ( #409 ) ) ;
#1087 = CARTESIAN_POINT ( 'NONE',  ( 2.165367235512644300, -1.327391063058463100, 0.1928062570100459400 ) ) ;
#1088 = CARTESIAN_POINT ( 'NONE',  ( 2.249999999999998700, -1.299038105676658700, -6.873863542433758400 ) ) ;
#1089 = ORIENTED_EDGE ( 'NONE', *, *, #451, .F. ) ;
#1090 = EDGE_CURVE ( 'NONE', #1190, #50, #377, .T. ) ;
#1091 = CARTESIAN_POINT ( 'NONE',  ( 2.115908655028092300, -1.376455779792189200, 0.1838980789325802800 ) ) ;
#1092 = ORIENTED_EDGE ( 'NONE', *, *, #48, .T. ) ;
#1093 = CARTESIAN_POINT ( 'NONE',  ( -2.115893281016594700, 1.376464655981861400, 7.816106350272733900 ) ) ;
#1094 = APPROVAL_PERSON_ORGANIZATION ( #160, #592, #104 ) ;
#1095 = CARTESIAN_POINT ( 'NONE',  ( 0.06750202539832925200, -2.538847684389570900, 0.1927518840764741400 ) ) ;
#1096 = ORIENTED_EDGE ( 'NONE', *, *, #502, .T. ) ;
#1097 = FACE_OUTER_BOUND ( 'NONE', #314, .T. ) ;
#1098 = LINE ( 'NONE', #1031, #69 ) ;
#1099 = EDGE_CURVE ( 'NONE', #96, #726, #473, .T. ) ;
#1100 = CARTESIAN_POINT ( 'NONE',  ( -2.249999999999999100, 8.113320553552770500E-014, 0.02598076211244717100 ) ) ;
#1101 = CARTESIAN_POINT ( 'NONE',  ( -2.115908655028121200, 1.376455779792169500, 0.1838980789325905000 ) ) ;
#1102 = AXIS2_PLACEMENT_3D ( 'NONE', #343, #970, #973 ) ;
#1103 = VERTEX_POINT ( 'NONE', #101 ) ;
#1104 = APPROVAL_STATUS ( 'not_yet_approved' ) ;
#1105 = ORIENTED_EDGE ( 'NONE', *, *, #267, .T. ) ;
#1106 = B_SPLINE_CURVE_WITH_KNOTS ( 'NONE', 3,
 ( #474, #194, #1107, #749 ),
 .UNSPECIFIED., .F., .F.,
 ( 4, 4 ),
 ( 0.01330626963465530700, 0.01437404426246731800 ),
 .UNSPECIFIED. ) ;
#1107 = CARTESIAN_POINT ( 'NONE',  ( -2.249999999999999100, -0.3637866779806857600, 7.974019237886476900 ) ) ;
#1108 = CARTESIAN_POINT ( 'NONE',  ( 2.249999999999998700, 8.085766050654802200E-014, 0.02598076211244704600 ) ) ;
#1109 = PERSON_AND_ORGANIZATION_ROLE ( 'creator' ) ;
#1110 = DIRECTION ( 'NONE',  ( 0.0000000000000000000, 0.0000000000000000000, -1.000000000000000000 ) ) ;
#1111 = AXIS2_PLACEMENT_3D ( 'NONE', #586, #941, #130 ) ;
#1112 = DIRECTION ( 'NONE',  ( 0.0000000000000000000, 0.0000000000000000000, 1.000000000000000000 ) ) ;
#1113 = CARTESIAN_POINT ( 'NONE',  ( 0.0000000000000000000, -1.258909218984051700E-016, -3.899999999999999900 ) ) ;
#1114 = DIRECTION ( 'NONE',  ( 1.000000000000000000, 0.0000000000000000000, 0.0000000000000000000 ) ) ;
#1115 = EDGE_LOOP ( 'NONE', ( #54, #753, #171, #594 ) ) ;
#1116 = CIRCLE ( 'NONE', #948, 2.205000000000000100 ) ;
#1117 = CIRCLE ( 'NONE', #61, 1.024999999999997000 ) ;
#1118 = DIRECTION ( 'NONE',  ( -0.0000000000000000000, 9.875224244405044000E-017, -1.000000000000000000 ) ) ;
#1119 = ADVANCED_FACE ( 'NONE', ( #1173 ), #929, .T. ) ;
#1120 = EDGE_CURVE ( 'NONE', #442, #799, #1072, .T. ) ;
#1121 = EDGE_LOOP ( 'NONE', ( #1066, #271, #260, #235 ) ) ;
#1122 = CARTESIAN_POINT ( 'NONE',  ( 0.1912500000000071100, -2.487657972370796300, 7.832569145069300000 ) ) ;
#1123 = DIRECTION ( 'NONE',  ( 0.0000000000000000000, 0.0000000000000000000, 1.000000000000000000 ) ) ;
#1124 = CARTESIAN_POINT ( 'NONE',  ( -2.205000000000000100, -3.024853832003010900E-015, 8.000000000000000000 ) ) ;
#1125 = CARTESIAN_POINT ( 'NONE',  ( 0.4967532692869269200, 2.311275577609679400, 7.920583650766598500 ) ) ;
#1126 = VERTEX_POINT ( 'NONE', #294 ) ;
#1127 = ORIENTED_EDGE ( 'NONE', *, *, #351, .F. ) ;
#1128 = CARTESIAN_POINT ( 'NONE',  ( 0.0000000000000000000, 1.249999999999999300, 7.775000000000001200 ) ) ;
#1129 = CARTESIAN_POINT ( 'NONE',  ( 0.0000000000000000000, -1.481101764483165500E-016, -3.674999999999999400 ) ) ;
#1130 = CARTESIAN_POINT ( 'NONE',  ( -2.249999999999998700, -1.144202757444272600, 0.1838980789322488000 ) ) ;
#1131 = CC_DESIGN_APPROVAL ( #29, ( #1067 ) ) ;
#1132 = DIRECTION ( 'NONE',  ( -0.0000000000000000000, 9.875224244405044000E-017, -1.000000000000000000 ) ) ;
#1133 = VERTEX_POINT ( 'NONE', #500 ) ;
#1134 = CARTESIAN_POINT ( 'NONE',  ( 0.0000000000000000000, -5.110246674302018000E-016, 0.0000000000000000000 ) ) ;
#1135 = ADVANCED_FACE ( 'NONE', ( #933 ), #119, .T. ) ;
#1136 = VERTEX_POINT ( 'NONE', #106 ) ;
#1137 = LINE ( 'NONE', #95, #506 ) ;
#1138 = B_SPLINE_CURVE_WITH_KNOTS ( 'NONE', 3,
 ( #967, #45, #421, #790, #514, #139 ),
 .UNSPECIFIED., .F., .F.,
 ( 4, 2, 4 ),
 ( 0.01437404426246731800, 0.01490732913734095200, 0.01544061401221458500 ),
 .UNSPECIFIED. ) ;
#1139 = EDGE_CURVE ( 'NONE', #50, #499, #376, .T. ) ;
#1140 = ADVANCED_FACE ( 'NONE', ( #607 ), #709, .F. ) ;
#1141 = ORIENTED_EDGE ( 'NONE', *, *, #444, .T. ) ;
#1142 = CARTESIAN_POINT ( 'NONE',  ( 1.393035734030113800E-016, 1.024999999999998100, 3.200000000000001500 ) ) ;
#1143 = CARTESIAN_POINT ( 'NONE',  ( 1.753246730713071700, -1.585838739420293100, 7.920583650766600300 ) ) ;
#1144 = CARTESIAN_POINT ( 'NONE',  ( 2.115893281016593800, 1.376464655981861900, 0.1838936497272643800 ) ) ;
#1145 = CARTESIAN_POINT ( 'NONE',  ( 0.1912500000000081600, 2.487657972370792800, 0.1674308549307028700 ) ) ;
#1146 = ADVANCED_FACE ( 'NONE', ( #204 ), #503, .T. ) ;
#1147 = EDGE_CURVE ( 'NONE', #1126, #450, #291, .T. ) ;
#1148 = CARTESIAN_POINT ( 'NONE',  ( -1.905686749927789900, -1.497827453291405300, 7.876666173317352600 ) ) ;
#1149 = PERSON_AND_ORGANIZATION ( #133, #825 ) ;
#1150 = ORIENTED_EDGE ( 'NONE', *, *, #659, .T. ) ;
#1151 = VECTOR ( 'NONE', #30, 1000.000000000000000 ) ;
#1152 = CARTESIAN_POINT ( 'NONE',  ( 1.281228882126025100, -1.858358371364332400, 0.02587396801048674400 ) ) ;
#1153 = FACE_OUTER_BOUND ( 'NONE', #648, .T. ) ;
#1154 = ORIENTED_EDGE ( 'NONE', *, *, #312, .F. ) ;
#1155 = CARTESIAN_POINT ( 'NONE',  ( 2.115908655028120300, 1.376455779792170200, 7.816101921067410500 ) ) ;
#1156 = EDGE_LOOP ( 'NONE', ( #981, #531, #647, #814 ) ) ;
#1157 = VERTEX_POINT ( 'NONE', #1128 ) ;
#1158 = AXIS2_PLACEMENT_3D ( 'NONE', #723, #256, #170 ) ;
#1159 = CARTESIAN_POINT ( 'NONE',  ( -2.249999999999999100, 8.113320553552770500E-014, 0.02598076211244717100 ) ) ;
#1160 = EDGE_CURVE ( 'NONE', #7, #237, #433, .T. ) ;
#1161 = ORIENTED_EDGE ( 'NONE', *, *, #285, .F. ) ;
#1162 = ORIENTED_EDGE ( 'NONE', *, *, #117, .F. ) ;
#1163 = CONICAL_SURFACE ( 'NONE', #89, 2.205000000000000100, 1.047197551196600100 ) ;
#1164 = DIRECTION ( 'NONE',  ( 1.000000000000000000, 0.0000000000000000000, 0.0000000000000000000 ) ) ;
#1165 = ORIENTED_EDGE ( 'NONE', *, *, #991, .F. ) ;
#1166 = EDGE_CURVE ( 'NONE', #578, #751, #1116, .T. ) ;
#1167 = CARTESIAN_POINT ( 'NONE',  ( 2.058749999999999000, -1.409456344659174100, -6.873863542433758400 ) ) ;
#1168 = DIRECTION ( 'NONE',  ( -0.0000000000000000000, 0.0000000000000000000, 1.000000000000000000 ) ) ;
#1169 = ORIENTED_EDGE ( 'NONE', *, *, #325, .F. ) ;
#1170 = COORDINATED_UNIVERSAL_TIME_OFFSET ( 6, 0, .BEHIND. ) ;
#1171 = ORIENTED_EDGE ( 'NONE', *, *, #439, .T. ) ;
#1172 = CARTESIAN_POINT ( 'NONE',  ( 0.0000000000000000000, -4.648086179663862100E-016, -0.4680000000000000800 ) ) ;
#1173 = FACE_OUTER_BOUND ( 'NONE', #331, .T. ) ;
#1174 = EDGE_CURVE ( 'NONE', #82, #928, #136, .T. ) ;
#1175 = VECTOR ( 'NONE', #1042, 1000.000000000000000 ) ;
#1176 = DIRECTION ( 'NONE',  ( -0.0000000000000000000, -0.0000000000000000000, -1.000000000000000000 ) ) ;
#1177 = DATE_AND_TIME ( #775, #630 ) ;
#1178 = EDGE_CURVE ( 'NONE', #187, #53, #854, .T. ) ;
#1179 = CARTESIAN_POINT ( 'NONE',  ( 2.058749999999998500, 1.409456344659171500, -6.873863542433758400 ) ) ;
#1180 = EDGE_LOOP ( 'NONE', ( #1036, #476, #483, #1154 ) ) ;
#1181 = DIRECTION ( 'NONE',  ( 1.000000000000000000, 0.0000000000000000000, 0.0000000000000000000 ) ) ;
#1182 = CARTESIAN_POINT ( 'NONE',  ( -2.165367235512694500, 1.327391063058408700, 0.1928062570100562400 ) ) ;
#1183 = CARTESIAN_POINT ( 'NONE',  ( 2.232237999122120200, -1.211567502944533600, 7.807193742990291300 ) ) ;
#1184 = CARTESIAN_POINT ( 'NONE',  ( 0.1341067189834015100, -2.520649661048111900, 0.1838936497272628500 ) ) ;
#1185 = LINE ( 'NONE', #472, #715 ) ;
#1186 = VECTOR ( 'NONE', #487, 1000.000000000000000 ) ;
#1187 = CARTESIAN_POINT ( 'NONE',  ( 2.115893281016591100, -1.376464655981866500, 7.816106350272737500 ) ) ;
#1188 = CARTESIAN_POINT ( 'NONE',  ( -2.058749999999989600, 1.409456344659176800, 0.1674308549307019500 ) ) ;
#1189 = AXIS2_PLACEMENT_3D ( 'NONE', #464, #1123, #480 ) ;
#1190 = VERTEX_POINT ( 'NONE', #22 ) ;
#1191 = B_SPLINE_CURVE_WITH_KNOTS ( 'NONE', 3,
 ( #783, #1144, #953, #875, #313, #598 ),
 .UNSPECIFIED., .F., .F.,
 ( 4, 2, 4 ),
 ( 8.706717521983334400E-015, 0.0002012759897655055000, 0.0004025519795223043200 ),
 .UNSPECIFIED. ) ;
ENDSEC;
END-ISO-10303-21;
